<?xml version="1.0" encoding="UTF-8" standalone="no"?>
<!DOCTYPE svg PUBLIC "-//W3C//DTD SVG 1.1//EN"
 "http://www.w3.org/Graphics/SVG/1.1/DTD/svg11.dtd">
<!-- Generated by graphviz version 14.1.3 (20260303.0454)
 -->
<!-- Title: MethodFamilyMap Pages: 1 -->
<svg width="423pt" height="324pt"
 viewBox="0.00 0.00 423.00 324.00" xmlns="http://www.w3.org/2000/svg" xmlns:xlink="http://www.w3.org/1999/xlink">
<g id="graph0" class="graph" transform="scale(1 1) rotate(0) translate(4 320.25)">
<title>MethodFamilyMap</title>
<polygon fill="white" stroke="none" points="-4,4 -4,-320.25 419.33,-320.25 419.33,4 -4,4"/>
<text xml:space="preserve" text-anchor="middle" x="207.67" y="-300.85" font-family="Times,serif" font-size="12.00">How the chapter&#39;s methods differ</text>
<!-- dp -->
<g id="node1" class="node">
<title>dp</title>
<path fill="none" stroke="black" d="M173.75,-294C173.75,-294 79.75,-294 79.75,-294 73.75,-294 67.75,-288 67.75,-282 67.75,-282 67.75,-244 67.75,-244 67.75,-238 73.75,-232 79.75,-232 79.75,-232 173.75,-232 173.75,-232 179.75,-232 185.75,-238 185.75,-244 185.75,-244 185.75,-282 185.75,-282 185.75,-288 179.75,-294 173.75,-294"/>
<text xml:space="preserve" text-anchor="middle" x="126.75" y="-279.55" font-family="Times,serif" font-size="11.00">Dynamic programming</text>
<text xml:space="preserve" text-anchor="middle" x="126.75" y="-266.05" font-family="Times,serif" font-size="11.00">known model</text>
<text xml:space="preserve" text-anchor="middle" x="126.75" y="-252.55" font-family="Times,serif" font-size="11.00">full expectation</text>
<text xml:space="preserve" text-anchor="middle" x="126.75" y="-239.05" font-family="Times,serif" font-size="11.00">bootstraps</text>
</g>
<!-- td -->
<g id="node3" class="node">
<title>td</title>
<path fill="none" stroke="black" d="M260,-163C260,-163 167.5,-163 167.5,-163 161.5,-163 155.5,-157 155.5,-151 155.5,-151 155.5,-113 155.5,-113 155.5,-107 161.5,-101 167.5,-101 167.5,-101 260,-101 260,-101 266,-101 272,-107 272,-113 272,-113 272,-151 272,-151 272,-157 266,-163 260,-163"/>
<text xml:space="preserve" text-anchor="middle" x="213.75" y="-148.55" font-family="Times,serif" font-size="11.00">TD prediction</text>
<text xml:space="preserve" text-anchor="middle" x="213.75" y="-135.05" font-family="Times,serif" font-size="11.00">unknown model OK</text>
<text xml:space="preserve" text-anchor="middle" x="213.75" y="-121.55" font-family="Times,serif" font-size="11.00">one&#45;step sample target</text>
<text xml:space="preserve" text-anchor="middle" x="213.75" y="-108.05" font-family="Times,serif" font-size="11.00">bootstraps</text>
</g>
<!-- dp&#45;&gt;td -->
<g id="edge1" class="edge">
<title>dp&#45;&gt;td</title>
<path fill="none" stroke="black" d="M120.4,-231.54C118.67,-215.44 119.3,-195.97 128.25,-181 132.8,-173.4 139.02,-166.9 146.07,-161.38"/>
<polygon fill="black" stroke="black" points="147.92,-164.35 154.11,-155.76 143.91,-158.62 147.92,-164.35"/>
<text xml:space="preserve" text-anchor="middle" x="204" y="-200.7" font-family="Times,serif" font-size="14.00">replace expectation</text>
<text xml:space="preserve" text-anchor="middle" x="204" y="-184.2" font-family="Times,serif" font-size="14.00">with one sampled transition</text>
</g>
<!-- mc -->
<g id="node2" class="node">
<title>mc</title>
<path fill="none" stroke="black" d="M342.38,-294C342.38,-294 261.12,-294 261.12,-294 255.12,-294 249.12,-288 249.12,-282 249.12,-282 249.12,-244 249.12,-244 249.12,-238 255.12,-232 261.12,-232 261.12,-232 342.38,-232 342.38,-232 348.38,-232 354.38,-238 354.38,-244 354.38,-244 354.38,-282 354.38,-282 354.38,-288 348.38,-294 342.38,-294"/>
<text xml:space="preserve" text-anchor="middle" x="301.75" y="-279.55" font-family="Times,serif" font-size="11.00">Monte Carlo</text>
<text xml:space="preserve" text-anchor="middle" x="301.75" y="-266.05" font-family="Times,serif" font-size="11.00">unknown model OK</text>
<text xml:space="preserve" text-anchor="middle" x="301.75" y="-252.55" font-family="Times,serif" font-size="11.00">full sampled return</text>
<text xml:space="preserve" text-anchor="middle" x="301.75" y="-239.05" font-family="Times,serif" font-size="11.00">no bootstrapping</text>
</g>
<!-- mc&#45;&gt;td -->
<g id="edge2" class="edge">
<title>mc&#45;&gt;td</title>
<path fill="none" stroke="black" d="M298.49,-231.86C295.58,-215.66 290.09,-196 279.75,-181 277.4,-177.59 274.73,-174.34 271.83,-171.24"/>
<polygon fill="black" stroke="black" points="274.46,-168.91 264.83,-164.49 269.6,-173.95 274.46,-168.91"/>
<text xml:space="preserve" text-anchor="middle" x="350.09" y="-200.7" font-family="Times,serif" font-size="14.00">replace full return</text>
<text xml:space="preserve" text-anchor="middle" x="350.09" y="-184.2" font-family="Times,serif" font-size="14.00">with bootstrap target</text>
</g>
<!-- sarsa -->
<g id="node4" class="node">
<title>sarsa</title>
<path fill="none" stroke="black" d="M215.5,-48.5C215.5,-48.5 12,-48.5 12,-48.5 6,-48.5 0,-42.5 0,-36.5 0,-36.5 0,-12 0,-12 0,-6 6,0 12,0 12,0 215.5,0 215.5,0 221.5,0 227.5,-6 227.5,-12 227.5,-12 227.5,-36.5 227.5,-36.5 227.5,-42.5 221.5,-48.5 215.5,-48.5"/>
<text xml:space="preserve" text-anchor="middle" x="113.75" y="-34.05" font-family="Times,serif" font-size="11.00">SARSA</text>
<text xml:space="preserve" text-anchor="middle" x="113.75" y="-20.55" font-family="Times,serif" font-size="11.00">on&#45;policy control</text>
<text xml:space="preserve" text-anchor="middle" x="113.75" y="-7.05" font-family="Times,serif" font-size="11.00">samples next action from behavior/target policy</text>
</g>
<!-- td&#45;&gt;sarsa -->
<g id="edge3" class="edge">
<title>td&#45;&gt;sarsa</title>
<path fill="none" stroke="black" d="M185.09,-100.7C172.19,-87.05 156.95,-70.93 143.88,-57.11"/>
<polygon fill="black" stroke="black" points="146.51,-54.8 137.09,-49.94 141.42,-59.61 146.51,-54.8"/>
<text xml:space="preserve" text-anchor="middle" x="225.25" y="-69.7" font-family="Times,serif" font-size="14.00">control by learning Q</text>
</g>
<!-- ql -->
<g id="node5" class="node">
<title>ql</title>
<path fill="none" stroke="black" d="M369.75,-48.5C369.75,-48.5 257.75,-48.5 257.75,-48.5 251.75,-48.5 245.75,-42.5 245.75,-36.5 245.75,-36.5 245.75,-12 245.75,-12 245.75,-6 251.75,0 257.75,0 257.75,0 369.75,0 369.75,0 375.75,0 381.75,-6 381.75,-12 381.75,-12 381.75,-36.5 381.75,-36.5 381.75,-42.5 375.75,-48.5 369.75,-48.5"/>
<text xml:space="preserve" text-anchor="middle" x="313.75" y="-34.05" font-family="Times,serif" font-size="11.00">Q&#45;learning</text>
<text xml:space="preserve" text-anchor="middle" x="313.75" y="-20.55" font-family="Times,serif" font-size="11.00">off&#45;policy control target</text>
<text xml:space="preserve" text-anchor="middle" x="313.75" y="-7.05" font-family="Times,serif" font-size="11.00">uses max over next actions</text>
</g>
<!-- td&#45;&gt;ql -->
<g id="edge4" class="edge">
<title>td&#45;&gt;ql</title>
<path fill="none" stroke="black" d="M268.83,-100.52C275.72,-95.25 282.27,-89.39 287.75,-83 293.62,-76.15 298.4,-67.76 302.19,-59.52"/>
<polygon fill="black" stroke="black" points="305.41,-60.89 306.01,-50.32 298.94,-58.21 305.41,-60.89"/>
<text xml:space="preserve" text-anchor="middle" x="356.83" y="-69.7" font-family="Times,serif" font-size="14.00">control by learning Q</text>
</g>
</g>
</svg>
