<?xml version="1.0" encoding="UTF-8" standalone="no"?>
<!DOCTYPE svg PUBLIC "-//W3C//DTD SVG 1.1//EN"
 "http://www.w3.org/Graphics/SVG/1.1/DTD/svg11.dtd">
<!-- Generated by graphviz version 14.1.3 (20260303.0454)
 -->
<!-- Title: SarsaVsQLearningBranch Pages: 1 -->
<svg width="378pt" height="133pt"
 viewBox="0.00 0.00 378.00 133.00" xmlns="http://www.w3.org/2000/svg" xmlns:xlink="http://www.w3.org/1999/xlink">
<g id="graph0" class="graph" transform="scale(1 1) rotate(0) translate(4 128.5)">
<title>SarsaVsQLearningBranch</title>
<polygon fill="white" stroke="none" points="-4,4 -4,-128.5 374.25,-128.5 374.25,4 -4,4"/>
<text xml:space="preserve" text-anchor="middle" x="185.12" y="-109.1" font-family="Times,serif" font-size="12.00">Shared sample, different continuation choice</text>
<!-- sample -->
<g id="node1" class="node">
<title>sample</title>
<path fill="none" stroke="black" d="M132.25,-66C132.25,-66 12,-66 12,-66 6,-66 0,-60 0,-54 0,-54 0,-42 0,-42 0,-36 6,-30 12,-30 12,-30 132.25,-30 132.25,-30 138.25,-30 144.25,-36 144.25,-42 144.25,-42 144.25,-54 144.25,-54 144.25,-60 138.25,-66 132.25,-66"/>
<text xml:space="preserve" text-anchor="middle" x="72.12" y="-51.05" font-family="Times,serif" font-size="11.00">Sample transition</text>
<text xml:space="preserve" text-anchor="middle" x="72.12" y="-37.55" font-family="Times,serif" font-size="11.00">(S_t, A_t, R_{t+1}, S_{t+1})</text>
</g>
<!-- sarsa -->
<g id="node2" class="node">
<title>sarsa</title>
<path fill="none" stroke="black" d="M357.88,-102.25C357.88,-102.25 192.62,-102.25 192.62,-102.25 186.62,-102.25 180.62,-96.25 180.62,-90.25 180.62,-90.25 180.62,-65.75 180.62,-65.75 180.62,-59.75 186.62,-53.75 192.62,-53.75 192.62,-53.75 357.88,-53.75 357.88,-53.75 363.88,-53.75 369.88,-59.75 369.88,-65.75 369.88,-65.75 369.88,-90.25 369.88,-90.25 369.88,-96.25 363.88,-102.25 357.88,-102.25"/>
<text xml:space="preserve" text-anchor="middle" x="275.25" y="-87.8" font-family="Times,serif" font-size="11.00">SARSA target</text>
<text xml:space="preserve" text-anchor="middle" x="275.25" y="-74.3" font-family="Times,serif" font-size="11.00">R_{t+1} + u03b3 Q(S_{t+1}, A_{t+1})</text>
<text xml:space="preserve" text-anchor="middle" x="275.25" y="-60.8" font-family="Times,serif" font-size="11.00">where A_{t+1} is sampled from policy</text>
</g>
<!-- sample&#45;&gt;sarsa -->
<g id="edge1" class="edge">
<title>sample&#45;&gt;sarsa</title>
<path fill="none" stroke="black" d="M144.6,-58.66C152.52,-59.84 160.7,-61.06 168.92,-62.29"/>
<polygon fill="black" stroke="black" points="168.24,-65.73 178.65,-63.74 169.27,-58.8 168.24,-65.73"/>
</g>
<!-- ql -->
<g id="node3" class="node">
<title>ql</title>
<path fill="none" stroke="black" d="M358.25,-36C358.25,-36 192.25,-36 192.25,-36 186.25,-36 180.25,-30 180.25,-24 180.25,-24 180.25,-12 180.25,-12 180.25,-6 186.25,0 192.25,0 192.25,0 358.25,0 358.25,0 364.25,0 370.25,-6 370.25,-12 370.25,-12 370.25,-24 370.25,-24 370.25,-30 364.25,-36 358.25,-36"/>
<text xml:space="preserve" text-anchor="middle" x="275.25" y="-21.05" font-family="Times,serif" font-size="11.00">Q&#45;learning target</text>
<text xml:space="preserve" text-anchor="middle" x="275.25" y="-7.55" font-family="Times,serif" font-size="11.00">R_{t+1} + u03b3 max_a Q(S_{t+1}, a)</text>
</g>
<!-- sample&#45;&gt;ql -->
<g id="edge2" class="edge">
<title>sample&#45;&gt;ql</title>
<path fill="none" stroke="black" d="M144.6,-37.34C152.35,-36.18 160.35,-34.99 168.4,-33.79"/>
<polygon fill="black" stroke="black" points="168.92,-37.25 178.29,-32.31 167.89,-30.33 168.92,-37.25"/>
</g>
</g>
</svg>
