<?xml version="1.0" encoding="UTF-8" standalone="no"?>
<!DOCTYPE svg PUBLIC "-//W3C//DTD SVG 1.1//EN"
 "http://www.w3.org/Graphics/SVG/1.1/DTD/svg11.dtd">
<!-- Generated by graphviz version 14.1.3 (20260303.0454)
 -->
<!-- Title: InteractionLoop Pages: 1 -->
<svg width="975pt" height="79pt"
 viewBox="0.00 0.00 975.00 79.00" xmlns="http://www.w3.org/2000/svg" xmlns:xlink="http://www.w3.org/1999/xlink">
<g id="graph0" class="graph" transform="scale(1 1) rotate(0) translate(4 74.75)">
<title>InteractionLoop</title>
<polygon fill="white" stroke="none" points="-4,4 -4,-74.75 970.75,-74.75 970.75,4 -4,4"/>
<text xml:space="preserve" text-anchor="middle" x="483.38" y="-55.35" font-family="Times,serif" font-size="12.00">Agent&#45;environment interaction at time t</text>
<!-- obs -->
<g id="node1" class="node">
<title>obs</title>
<path fill="none" stroke="black" d="M109,-42.25C109,-42.25 12,-42.25 12,-42.25 6,-42.25 0,-36.25 0,-30.25 0,-30.25 0,-18.25 0,-18.25 0,-12.25 6,-6.25 12,-6.25 12,-6.25 109,-6.25 109,-6.25 115,-6.25 121,-12.25 121,-18.25 121,-18.25 121,-30.25 121,-30.25 121,-36.25 115,-42.25 109,-42.25"/>
<text xml:space="preserve" text-anchor="middle" x="60.5" y="-27.3" font-family="Times,serif" font-size="11.00">Environment reveals</text>
<text xml:space="preserve" text-anchor="middle" x="60.5" y="-13.8" font-family="Times,serif" font-size="11.00">current observation O_t</text>
</g>
<!-- hist -->
<g id="node2" class="node">
<title>hist</title>
<path fill="none" stroke="black" d="M281.75,-42.25C281.75,-42.25 169,-42.25 169,-42.25 163,-42.25 157,-36.25 157,-30.25 157,-30.25 157,-18.25 157,-18.25 157,-12.25 163,-6.25 169,-6.25 169,-6.25 281.75,-6.25 281.75,-6.25 287.75,-6.25 293.75,-12.25 293.75,-18.25 293.75,-18.25 293.75,-30.25 293.75,-30.25 293.75,-36.25 287.75,-42.25 281.75,-42.25"/>
<text xml:space="preserve" text-anchor="middle" x="225.38" y="-27.3" font-family="Times,serif" font-size="11.00">Agent information at time t</text>
<text xml:space="preserve" text-anchor="middle" x="225.38" y="-13.8" font-family="Times,serif" font-size="11.00">forms/updates history H_t</text>
</g>
<!-- obs&#45;&gt;hist -->
<g id="edge1" class="edge">
<title>obs&#45;&gt;hist</title>
<path fill="none" stroke="black" d="M121.22,-24.25C129.06,-24.25 137.19,-24.25 145.28,-24.25"/>
<polygon fill="black" stroke="black" points="145.16,-27.75 155.16,-24.25 145.16,-20.75 145.16,-27.75"/>
</g>
<!-- pol -->
<g id="node3" class="node">
<title>pol</title>
<path fill="none" stroke="black" d="M429,-42.25C429,-42.25 341.75,-42.25 341.75,-42.25 335.75,-42.25 329.75,-36.25 329.75,-30.25 329.75,-30.25 329.75,-18.25 329.75,-18.25 329.75,-12.25 335.75,-6.25 341.75,-6.25 341.75,-6.25 429,-6.25 429,-6.25 435,-6.25 441,-12.25 441,-18.25 441,-18.25 441,-30.25 441,-30.25 441,-36.25 435,-42.25 429,-42.25"/>
<text xml:space="preserve" text-anchor="middle" x="385.38" y="-27.3" font-family="Times,serif" font-size="11.00">Policy u03c0 chooses</text>
<text xml:space="preserve" text-anchor="middle" x="385.38" y="-13.8" font-family="Times,serif" font-size="11.00">action A_t</text>
</g>
<!-- hist&#45;&gt;pol -->
<g id="edge2" class="edge">
<title>hist&#45;&gt;pol</title>
<path fill="none" stroke="black" d="M293.84,-24.25C301.93,-24.25 310.2,-24.25 318.27,-24.25"/>
<polygon fill="black" stroke="black" points="318.01,-27.75 328.01,-24.25 318.01,-20.75 318.01,-27.75"/>
</g>
<!-- env -->
<g id="node4" class="node">
<title>env</title>
<path fill="none" stroke="black" d="M595.75,-42.25C595.75,-42.25 489,-42.25 489,-42.25 483,-42.25 477,-36.25 477,-30.25 477,-30.25 477,-18.25 477,-18.25 477,-12.25 483,-6.25 489,-6.25 489,-6.25 595.75,-6.25 595.75,-6.25 601.75,-6.25 607.75,-12.25 607.75,-18.25 607.75,-18.25 607.75,-30.25 607.75,-30.25 607.75,-36.25 601.75,-42.25 595.75,-42.25"/>
<text xml:space="preserve" text-anchor="middle" x="542.38" y="-20.55" font-family="Times,serif" font-size="11.00">Environment receives A_t</text>
</g>
<!-- pol&#45;&gt;env -->
<g id="edge3" class="edge">
<title>pol&#45;&gt;env</title>
<path fill="none" stroke="black" d="M441.46,-24.25C449.21,-24.25 457.28,-24.25 465.33,-24.25"/>
<polygon fill="black" stroke="black" points="465.16,-27.75 475.16,-24.25 465.16,-20.75 465.16,-27.75"/>
</g>
<!-- out -->
<g id="node5" class="node">
<title>out</title>
<path fill="none" stroke="black" d="M780.5,-48.5C780.5,-48.5 655.75,-48.5 655.75,-48.5 649.75,-48.5 643.75,-42.5 643.75,-36.5 643.75,-36.5 643.75,-12 643.75,-12 643.75,-6 649.75,0 655.75,0 655.75,0 780.5,0 780.5,0 786.5,0 792.5,-6 792.5,-12 792.5,-12 792.5,-36.5 792.5,-36.5 792.5,-42.5 786.5,-48.5 780.5,-48.5"/>
<text xml:space="preserve" text-anchor="middle" x="718.12" y="-34.05" font-family="Times,serif" font-size="11.00">Environment emits</text>
<text xml:space="preserve" text-anchor="middle" x="718.12" y="-20.55" font-family="Times,serif" font-size="11.00">reward R_{t+1}</text>
<text xml:space="preserve" text-anchor="middle" x="718.12" y="-7.05" font-family="Times,serif" font-size="11.00">and next observation O_{t+1}</text>
</g>
<!-- env&#45;&gt;out -->
<g id="edge4" class="edge">
<title>env&#45;&gt;out</title>
<path fill="none" stroke="black" d="M608.07,-24.25C615.88,-24.25 623.94,-24.25 631.98,-24.25"/>
<polygon fill="black" stroke="black" points="631.79,-27.75 641.79,-24.25 631.79,-20.75 631.79,-27.75"/>
</g>
<!-- nexth -->
<g id="node6" class="node">
<title>nexth</title>
<path fill="none" stroke="black" d="M954.75,-42.25C954.75,-42.25 840.5,-42.25 840.5,-42.25 834.5,-42.25 828.5,-36.25 828.5,-30.25 828.5,-30.25 828.5,-18.25 828.5,-18.25 828.5,-12.25 834.5,-6.25 840.5,-6.25 840.5,-6.25 954.75,-6.25 954.75,-6.25 960.75,-6.25 966.75,-12.25 966.75,-18.25 966.75,-18.25 966.75,-30.25 966.75,-30.25 966.75,-36.25 960.75,-42.25 954.75,-42.25"/>
<text xml:space="preserve" text-anchor="middle" x="897.62" y="-20.55" font-family="Times,serif" font-size="11.00">History extends to H_{t+1}</text>
</g>
<!-- out&#45;&gt;nexth -->
<g id="edge5" class="edge">
<title>out&#45;&gt;nexth</title>
<path fill="none" stroke="black" d="M792.86,-24.25C800.82,-24.25 808.95,-24.25 816.98,-24.25"/>
<polygon fill="black" stroke="black" points="816.72,-27.75 826.72,-24.25 816.72,-20.75 816.72,-27.75"/>
</g>
</g>
</svg>
