<?xml version="1.0" encoding="UTF-8" standalone="no"?>
<!DOCTYPE svg PUBLIC "-//W3C//DTD SVG 1.1//EN"
 "http://www.w3.org/Graphics/SVG/1.1/DTD/svg11.dtd">
<!-- Generated by graphviz version 14.1.3 (20260303.0454)
 -->
<!-- Title: ObservationHistoryState Pages: 1 -->
<svg width="288pt" height="329pt"
 viewBox="0.00 0.00 288.00 329.00" xmlns="http://www.w3.org/2000/svg" xmlns:xlink="http://www.w3.org/1999/xlink">
<g id="graph0" class="graph" transform="scale(1 1) rotate(0) translate(4 324.75)">
<title>ObservationHistoryState</title>
<polygon fill="white" stroke="none" points="-4,4 -4,-324.75 283.62,-324.75 283.62,4 -4,4"/>
<text xml:space="preserve" text-anchor="middle" x="139.81" y="-305.35" font-family="Times,serif" font-size="12.00">Observation, history, and state are different objects</text>
<!-- obs -->
<g id="node1" class="node">
<title>obs</title>
<path fill="none" stroke="black" d="M225.75,-298.5C225.75,-298.5 110,-298.5 110,-298.5 104,-298.5 98,-292.5 98,-286.5 98,-286.5 98,-274.5 98,-274.5 98,-268.5 104,-262.5 110,-262.5 110,-262.5 225.75,-262.5 225.75,-262.5 231.75,-262.5 237.75,-268.5 237.75,-274.5 237.75,-274.5 237.75,-286.5 237.75,-286.5 237.75,-292.5 231.75,-298.5 225.75,-298.5"/>
<text xml:space="preserve" text-anchor="middle" x="167.88" y="-283.55" font-family="Times,serif" font-size="11.00">Observation O_t</text>
<text xml:space="preserve" text-anchor="middle" x="167.88" y="-270.05" font-family="Times,serif" font-size="11.00">current revealed signal only</text>
</g>
<!-- hist -->
<g id="node2" class="node">
<title>hist</title>
<path fill="none" stroke="black" d="M244.88,-210C244.88,-210 90.87,-210 90.87,-210 84.88,-210 78.88,-204 78.88,-198 78.88,-198 78.88,-186 78.88,-186 78.88,-180 84.88,-174 90.88,-174 90.88,-174 244.88,-174 244.88,-174 250.88,-174 256.88,-180 256.88,-186 256.88,-186 256.88,-198 256.88,-198 256.88,-204 250.88,-210 244.88,-210"/>
<text xml:space="preserve" text-anchor="middle" x="167.88" y="-195.05" font-family="Times,serif" font-size="11.00">History H_t</text>
<text xml:space="preserve" text-anchor="middle" x="167.88" y="-181.55" font-family="Times,serif" font-size="11.00">all information available up to time t</text>
</g>
<!-- obs&#45;&gt;hist -->
<g id="edge1" class="edge">
<title>obs&#45;&gt;hist</title>
<path fill="none" stroke="black" d="M167.88,-262.41C167.88,-250.76 167.88,-235.05 167.88,-221.52"/>
<polygon fill="black" stroke="black" points="171.38,-221.86 167.88,-211.86 164.38,-221.86 171.38,-221.86"/>
<text xml:space="preserve" text-anchor="middle" x="223.75" y="-231.2" font-family="Times,serif" font-size="14.00">is one component of</text>
</g>
<!-- state -->
<g id="node3" class="node">
<title>state</title>
<path fill="none" stroke="black" d="M193.75,-121.5C193.75,-121.5 12,-121.5 12,-121.5 6,-121.5 0,-115.5 0,-109.5 0,-109.5 0,-97.5 0,-97.5 0,-91.5 6,-85.5 12,-85.5 12,-85.5 193.75,-85.5 193.75,-85.5 199.75,-85.5 205.75,-91.5 205.75,-97.5 205.75,-97.5 205.75,-109.5 205.75,-109.5 205.75,-115.5 199.75,-121.5 193.75,-121.5"/>
<text xml:space="preserve" text-anchor="middle" x="102.88" y="-106.55" font-family="Times,serif" font-size="11.00">State summary S_t = f(H_t)</text>
<text xml:space="preserve" text-anchor="middle" x="102.88" y="-93.05" font-family="Times,serif" font-size="11.00">whatever summary the agent conditions on</text>
</g>
<!-- hist&#45;&gt;state -->
<g id="edge2" class="edge">
<title>hist&#45;&gt;state</title>
<path fill="none" stroke="black" d="M113.65,-173.58C106.4,-168.99 99.91,-163.22 95.38,-156 91.11,-149.21 90.71,-140.95 91.99,-133.04"/>
<polygon fill="black" stroke="black" points="95.37,-133.96 94.46,-123.4 88.59,-132.22 95.37,-133.96"/>
<text xml:space="preserve" text-anchor="middle" x="162.12" y="-142.7" font-family="Times,serif" font-size="14.00">may be compressed into</text>
</g>
<!-- policy -->
<g id="node4" class="node">
<title>policy</title>
<path fill="none" stroke="black" d="M236,-48.5C236,-48.5 109.75,-48.5 109.75,-48.5 103.75,-48.5 97.75,-42.5 97.75,-36.5 97.75,-36.5 97.75,-12 97.75,-12 97.75,-6 103.75,0 109.75,0 109.75,0 236,0 236,0 242,0 248,-6 248,-12 248,-12 248,-36.5 248,-36.5 248,-42.5 242,-48.5 236,-48.5"/>
<text xml:space="preserve" text-anchor="middle" x="172.88" y="-34.05" font-family="Times,serif" font-size="11.00">Policy input</text>
<text xml:space="preserve" text-anchor="middle" x="172.88" y="-20.55" font-family="Times,serif" font-size="11.00">may use H_t or S_t</text>
<text xml:space="preserve" text-anchor="middle" x="172.88" y="-7.05" font-family="Times,serif" font-size="11.00">depending on modeling choice</text>
</g>
<!-- hist&#45;&gt;policy -->
<g id="edge3" class="edge">
<title>hist&#45;&gt;policy</title>
<path fill="none" stroke="black" d="M211.82,-173.51C218.64,-168.85 224.78,-163.08 228.88,-156 247.44,-123.94 225.01,-84.55 203.26,-57.43"/>
<polygon fill="black" stroke="black" points="206.05,-55.31 196.94,-49.89 200.68,-59.8 206.05,-55.31"/>
</g>
<!-- state&#45;&gt;policy -->
<g id="edge4" class="edge">
<title>state&#45;&gt;policy</title>
<path fill="none" stroke="black" d="M118.41,-85.36C125.95,-77.04 135.25,-66.77 144.03,-57.08"/>
<polygon fill="black" stroke="black" points="146.41,-59.67 150.53,-49.91 141.22,-54.97 146.41,-59.67"/>
</g>
</g>
</svg>
