<?xml version="1.0" encoding="UTF-8" standalone="no"?>
<!DOCTYPE svg PUBLIC "-//W3C//DTD SVG 1.1//EN"
 "http://www.w3.org/Graphics/SVG/1.1/DTD/svg11.dtd">
<!-- Generated by graphviz version 14.1.3 (20260303.0454)
 -->
<!-- Title: DiscountedReturnTimeline Pages: 1 -->
<svg width="947pt" height="127pt"
 viewBox="0.00 0.00 947.00 127.00" xmlns="http://www.w3.org/2000/svg" xmlns:xlink="http://www.w3.org/1999/xlink">
<g id="graph0" class="graph" transform="scale(1 1) rotate(0) translate(4 123.25)">
<title>DiscountedReturnTimeline</title>
<polygon fill="white" stroke="none" points="-4,4 -4,-123.25 943,-123.25 943,4 -4,4"/>
<text xml:space="preserve" text-anchor="middle" x="469.5" y="-103.85" font-family="Times,serif" font-size="12.00">Why the return starts at R_{t+1}</text>
<!-- st -->
<g id="node1" class="node">
<title>st</title>
<path fill="none" stroke="black" d="M117.25,-36C117.25,-36 12,-36 12,-36 6,-36 0,-30 0,-24 0,-24 0,-12 0,-12 0,-6 6,0 12,0 12,0 117.25,0 117.25,0 123.25,0 129.25,-6 129.25,-12 129.25,-12 129.25,-24 129.25,-24 129.25,-30 123.25,-36 117.25,-36"/>
<text xml:space="preserve" text-anchor="middle" x="64.62" y="-21.05" font-family="Times,serif" font-size="11.00">Time t</text>
<text xml:space="preserve" text-anchor="middle" x="64.62" y="-7.55" font-family="Times,serif" font-size="11.00">current conditioning point</text>
</g>
<!-- at -->
<g id="node2" class="node">
<title>at</title>
<path fill="none" stroke="black" d="M239.75,-36C239.75,-36 177.25,-36 177.25,-36 171.25,-36 165.25,-30 165.25,-24 165.25,-24 165.25,-12 165.25,-12 165.25,-6 171.25,0 177.25,0 177.25,0 239.75,0 239.75,0 245.75,0 251.75,-6 251.75,-12 251.75,-12 251.75,-24 251.75,-24 251.75,-30 245.75,-36 239.75,-36"/>
<text xml:space="preserve" text-anchor="middle" x="208.5" y="-21.05" font-family="Times,serif" font-size="11.00">Action A_t</text>
<text xml:space="preserve" text-anchor="middle" x="208.5" y="-7.55" font-family="Times,serif" font-size="11.00">chosen at time t</text>
</g>
<!-- st&#45;&gt;at -->
<g id="edge1" class="edge">
<title>st&#45;&gt;at</title>
<path fill="none" stroke="black" d="M129.51,-18C137.61,-18 145.84,-18 153.76,-18"/>
<polygon fill="black" stroke="black" points="153.59,-21.5 163.59,-18 153.59,-14.5 153.59,-21.5"/>
</g>
<!-- r1 -->
<g id="node3" class="node">
<title>r1</title>
<path fill="none" stroke="black" d="M409.5,-36C409.5,-36 299.75,-36 299.75,-36 293.75,-36 287.75,-30 287.75,-24 287.75,-24 287.75,-12 287.75,-12 287.75,-6 293.75,0 299.75,0 299.75,0 409.5,0 409.5,0 415.5,0 421.5,-6 421.5,-12 421.5,-12 421.5,-24 421.5,-24 421.5,-30 415.5,-36 409.5,-36"/>
<text xml:space="preserve" text-anchor="middle" x="354.62" y="-21.05" font-family="Times,serif" font-size="11.00">R_{t+1}</text>
<text xml:space="preserve" text-anchor="middle" x="354.62" y="-7.55" font-family="Times,serif" font-size="11.00">first reward caused by A_t</text>
</g>
<!-- at&#45;&gt;r1 -->
<g id="edge2" class="edge">
<title>at&#45;&gt;r1</title>
<path fill="none" stroke="black" d="M251.96,-18C259.61,-18 267.8,-18 276.09,-18"/>
<polygon fill="black" stroke="black" points="275.89,-21.5 285.89,-18 275.89,-14.5 275.89,-21.5"/>
</g>
<!-- r2 -->
<g id="node4" class="node">
<title>r2</title>
<path fill="none" stroke="black" d="M514.75,-59C514.75,-59 469.5,-59 469.5,-59 463.5,-59 457.5,-53 457.5,-47 457.5,-47 457.5,-35 457.5,-35 457.5,-29 463.5,-23 469.5,-23 469.5,-23 514.75,-23 514.75,-23 520.75,-23 526.75,-29 526.75,-35 526.75,-35 526.75,-47 526.75,-47 526.75,-53 520.75,-59 514.75,-59"/>
<text xml:space="preserve" text-anchor="middle" x="492.12" y="-44.05" font-family="Times,serif" font-size="11.00">R_{t+2}</text>
<text xml:space="preserve" text-anchor="middle" x="492.12" y="-30.55" font-family="Times,serif" font-size="11.00">next reward</text>
</g>
<!-- r1&#45;&gt;r2 -->
<g id="edge3" class="edge">
<title>r1&#45;&gt;r2</title>
<path fill="none" stroke="black" d="M421.79,-29.23C429.91,-30.61 438.06,-31.99 445.77,-33.3"/>
<polygon fill="black" stroke="black" points="445.14,-36.74 455.59,-34.97 446.31,-29.84 445.14,-36.74"/>
</g>
<!-- gt -->
<g id="node6" class="node">
<title>gt</title>
<path fill="none" stroke="black" d="M927,-51C927,-51 680,-51 680,-51 674,-51 668,-45 668,-39 668,-39 668,-27 668,-27 668,-21 674,-15 680,-15 680,-15 927,-15 927,-15 933,-15 939,-21 939,-27 939,-27 939,-39 939,-39 939,-45 933,-51 927,-51"/>
<text xml:space="preserve" text-anchor="middle" x="803.5" y="-29.3" font-family="Times,serif" font-size="11.00">G_t = R_{t+1} + u03b3 R_{t+2} + u03b3^2 R_{t+3} + ...</text>
</g>
<!-- r1&#45;&gt;gt -->
<g id="edge5" class="edge">
<title>r1&#45;&gt;gt</title>
<path fill="none" stroke="black" d="M421.92,-15.02C433.77,-14.59 446,-14.23 457.5,-14 488.27,-13.4 495.99,-12.94 526.75,-14 568.81,-15.45 614.42,-18.13 656.21,-21.04"/>
<polygon fill="black" stroke="black" points="655.87,-24.52 666.09,-21.74 656.36,-17.54 655.87,-24.52"/>
</g>
<!-- r3 -->
<g id="node5" class="node">
<title>r3</title>
<path fill="none" stroke="black" d="M620,-97C620,-97 574.75,-97 574.75,-97 568.75,-97 562.75,-91 562.75,-85 562.75,-85 562.75,-73 562.75,-73 562.75,-67 568.75,-61 574.75,-61 574.75,-61 620,-61 620,-61 626,-61 632,-67 632,-73 632,-73 632,-85 632,-85 632,-91 626,-97 620,-97"/>
<text xml:space="preserve" text-anchor="middle" x="597.38" y="-82.05" font-family="Times,serif" font-size="11.00">R_{t+3}</text>
<text xml:space="preserve" text-anchor="middle" x="597.38" y="-68.55" font-family="Times,serif" font-size="11.00">next reward</text>
</g>
<!-- r2&#45;&gt;r3 -->
<g id="edge4" class="edge">
<title>r2&#45;&gt;r3</title>
<path fill="none" stroke="black" d="M527.22,-53.55C535.06,-56.43 543.51,-59.55 551.73,-62.57"/>
<polygon fill="black" stroke="black" points="550.3,-65.77 560.9,-65.94 552.72,-59.2 550.3,-65.77"/>
</g>
<!-- r2&#45;&gt;gt -->
<g id="edge6" class="edge">
<title>r2&#45;&gt;gt</title>
<path fill="none" stroke="black" d="M527.12,-40.12C558.72,-39.3 608.04,-38.03 656.27,-36.78"/>
<polygon fill="black" stroke="black" points="656.09,-40.29 666,-36.53 655.91,-33.29 656.09,-40.29"/>
</g>
<!-- r3&#45;&gt;gt -->
<g id="edge7" class="edge">
<title>r3&#45;&gt;gt</title>
<path fill="none" stroke="black" d="M632.08,-71.4C653.38,-66.61 682.01,-60.15 709.73,-53.91"/>
<polygon fill="black" stroke="black" points="710.24,-57.38 719.22,-51.77 708.7,-50.55 710.24,-57.38"/>
</g>
</g>
</svg>
