<?xml version="1.0" encoding="UTF-8" standalone="no"?>
<!DOCTYPE svg PUBLIC "-//W3C//DTD SVG 1.1//EN"
 "http://www.w3.org/Graphics/SVG/1.1/DTD/svg11.dtd">
<!-- Generated by graphviz version 14.1.3 (20260303.0454)
 -->
<!-- Title: MathDependencies Pages: 1 -->
<svg width="780pt" height="120pt"
 viewBox="0.00 0.00 780.00 120.00" xmlns="http://www.w3.org/2000/svg" xmlns:xlink="http://www.w3.org/1999/xlink">
<g id="graph0" class="graph" transform="scale(1 1) rotate(0) translate(4 116.25)">
<title>MathDependencies</title>
<polygon fill="white" stroke="none" points="-4,4 -4,-116.25 775.75,-116.25 775.75,4 -4,4"/>
<text xml:space="preserve" text-anchor="middle" x="385.88" y="-96.85" font-family="Times,serif" font-size="12.00">What the preliminaries unlock later</text>
<!-- exp -->
<g id="node1" class="node">
<title>exp</title>
<path fill="none" stroke="black" d="M56.5,-63C56.5,-63 12,-63 12,-63 6,-63 0,-57 0,-51 0,-51 0,-39 0,-39 0,-33 6,-27 12,-27 12,-27 56.5,-27 56.5,-27 62.5,-27 68.5,-33 68.5,-39 68.5,-39 68.5,-51 68.5,-51 68.5,-57 62.5,-63 56.5,-63"/>
<text xml:space="preserve" text-anchor="middle" x="34.25" y="-41.3" font-family="Times,serif" font-size="11.00">Expectation</text>
</g>
<!-- cexp -->
<g id="node2" class="node">
<title>cexp</title>
<path fill="none" stroke="black" d="M354.88,-90C354.88,-90 257.88,-90 257.88,-90 251.88,-90 245.88,-84 245.88,-78 245.88,-78 245.88,-66 245.88,-66 245.88,-60 251.88,-54 257.88,-54 257.88,-54 354.88,-54 354.88,-54 360.88,-54 366.88,-60 366.88,-66 366.88,-66 366.88,-78 366.88,-78 366.88,-84 360.88,-90 354.88,-90"/>
<text xml:space="preserve" text-anchor="middle" x="306.38" y="-68.3" font-family="Times,serif" font-size="11.00">Conditional expectation</text>
</g>
<!-- exp&#45;&gt;cexp -->
<g id="edge1" class="edge">
<title>exp&#45;&gt;cexp</title>
<path fill="none" stroke="black" d="M68.92,-48.36C110.02,-52.47 180.67,-59.54 234.06,-64.87"/>
<polygon fill="black" stroke="black" points="233.72,-68.35 244.01,-65.87 234.41,-61.39 233.72,-68.35"/>
</g>
<!-- traj -->
<g id="node5" class="node">
<title>traj</title>
<path fill="none" stroke="black" d="M355.25,-36C355.25,-36 257.5,-36 257.5,-36 251.5,-36 245.5,-30 245.5,-24 245.5,-24 245.5,-12 245.5,-12 245.5,-6 251.5,0 257.5,0 257.5,0 355.25,0 355.25,0 361.25,0 367.25,-6 367.25,-12 367.25,-12 367.25,-24 367.25,-24 367.25,-30 361.25,-36 355.25,-36"/>
<text xml:space="preserve" text-anchor="middle" x="306.38" y="-14.3" font-family="Times,serif" font-size="11.00">Trajectory factorization</text>
</g>
<!-- exp&#45;&gt;traj -->
<g id="edge6" class="edge">
<title>exp&#45;&gt;traj</title>
<path fill="none" stroke="black" stroke-dasharray="5,2" d="M68.88,-33.57C74.7,-31.96 80.73,-30.51 86.5,-29.5 135.08,-21.01 190.58,-18.16 233.53,-17.43"/>
<polygon fill="black" stroke="black" points="233.55,-20.93 243.5,-17.3 233.46,-13.93 233.55,-20.93"/>
<text xml:space="preserve" text-anchor="middle" x="157" y="-32.7" font-family="Times,serif" font-size="14.00">probabilistic bookkeeping</text>
</g>
<!-- total -->
<g id="node3" class="node">
<title>total</title>
<path fill="none" stroke="black" d="M517,-90C517,-90 416.25,-90 416.25,-90 410.25,-90 404.25,-84 404.25,-78 404.25,-78 404.25,-66 404.25,-66 404.25,-60 410.25,-54 416.25,-54 416.25,-54 517,-54 517,-54 523,-54 529,-60 529,-66 529,-66 529,-78 529,-78 529,-84 523,-90 517,-90"/>
<text xml:space="preserve" text-anchor="middle" x="466.62" y="-68.3" font-family="Times,serif" font-size="11.00">Law of total expectation</text>
</g>
<!-- cexp&#45;&gt;total -->
<g id="edge2" class="edge">
<title>cexp&#45;&gt;total</title>
<path fill="none" stroke="black" d="M367.2,-72C375.45,-72 383.99,-72 392.44,-72"/>
<polygon fill="black" stroke="black" points="392.36,-75.5 402.36,-72 392.36,-68.5 392.36,-75.5"/>
</g>
<!-- bellman -->
<g id="node4" class="node">
<title>bellman</title>
<path fill="none" stroke="black" d="M709.5,-90C709.5,-90 628.25,-90 628.25,-90 622.25,-90 616.25,-84 616.25,-78 616.25,-78 616.25,-66 616.25,-66 616.25,-60 622.25,-54 628.25,-54 628.25,-54 709.5,-54 709.5,-54 715.5,-54 721.5,-60 721.5,-66 721.5,-66 721.5,-78 721.5,-78 721.5,-84 715.5,-90 709.5,-90"/>
<text xml:space="preserve" text-anchor="middle" x="668.88" y="-68.3" font-family="Times,serif" font-size="11.00">Bellman derivations</text>
</g>
<!-- total&#45;&gt;bellman -->
<g id="edge3" class="edge">
<title>total&#45;&gt;bellman</title>
<path fill="none" stroke="black" d="M529.34,-72C553.14,-72 580.35,-72 604.33,-72"/>
<polygon fill="black" stroke="black" points="604.29,-75.5 614.29,-72 604.29,-68.5 604.29,-75.5"/>
</g>
<!-- logd -->
<g id="node6" class="node">
<title>logd</title>
<path fill="none" stroke="black" d="M513.25,-36C513.25,-36 420,-36 420,-36 414,-36 408,-30 408,-24 408,-24 408,-12 408,-12 408,-6 414,0 420,0 420,0 513.25,0 513.25,0 519.25,0 525.25,-6 525.25,-12 525.25,-12 525.25,-24 525.25,-24 525.25,-30 519.25,-36 513.25,-36"/>
<text xml:space="preserve" text-anchor="middle" x="466.62" y="-14.3" font-family="Times,serif" font-size="11.00">Log&#45;derivative identity</text>
</g>
<!-- traj&#45;&gt;logd -->
<g id="edge4" class="edge">
<title>traj&#45;&gt;logd</title>
<path fill="none" stroke="black" d="M367.65,-18C376.97,-18 386.65,-18 396.15,-18"/>
<polygon fill="black" stroke="black" points="396.09,-21.5 406.09,-18 396.09,-14.5 396.09,-21.5"/>
</g>
<!-- reinforce -->
<g id="node7" class="node">
<title>reinforce</title>
<path fill="none" stroke="black" d="M759.75,-36C759.75,-36 578,-36 578,-36 572,-36 566,-30 566,-24 566,-24 566,-12 566,-12 566,-6 572,0 578,0 578,0 759.75,0 759.75,0 765.75,0 771.75,-6 771.75,-12 771.75,-12 771.75,-24 771.75,-24 771.75,-30 765.75,-36 759.75,-36"/>
<text xml:space="preserve" text-anchor="middle" x="668.88" y="-14.3" font-family="Times,serif" font-size="11.00">REINFORCE / policy&#45;gradient derivations</text>
</g>
<!-- logd&#45;&gt;reinforce -->
<g id="edge5" class="edge">
<title>logd&#45;&gt;reinforce</title>
<path fill="none" stroke="black" d="M525.55,-18C534.69,-18 544.42,-18 554.32,-18"/>
<polygon fill="black" stroke="black" points="554.04,-21.5 564.04,-18 554.04,-14.5 554.04,-21.5"/>
</g>
</g>
</svg>
