<?xml version="1.0" encoding="UTF-8" standalone="no"?>
<!DOCTYPE svg PUBLIC "-//W3C//DTD SVG 1.1//EN"
 "http://www.w3.org/Graphics/SVG/1.1/DTD/svg11.dtd">
<!-- Generated by graphviz version 14.1.3 (20260303.0454)
 -->
<!-- Title: RewardReturnValueChain Pages: 1 -->
<svg width="788pt" height="81pt"
 viewBox="0.00 0.00 788.00 81.00" xmlns="http://www.w3.org/2000/svg" xmlns:xlink="http://www.w3.org/1999/xlink">
<g id="graph0" class="graph" transform="scale(1 1) rotate(0) translate(4 77.25)">
<title>RewardReturnValueChain</title>
<polygon fill="white" stroke="none" points="-4,4 -4,-77.25 784,-77.25 784,4 -4,4"/>
<text xml:space="preserve" text-anchor="middle" x="390" y="-57.85" font-family="Times,serif" font-size="12.00">Reward, return, and value are different quantities</text>
<!-- reward -->
<g id="node1" class="node">
<title>reward</title>
<path fill="none" stroke="black" d="M79.75,-36C79.75,-36 12,-36 12,-36 6,-36 0,-30 0,-24 0,-24 0,-12 0,-12 0,-6 6,0 12,0 12,0 79.75,0 79.75,0 85.75,0 91.75,-6 91.75,-12 91.75,-12 91.75,-24 91.75,-24 91.75,-30 85.75,-36 79.75,-36"/>
<text xml:space="preserve" text-anchor="middle" x="45.88" y="-21.05" font-family="Times,serif" font-size="11.00">Reward R_{t+1}</text>
<text xml:space="preserve" text-anchor="middle" x="45.88" y="-7.55" font-family="Times,serif" font-size="11.00">one&#45;step signal</text>
</g>
<!-- ret -->
<g id="node2" class="node">
<title>ret</title>
<path fill="none" stroke="black" d="M373.25,-36C373.25,-36 224.5,-36 224.5,-36 218.5,-36 212.5,-30 212.5,-24 212.5,-24 212.5,-12 212.5,-12 212.5,-6 218.5,0 224.5,0 224.5,0 373.25,0 373.25,0 379.25,0 385.25,-6 385.25,-12 385.25,-12 385.25,-24 385.25,-24 385.25,-30 379.25,-36 373.25,-36"/>
<text xml:space="preserve" text-anchor="middle" x="298.88" y="-21.05" font-family="Times,serif" font-size="11.00">Return G_t</text>
<text xml:space="preserve" text-anchor="middle" x="298.88" y="-7.55" font-family="Times,serif" font-size="11.00">discounted sum from time t onward</text>
</g>
<!-- reward&#45;&gt;ret -->
<g id="edge1" class="edge">
<title>reward&#45;&gt;ret</title>
<path fill="none" stroke="black" d="M92.04,-18C122.29,-18 163.28,-18 200.72,-18"/>
<polygon fill="black" stroke="black" points="200.7,-21.5 210.7,-18 200.7,-14.5 200.7,-21.5"/>
<text xml:space="preserve" text-anchor="middle" x="152.12" y="-21.2" font-family="Times,serif" font-size="14.00">one term inside</text>
</g>
<!-- value -->
<g id="node3" class="node">
<title>value</title>
<path fill="none" stroke="black" d="M768,-36C768,-36 596.75,-36 596.75,-36 590.75,-36 584.75,-30 584.75,-24 584.75,-24 584.75,-12 584.75,-12 584.75,-6 590.75,0 596.75,0 596.75,0 768,0 768,0 774,0 780,-6 780,-12 780,-12 780,-24 780,-24 780,-30 774,-36 768,-36"/>
<text xml:space="preserve" text-anchor="middle" x="682.38" y="-21.05" font-family="Times,serif" font-size="11.00">Value V^u03c0(s) or Q^u03c0(s,a)</text>
<text xml:space="preserve" text-anchor="middle" x="682.38" y="-7.55" font-family="Times,serif" font-size="11.00">expectation of return under policy u03c0</text>
</g>
<!-- ret&#45;&gt;value -->
<g id="edge2" class="edge">
<title>ret&#45;&gt;value</title>
<path fill="none" stroke="black" d="M385.49,-18C440.91,-18 513.53,-18 572.97,-18"/>
<polygon fill="black" stroke="black" points="572.77,-21.5 582.77,-18 572.77,-14.5 572.77,-21.5"/>
<text xml:space="preserve" text-anchor="middle" x="485" y="-37.7" font-family="Times,serif" font-size="14.00">take expectation</text>
<text xml:space="preserve" text-anchor="middle" x="485" y="-21.2" font-family="Times,serif" font-size="14.00">under policy and conditioning</text>
</g>
</g>
</svg>
