<?xml version="1.0" encoding="UTF-8" standalone="no"?>
<!DOCTYPE svg PUBLIC "-//W3C//DTD SVG 1.1//EN"
 "http://www.w3.org/Graphics/SVG/1.1/DTD/svg11.dtd">
<!-- Generated by graphviz version 14.1.3 (20260303.0454)
 -->
<!-- Title: BellmanDerivationFlow Pages: 1 -->
<svg width="1109pt" height="66pt"
 viewBox="0.00 0.00 1109.00 66.00" xmlns="http://www.w3.org/2000/svg" xmlns:xlink="http://www.w3.org/1999/xlink">
<g id="graph0" class="graph" transform="scale(1 1) rotate(0) translate(4 62.25)">
<title>BellmanDerivationFlow</title>
<polygon fill="white" stroke="none" points="-4,4 -4,-62.25 1105,-62.25 1105,4 -4,4"/>
<text xml:space="preserve" text-anchor="middle" x="550.5" y="-42.85" font-family="Times,serif" font-size="12.00">Bellman expectation derivation for V^pi</text>
<!-- g -->
<g id="node1" class="node">
<title>g</title>
<path fill="none" stroke="black" d="M137.5,-36C137.5,-36 12,-36 12,-36 6,-36 0,-30 0,-24 0,-24 0,-12 0,-12 0,-6 6,0 12,0 12,0 137.5,0 137.5,0 143.5,0 149.5,-6 149.5,-12 149.5,-12 149.5,-24 149.5,-24 149.5,-30 143.5,-36 137.5,-36"/>
<text xml:space="preserve" text-anchor="middle" x="74.75" y="-21.05" font-family="Times,serif" font-size="11.00">Start from definition</text>
<text xml:space="preserve" text-anchor="middle" x="74.75" y="-7.55" font-family="Times,serif" font-size="11.00">V^u03c0(s) = E[G_t | S_t = s]</text>
</g>
<!-- rec -->
<g id="node2" class="node">
<title>rec</title>
<path fill="none" stroke="black" d="M335,-36C335,-36 197.5,-36 197.5,-36 191.5,-36 185.5,-30 185.5,-24 185.5,-24 185.5,-12 185.5,-12 185.5,-6 191.5,0 197.5,0 197.5,0 335,0 335,0 341,0 347,-6 347,-12 347,-12 347,-24 347,-24 347,-30 341,-36 335,-36"/>
<text xml:space="preserve" text-anchor="middle" x="266.25" y="-21.05" font-family="Times,serif" font-size="11.00">Substitute</text>
<text xml:space="preserve" text-anchor="middle" x="266.25" y="-7.55" font-family="Times,serif" font-size="11.00">G_t = R_{t+1} + u03b3 G_{t+1}</text>
</g>
<!-- g&#45;&gt;rec -->
<g id="edge1" class="edge">
<title>g&#45;&gt;rec</title>
<path fill="none" stroke="black" d="M149.83,-18C157.73,-18 165.84,-18 173.91,-18"/>
<polygon fill="black" stroke="black" points="173.76,-21.5 183.76,-18 173.76,-14.5 173.76,-21.5"/>
</g>
<!-- act -->
<g id="node3" class="node">
<title>act</title>
<path fill="none" stroke="black" d="M507.75,-36C507.75,-36 395,-36 395,-36 389,-36 383,-30 383,-24 383,-24 383,-12 383,-12 383,-6 389,0 395,0 395,0 507.75,0 507.75,0 513.75,0 519.75,-6 519.75,-12 519.75,-12 519.75,-24 519.75,-24 519.75,-30 513.75,-36 507.75,-36"/>
<text xml:space="preserve" text-anchor="middle" x="451.38" y="-21.05" font-family="Times,serif" font-size="11.00">Condition on current action</text>
<text xml:space="preserve" text-anchor="middle" x="451.38" y="-7.55" font-family="Times,serif" font-size="11.00">A_t ~ u03c0(.|s)</text>
</g>
<!-- rec&#45;&gt;act -->
<g id="edge2" class="edge">
<title>rec&#45;&gt;act</title>
<path fill="none" stroke="black" d="M347.3,-18C355.19,-18 363.2,-18 371.08,-18"/>
<polygon fill="black" stroke="black" points="371,-21.5 381,-18 371,-14.5 371,-21.5"/>
</g>
<!-- trans -->
<g id="node4" class="node">
<title>trans</title>
<path fill="none" stroke="black" d="M678.25,-36C678.25,-36 567.75,-36 567.75,-36 561.75,-36 555.75,-30 555.75,-24 555.75,-24 555.75,-12 555.75,-12 555.75,-6 561.75,0 567.75,0 567.75,0 678.25,0 678.25,0 684.25,0 690.25,-6 690.25,-12 690.25,-12 690.25,-24 690.25,-24 690.25,-30 684.25,-36 678.25,-36"/>
<text xml:space="preserve" text-anchor="middle" x="623" y="-21.05" font-family="Times,serif" font-size="11.00">Condition on next outcome</text>
<text xml:space="preserve" text-anchor="middle" x="623" y="-7.55" font-family="Times,serif" font-size="11.00">(S_{t+1}, R_{t+1})</text>
</g>
<!-- act&#45;&gt;trans -->
<g id="edge3" class="edge">
<title>act&#45;&gt;trans</title>
<path fill="none" stroke="black" d="M519.9,-18C527.81,-18 535.94,-18 543.98,-18"/>
<polygon fill="black" stroke="black" points="543.74,-21.5 553.74,-18 543.74,-14.5 543.74,-21.5"/>
</g>
<!-- cont -->
<g id="node5" class="node">
<title>cont</title>
<path fill="none" stroke="black" d="M905,-36C905,-36 738.25,-36 738.25,-36 732.25,-36 726.25,-30 726.25,-24 726.25,-24 726.25,-12 726.25,-12 726.25,-6 732.25,0 738.25,0 738.25,0 905,0 905,0 911,0 917,-6 917,-12 917,-12 917,-24 917,-24 917,-30 911,-36 905,-36"/>
<text xml:space="preserve" text-anchor="middle" x="821.62" y="-21.05" font-family="Times,serif" font-size="11.00">Recognize continuation term</text>
<text xml:space="preserve" text-anchor="middle" x="821.62" y="-7.55" font-family="Times,serif" font-size="11.00">E[G_{t+1} | S_{t+1}=s&#39;] = V^u03c0(s&#39;)</text>
</g>
<!-- trans&#45;&gt;cont -->
<g id="edge4" class="edge">
<title>trans&#45;&gt;cont</title>
<path fill="none" stroke="black" d="M690.57,-18C698.29,-18 706.31,-18 714.4,-18"/>
<polygon fill="black" stroke="black" points="714.34,-21.5 724.34,-18 714.34,-14.5 714.34,-21.5"/>
</g>
<!-- bell -->
<g id="node6" class="node">
<title>bell</title>
<path fill="none" stroke="black" d="M1089,-36C1089,-36 965,-36 965,-36 959,-36 953,-30 953,-24 953,-24 953,-12 953,-12 953,-6 959,0 965,0 965,0 1089,0 1089,0 1095,0 1101,-6 1101,-12 1101,-12 1101,-24 1101,-24 1101,-30 1095,-36 1089,-36"/>
<text xml:space="preserve" text-anchor="middle" x="1027" y="-21.05" font-family="Times,serif" font-size="11.00">Bellman expectation equation</text>
<text xml:space="preserve" text-anchor="middle" x="1027" y="-7.55" font-family="Times,serif" font-size="11.00">for V^u03c0</text>
</g>
<!-- cont&#45;&gt;bell -->
<g id="edge5" class="edge">
<title>cont&#45;&gt;bell</title>
<path fill="none" stroke="black" d="M917.47,-18C925.4,-18 933.38,-18 941.23,-18"/>
<polygon fill="black" stroke="black" points="941.1,-21.5 951.1,-18 941.1,-14.5 941.1,-21.5"/>
</g>
</g>
</svg>
