<?xml version="1.0" encoding="UTF-8" standalone="no"?>
<!DOCTYPE svg PUBLIC "-//W3C//DTD SVG 1.1//EN"
 "http://www.w3.org/Graphics/SVG/1.1/DTD/svg11.dtd">
<!-- Generated by graphviz version 14.1.3 (20260303.0454)
 -->
<!-- Title: GPICycle Pages: 1 -->
<svg width="770pt" height="120pt"
 viewBox="0.00 0.00 770.00 120.00" xmlns="http://www.w3.org/2000/svg" xmlns:xlink="http://www.w3.org/1999/xlink">
<g id="graph0" class="graph" transform="scale(1 1) rotate(0) translate(4 115.5)">
<title>GPICycle</title>
<polygon fill="white" stroke="none" points="-4,4 -4,-115.5 766.25,-115.5 766.25,4 -4,4"/>
<text xml:space="preserve" text-anchor="middle" x="381.12" y="-96.1" font-family="Times,serif" font-size="12.00">Generalized policy iteration</text>
<!-- policy -->
<g id="node1" class="node">
<title>policy</title>
<path fill="none" stroke="black" d="M107.5,-36C107.5,-36 12,-36 12,-36 6,-36 0,-30 0,-24 0,-24 0,-12 0,-12 0,-6 6,0 12,0 12,0 107.5,0 107.5,0 113.5,0 119.5,-6 119.5,-12 119.5,-12 119.5,-24 119.5,-24 119.5,-30 113.5,-36 107.5,-36"/>
<text xml:space="preserve" text-anchor="middle" x="59.75" y="-14.3" font-family="Times,serif" font-size="11.00">Current policy u03c0_k</text>
</g>
<!-- eval -->
<g id="node2" class="node">
<title>eval</title>
<path fill="none" stroke="black" d="M383.25,-36C383.25,-36 168.5,-36 168.5,-36 162.5,-36 156.5,-30 156.5,-24 156.5,-24 156.5,-12 156.5,-12 156.5,-6 162.5,0 168.5,0 168.5,0 383.25,0 383.25,0 389.25,0 395.25,-6 395.25,-12 395.25,-12 395.25,-24 395.25,-24 395.25,-30 389.25,-36 383.25,-36"/>
<text xml:space="preserve" text-anchor="middle" x="275.88" y="-21.05" font-family="Times,serif" font-size="11.00">Policy evaluation</text>
<text xml:space="preserve" text-anchor="middle" x="275.88" y="-7.55" font-family="Times,serif" font-size="11.00">compute or estimate V^{u03c0_k} / Q^{u03c0_k}</text>
</g>
<!-- policy&#45;&gt;eval -->
<g id="edge1" class="edge">
<title>policy&#45;&gt;eval</title>
<path fill="none" stroke="black" d="M119.83,-18C127.75,-18 136.11,-18 144.67,-18"/>
<polygon fill="black" stroke="black" points="144.52,-21.5 154.52,-18 144.52,-14.5 144.52,-21.5"/>
</g>
<!-- improve -->
<g id="node3" class="node">
<title>improve</title>
<path fill="none" stroke="black" d="M568.25,-89.25C568.25,-89.25 444.25,-89.25 444.25,-89.25 438.25,-89.25 432.25,-83.25 432.25,-77.25 432.25,-77.25 432.25,-52.75 432.25,-52.75 432.25,-46.75 438.25,-40.75 444.25,-40.75 444.25,-40.75 568.25,-40.75 568.25,-40.75 574.25,-40.75 580.25,-46.75 580.25,-52.75 580.25,-52.75 580.25,-77.25 580.25,-77.25 580.25,-83.25 574.25,-89.25 568.25,-89.25"/>
<text xml:space="preserve" text-anchor="middle" x="506.25" y="-74.8" font-family="Times,serif" font-size="11.00">Policy improvement</text>
<text xml:space="preserve" text-anchor="middle" x="506.25" y="-61.3" font-family="Times,serif" font-size="11.00">act greedily or more greedily</text>
<text xml:space="preserve" text-anchor="middle" x="506.25" y="-47.8" font-family="Times,serif" font-size="11.00">with respect to current values</text>
</g>
<!-- eval&#45;&gt;improve -->
<g id="edge2" class="edge">
<title>eval&#45;&gt;improve</title>
<path fill="none" stroke="black" d="M366.48,-36.44C384.4,-40.13 403.17,-43.99 420.91,-47.64"/>
<polygon fill="black" stroke="black" points="420.11,-51.05 430.61,-49.64 421.52,-44.2 420.11,-51.05"/>
</g>
<!-- nextp -->
<g id="node4" class="node">
<title>nextp</title>
<path fill="none" stroke="black" d="M750.25,-36C750.25,-36 629.25,-36 629.25,-36 623.25,-36 617.25,-30 617.25,-24 617.25,-24 617.25,-12 617.25,-12 617.25,-6 623.25,0 629.25,0 629.25,0 750.25,0 750.25,0 756.25,0 762.25,-6 762.25,-12 762.25,-12 762.25,-24 762.25,-24 762.25,-30 756.25,-36 750.25,-36"/>
<text xml:space="preserve" text-anchor="middle" x="689.75" y="-14.3" font-family="Times,serif" font-size="11.00">Updated policy u03c0_{k+1}</text>
</g>
<!-- improve&#45;&gt;nextp -->
<g id="edge3" class="edge">
<title>improve&#45;&gt;nextp</title>
<path fill="none" stroke="black" d="M580.55,-46.02C589.13,-43.8 597.92,-41.52 606.61,-39.27"/>
<polygon fill="black" stroke="black" points="607.26,-42.72 616.07,-36.82 605.51,-35.94 607.26,-42.72"/>
</g>
<!-- nextp&#45;&gt;eval -->
<g id="edge4" class="edge">
<title>nextp&#45;&gt;eval</title>
<path fill="none" stroke="black" d="M616.97,-16.11C604.72,-15.86 592.12,-15.64 580.25,-15.5 514.48,-14.74 498.03,-14.97 432.25,-15.5 424,-15.57 415.5,-15.65 406.93,-15.75"/>
<polygon fill="black" stroke="black" points="407.11,-12.25 397.15,-15.87 407.19,-19.25 407.11,-12.25"/>
<text xml:space="preserve" text-anchor="middle" x="506.25" y="-18.7" font-family="Times,serif" font-size="14.00">repeat</text>
</g>
</g>
</svg>
