<?xml version="1.0" encoding="UTF-8" standalone="no"?>
<!DOCTYPE svg PUBLIC "-//W3C//DTD SVG 1.1//EN"
 "http://www.w3.org/Graphics/SVG/1.1/DTD/svg11.dtd">
<!-- Generated by graphviz version 14.1.3 (20260303.0454)
 -->
<!-- Title: DeadlyTriad Pages: 1 -->
<svg width="890pt" height="124pt"
 viewBox="0.00 0.00 890.00 124.00" xmlns="http://www.w3.org/2000/svg" xmlns:xlink="http://www.w3.org/1999/xlink">
<g id="graph0" class="graph" transform="scale(1 1) rotate(0) translate(4 120.49)">
<title>DeadlyTriad</title>
<polygon fill="white" stroke="none" points="-4,4 -4,-120.49 885.5,-120.49 885.5,4 -4,4"/>
<text xml:space="preserve" text-anchor="middle" x="440.75" y="-101.09" font-family="Times,serif" font-size="12.00">Why the deadly triad can destabilize learning</text>
<!-- fa -->
<g id="node1" class="node">
<title>fa</title>
<path fill="none" stroke="black" d="M201.25,-52.24C201.25,-52.24 12,-52.24 12,-52.24 6,-52.24 0,-46.24 0,-40.24 0,-40.24 0,-28.24 0,-28.24 0,-22.24 6,-16.24 12,-16.24 12,-16.24 201.25,-16.24 201.25,-16.24 207.25,-16.24 213.25,-22.24 213.25,-28.24 213.25,-28.24 213.25,-40.24 213.25,-40.24 213.25,-46.24 207.25,-52.24 201.25,-52.24"/>
<text xml:space="preserve" text-anchor="middle" x="106.62" y="-37.29" font-family="Times,serif" font-size="11.00">Function approximation</text>
<text xml:space="preserve" text-anchor="middle" x="106.62" y="-23.79" font-family="Times,serif" font-size="11.00">errors generalize across many states/actions</text>
</g>
<!-- boot -->
<g id="node2" class="node">
<title>boot</title>
<path fill="none" stroke="black" d="M443,-52.24C443,-52.24 261.25,-52.24 261.25,-52.24 255.25,-52.24 249.25,-46.24 249.25,-40.24 249.25,-40.24 249.25,-28.24 249.25,-28.24 249.25,-22.24 255.25,-16.24 261.25,-16.24 261.25,-16.24 443,-16.24 443,-16.24 449,-16.24 455,-22.24 455,-28.24 455,-28.24 455,-40.24 455,-40.24 455,-46.24 449,-52.24 443,-52.24"/>
<text xml:space="preserve" text-anchor="middle" x="352.12" y="-37.29" font-family="Times,serif" font-size="11.00">Bootstrapping</text>
<text xml:space="preserve" text-anchor="middle" x="352.12" y="-23.79" font-family="Times,serif" font-size="11.00">current predictions appear in future targets</text>
</g>
<!-- fa&#45;&gt;boot -->
<g id="edge4" class="edge">
<title>fa&#45;&gt;boot</title>
<path fill="none" stroke="black" stroke-dasharray="5,2" d="M213.72,-34.24C221.56,-34.24 229.48,-34.24 237.36,-34.24"/>
<polygon fill="black" stroke="black" points="237.34,-37.74 247.34,-34.24 237.34,-30.74 237.34,-37.74"/>
</g>
<!-- unstable -->
<g id="node4" class="node">
<title>unstable</title>
<path fill="none" stroke="black" d="M869.5,-48.24C869.5,-48.24 792,-48.24 792,-48.24 786,-48.24 780,-42.24 780,-36.24 780,-36.24 780,-24.24 780,-24.24 780,-18.24 786,-12.24 792,-12.24 792,-12.24 869.5,-12.24 869.5,-12.24 875.5,-12.24 881.5,-18.24 881.5,-24.24 881.5,-24.24 881.5,-36.24 881.5,-36.24 881.5,-42.24 875.5,-48.24 869.5,-48.24"/>
<text xml:space="preserve" text-anchor="middle" x="830.75" y="-33.29" font-family="Times,serif" font-size="11.00">Potential instability</text>
<text xml:space="preserve" text-anchor="middle" x="830.75" y="-19.79" font-family="Times,serif" font-size="11.00">or divergence</text>
</g>
<!-- fa&#45;&gt;unstable -->
<g id="edge1" class="edge">
<title>fa&#45;&gt;unstable</title>
<path fill="none" stroke="black" d="M190.38,-15.76C209.6,-12.22 230.06,-9.06 249.25,-7.24 437.93,10.58 662.37,-10.15 768.43,-22.44"/>
<polygon fill="black" stroke="black" points="767.7,-25.88 778.04,-23.57 768.52,-18.93 767.7,-25.88"/>
</g>
<!-- off -->
<g id="node3" class="node">
<title>off</title>
<path fill="none" stroke="black" d="M732,-94.24C732,-94.24 503,-94.24 503,-94.24 497,-94.24 491,-88.24 491,-82.24 491,-82.24 491,-70.24 491,-70.24 491,-64.24 497,-58.24 503,-58.24 503,-58.24 732,-58.24 732,-58.24 738,-58.24 744,-64.24 744,-70.24 744,-70.24 744,-82.24 744,-82.24 744,-88.24 738,-94.24 732,-94.24"/>
<text xml:space="preserve" text-anchor="middle" x="617.5" y="-79.29" font-family="Times,serif" font-size="11.00">Off&#45;policy learning</text>
<text xml:space="preserve" text-anchor="middle" x="617.5" y="-65.79" font-family="Times,serif" font-size="11.00">data distribution can differ from target&#45;implied policy</text>
</g>
<!-- boot&#45;&gt;off -->
<g id="edge5" class="edge">
<title>boot&#45;&gt;off</title>
<path fill="none" stroke="black" stroke-dasharray="5,2" d="M455.33,-50.54C466.62,-52.34 478.21,-54.19 489.75,-56.03"/>
<polygon fill="black" stroke="black" points="488.86,-59.43 499.29,-57.55 489.97,-52.52 488.86,-59.43"/>
</g>
<!-- boot&#45;&gt;unstable -->
<g id="edge2" class="edge">
<title>boot&#45;&gt;unstable</title>
<path fill="none" stroke="black" d="M455.37,-33.39C550.53,-32.59 689.22,-31.42 768.35,-30.76"/>
<polygon fill="black" stroke="black" points="768.1,-34.26 778.07,-30.68 768.04,-27.26 768.1,-34.26"/>
</g>
<!-- off&#45;&gt;fa -->
<g id="edge6" class="edge">
<title>off&#45;&gt;fa</title>
<path fill="none" stroke="black" stroke-dasharray="5,2" d="M490.79,-75.69C419.7,-74.23 329.28,-70.46 249.25,-61.24 234.78,-59.58 219.58,-57.28 204.72,-54.71"/>
<polygon fill="black" stroke="black" points="205.39,-51.28 194.93,-52.97 204.16,-58.17 205.39,-51.28"/>
</g>
<!-- off&#45;&gt;unstable -->
<g id="edge3" class="edge">
<title>off&#45;&gt;unstable</title>
<path fill="none" stroke="black" d="M703.21,-57.8C725.09,-53.03 748.23,-47.99 768.65,-43.55"/>
<polygon fill="black" stroke="black" points="769.19,-47.01 778.21,-41.47 767.7,-40.17 769.19,-47.01"/>
</g>
</g>
</svg>
