<?xml version="1.0" encoding="UTF-8" standalone="no"?>
<!DOCTYPE svg PUBLIC "-//W3C//DTD SVG 1.1//EN"
 "http://www.w3.org/Graphics/SVG/1.1/DTD/svg11.dtd">
<!-- Generated by graphviz version 14.1.3 (20260303.0454)
 -->
<!-- Title: DQNUpdatePipeline Pages: 1 -->
<svg width="897pt" height="120pt"
 viewBox="0.00 0.00 897.00 120.00" xmlns="http://www.w3.org/2000/svg" xmlns:xlink="http://www.w3.org/1999/xlink">
<g id="graph0" class="graph" transform="scale(1 1) rotate(0) translate(4 116.25)">
<title>DQNUpdatePipeline</title>
<polygon fill="white" stroke="none" points="-4,4 -4,-116.25 893.25,-116.25 893.25,4 -4,4"/>
<text xml:space="preserve" text-anchor="middle" x="444.62" y="-96.85" font-family="Times,serif" font-size="12.00">DQN update pipeline</text>
<!-- exp -->
<g id="node1" class="node">
<title>exp</title>
<path fill="none" stroke="black" d="M95.5,-63C95.5,-63 12,-63 12,-63 6,-63 0,-57 0,-51 0,-51 0,-39 0,-39 0,-33 6,-27 12,-27 12,-27 95.5,-27 95.5,-27 101.5,-27 107.5,-33 107.5,-39 107.5,-39 107.5,-51 107.5,-51 107.5,-57 101.5,-63 95.5,-63"/>
<text xml:space="preserve" text-anchor="middle" x="53.75" y="-41.3" font-family="Times,serif" font-size="11.00">Collected transitions</text>
</g>
<!-- replay -->
<g id="node2" class="node">
<title>replay</title>
<path fill="none" stroke="black" d="M209,-63C209,-63 155.5,-63 155.5,-63 149.5,-63 143.5,-57 143.5,-51 143.5,-51 143.5,-39 143.5,-39 143.5,-33 149.5,-27 155.5,-27 155.5,-27 209,-27 209,-27 215,-27 221,-33 221,-39 221,-39 221,-51 221,-51 221,-57 215,-63 209,-63"/>
<text xml:space="preserve" text-anchor="middle" x="182.25" y="-41.3" font-family="Times,serif" font-size="11.00">Replay buffer</text>
</g>
<!-- exp&#45;&gt;replay -->
<g id="edge1" class="edge">
<title>exp&#45;&gt;replay</title>
<path fill="none" stroke="black" d="M107.66,-45C115.67,-45 123.9,-45 131.83,-45"/>
<polygon fill="black" stroke="black" points="131.65,-48.5 141.65,-45 131.65,-41.5 131.65,-48.5"/>
</g>
<!-- batch -->
<g id="node3" class="node">
<title>batch</title>
<path fill="none" stroke="black" d="M400.5,-63C400.5,-63 269,-63 269,-63 263,-63 257,-57 257,-51 257,-51 257,-39 257,-39 257,-33 263,-27 269,-27 269,-27 400.5,-27 400.5,-27 406.5,-27 412.5,-33 412.5,-39 412.5,-39 412.5,-51 412.5,-51 412.5,-57 406.5,-63 400.5,-63"/>
<text xml:space="preserve" text-anchor="middle" x="334.75" y="-41.3" font-family="Times,serif" font-size="11.00">Minibatch sampled from replay</text>
</g>
<!-- replay&#45;&gt;batch -->
<g id="edge2" class="edge">
<title>replay&#45;&gt;batch</title>
<path fill="none" stroke="black" d="M221.23,-45C228.71,-45 236.85,-45 245.22,-45"/>
<polygon fill="black" stroke="black" points="245.22,-48.5 255.22,-45 245.22,-41.5 245.22,-48.5"/>
</g>
<!-- target -->
<g id="node4" class="node">
<title>target</title>
<path fill="none" stroke="black" d="M709.75,-90C709.75,-90 460.5,-90 460.5,-90 454.5,-90 448.5,-84 448.5,-78 448.5,-78 448.5,-66 448.5,-66 448.5,-60 454.5,-54 460.5,-54 460.5,-54 709.75,-54 709.75,-54 715.75,-54 721.75,-60 721.75,-66 721.75,-66 721.75,-78 721.75,-78 721.75,-84 715.75,-90 709.75,-90"/>
<text xml:space="preserve" text-anchor="middle" x="585.12" y="-75.05" font-family="Times,serif" font-size="11.00">Frozen target network</text>
<text xml:space="preserve" text-anchor="middle" x="585.12" y="-61.55" font-family="Times,serif" font-size="11.00">computes y = r + u03b3 (1&#45;terminal) max_a Q_target(s&#39;,a)</text>
</g>
<!-- batch&#45;&gt;target -->
<g id="edge3" class="edge">
<title>batch&#45;&gt;target</title>
<path fill="none" stroke="black" d="M412.98,-53.39C420.71,-54.24 428.73,-55.11 436.89,-55.99"/>
<polygon fill="black" stroke="black" points="436.26,-59.45 446.58,-57.05 437.01,-52.49 436.26,-59.45"/>
</g>
<!-- online -->
<g id="node5" class="node">
<title>online</title>
<path fill="none" stroke="black" d="M632.88,-36C632.88,-36 537.38,-36 537.38,-36 531.38,-36 525.38,-30 525.38,-24 525.38,-24 525.38,-12 525.38,-12 525.38,-6 531.38,0 537.38,0 537.38,0 632.88,0 632.88,0 638.88,0 644.88,-6 644.88,-12 644.88,-12 644.88,-24 644.88,-24 644.88,-30 638.88,-36 632.88,-36"/>
<text xml:space="preserve" text-anchor="middle" x="585.12" y="-21.05" font-family="Times,serif" font-size="11.00">Online Q network</text>
<text xml:space="preserve" text-anchor="middle" x="585.12" y="-7.55" font-family="Times,serif" font-size="11.00">produces Q_online(s,a)</text>
</g>
<!-- batch&#45;&gt;online -->
<g id="edge4" class="edge">
<title>batch&#45;&gt;online</title>
<path fill="none" stroke="black" d="M412.98,-36.61C445.19,-33.1 482.35,-29.06 513.79,-25.65"/>
<polygon fill="black" stroke="black" points="514.03,-29.14 523.6,-24.58 513.28,-22.18 514.03,-29.14"/>
</g>
<!-- loss -->
<g id="node6" class="node">
<title>loss</title>
<path fill="none" stroke="black" d="M877.25,-63C877.25,-63 769.75,-63 769.75,-63 763.75,-63 757.75,-57 757.75,-51 757.75,-51 757.75,-39 757.75,-39 757.75,-33 763.75,-27 769.75,-27 769.75,-27 877.25,-27 877.25,-27 883.25,-27 889.25,-33 889.25,-39 889.25,-39 889.25,-51 889.25,-51 889.25,-57 883.25,-63 877.25,-63"/>
<text xml:space="preserve" text-anchor="middle" x="823.5" y="-48.05" font-family="Times,serif" font-size="11.00">Semi&#45;gradient update</text>
<text xml:space="preserve" text-anchor="middle" x="823.5" y="-34.55" font-family="Times,serif" font-size="11.00">fit Q_online(s,a) toward y</text>
</g>
<!-- target&#45;&gt;loss -->
<g id="edge5" class="edge">
<title>target&#45;&gt;loss</title>
<path fill="none" stroke="black" d="M721.91,-56.49C730.14,-55.55 738.25,-54.62 746.08,-53.73"/>
<polygon fill="black" stroke="black" points="746.29,-57.23 755.83,-52.62 745.49,-50.27 746.29,-57.23"/>
</g>
<!-- online&#45;&gt;loss -->
<g id="edge6" class="edge">
<title>online&#45;&gt;loss</title>
<path fill="none" stroke="black" d="M645.16,-24.74C675.74,-28.24 713.44,-32.54 746.21,-36.29"/>
<polygon fill="black" stroke="black" points="745.73,-39.75 756.07,-37.41 746.53,-32.8 745.73,-39.75"/>
</g>
</g>
</svg>
