<?xml version="1.0" encoding="UTF-8" standalone="no"?>
<!DOCTYPE svg PUBLIC "-//W3C//DTD SVG 1.1//EN"
 "http://www.w3.org/Graphics/SVG/1.1/DTD/svg11.dtd">
<!-- Generated by graphviz version 14.1.3 (20260303.0454)
 -->
<!-- Title: ActorCriticWorkflow Pages: 1 -->
<svg width="1363pt" height="259pt"
 viewBox="0.00 0.00 1363.00 259.00" xmlns="http://www.w3.org/2000/svg" xmlns:xlink="http://www.w3.org/1999/xlink">
<g id="graph0" class="graph" transform="scale(1 1) rotate(0) translate(18 241.14)">
<title>ActorCriticWorkflow</title>
<!-- state -->
<g id="node1" class="node">
<title>state</title>
<path fill="#e0f2fe" stroke="#0284c7" d="M60.42,-153.39C60.42,-153.39 12,-153.39 12,-153.39 6,-153.39 0,-147.39 0,-141.39 0,-141.39 0,-129.39 0,-129.39 0,-123.39 6,-117.39 12,-117.39 12,-117.39 60.42,-117.39 60.42,-117.39 66.42,-117.39 72.42,-123.39 72.42,-129.39 72.42,-129.39 72.42,-141.39 72.42,-141.39 72.42,-147.39 66.42,-153.39 60.42,-153.39"/>
<text xml:space="preserve" text-anchor="middle" x="36.21" y="-130.36" font-family="Helvetica,sans-Serif" font-size="12.00">State s_t</text>
</g>
<!-- actor -->
<g id="node2" class="node">
<title>actor</title>
<path fill="#dbeafe" stroke="#2563eb" d="M245.09,-106.78C245.09,-106.78 143.42,-106.78 143.42,-106.78 137.42,-106.78 131.42,-100.78 131.42,-94.78 131.42,-94.78 131.42,-76 131.42,-76 131.42,-70 137.42,-64 143.42,-64 143.42,-64 245.09,-64 245.09,-64 251.09,-64 257.09,-70 257.09,-76 257.09,-76 257.09,-94.78 257.09,-94.78 257.09,-100.78 251.09,-106.78 245.09,-106.78"/>
<text xml:space="preserve" text-anchor="middle" x="194.26" y="-86.74" font-family="Helvetica,sans-Serif" font-size="12.00">Actor</text>
<text xml:space="preserve" text-anchor="middle" x="194.26" y="-73.99" font-family="Helvetica,sans-Serif" font-size="12.00">policy pi(a|s; theta)</text>
</g>
<!-- state&#45;&gt;actor -->
<g id="edge1" class="edge">
<title>state&#45;&gt;actor</title>
<path fill="none" stroke="black" stroke-width="2" d="M72.62,-124.04C87.05,-119.42 104.29,-113.9 121.16,-108.49"/>
<polygon fill="black" stroke="black" stroke-width="2" points="121.8,-111.04 128.14,-106.25 120.2,-106.04 121.8,-111.04"/>
</g>
<!-- action -->
<g id="node3" class="node">
<title>action</title>
<path fill="#eff6ff" stroke="#334155" d="M383.26,-106.39C383.26,-106.39 328.09,-106.39 328.09,-106.39 322.09,-106.39 316.09,-100.39 316.09,-94.39 316.09,-94.39 316.09,-82.39 316.09,-82.39 316.09,-76.39 322.09,-70.39 328.09,-70.39 328.09,-70.39 383.26,-70.39 383.26,-70.39 389.26,-70.39 395.26,-76.39 395.26,-82.39 395.26,-82.39 395.26,-94.39 395.26,-94.39 395.26,-100.39 389.26,-106.39 383.26,-106.39"/>
<text xml:space="preserve" text-anchor="middle" x="355.68" y="-83.36" font-family="Helvetica,sans-Serif" font-size="12.00">Action a_t</text>
</g>
<!-- actor&#45;&gt;action -->
<g id="edge2" class="edge">
<title>actor&#45;&gt;action</title>
<path fill="none" stroke="black" stroke-width="2" d="M257.35,-86.56C273.4,-86.86 290.46,-87.18 305.73,-87.47"/>
<polygon fill="black" stroke="black" stroke-width="2" points="305.42,-90.09 312.97,-87.61 305.52,-84.84 305.42,-90.09"/>
</g>
<!-- env -->
<g id="node4" class="node">
<title>env</title>
<path fill="#fff7ed" stroke="#c77700" d="M535.68,-154.39C535.68,-154.39 466.26,-154.39 466.26,-154.39 460.26,-154.39 454.26,-148.39 454.26,-142.39 454.26,-142.39 454.26,-130.39 454.26,-130.39 454.26,-124.39 460.26,-118.39 466.26,-118.39 466.26,-118.39 535.68,-118.39 535.68,-118.39 541.68,-118.39 547.68,-124.39 547.68,-130.39 547.68,-130.39 547.68,-142.39 547.68,-142.39 547.68,-148.39 541.68,-154.39 535.68,-154.39"/>
<text xml:space="preserve" text-anchor="middle" x="500.97" y="-131.36" font-family="Helvetica,sans-Serif" font-size="12.00">Environment</text>
</g>
<!-- action&#45;&gt;env -->
<g id="edge3" class="edge">
<title>action&#45;&gt;env</title>
<path fill="none" stroke="black" stroke-width="2" d="M395.45,-101.38C410.35,-106.37 427.66,-112.17 443.86,-117.6"/>
<polygon fill="black" stroke="black" stroke-width="2" points="442.96,-120.06 450.9,-119.95 444.63,-115.08 442.96,-120.06"/>
</g>
<!-- env&#45;&gt;state -->
<g id="edge4" class="edge">
<title>env&#45;&gt;state</title>
<path fill="none" stroke="black" stroke-width="2" d="M453.89,-136.29C365.15,-136.1 171.53,-135.68 83.01,-135.49"/>
<polygon fill="black" stroke="black" stroke-width="2" points="83.29,-132.86 75.78,-135.47 83.27,-138.11 83.29,-132.86"/>
</g>
<!-- critic -->
<g id="node5" class="node">
<title>critic</title>
<path fill="#ede9fe" stroke="#7c3aed" d="M1315.44,-192.78C1315.44,-192.78 1198.02,-192.78 1198.02,-192.78 1192.02,-192.78 1186.02,-186.78 1186.02,-180.78 1186.02,-180.78 1186.02,-162 1186.02,-162 1186.02,-156 1192.02,-150 1198.02,-150 1198.02,-150 1315.44,-150 1315.44,-150 1321.44,-150 1327.44,-156 1327.44,-162 1327.44,-162 1327.44,-180.78 1327.44,-180.78 1327.44,-186.78 1321.44,-192.78 1315.44,-192.78"/>
<text xml:space="preserve" text-anchor="middle" x="1256.73" y="-172.74" font-family="Helvetica,sans-Serif" font-size="12.00">Critic</text>
<text xml:space="preserve" text-anchor="middle" x="1256.73" y="-159.99" font-family="Helvetica,sans-Serif" font-size="12.00">V(s; phi) or Q(s,a; phi)</text>
</g>
<!-- env&#45;&gt;critic -->
<g id="edge5" class="edge">
<title>env&#45;&gt;critic</title>
<path fill="none" stroke="black" stroke-width="2" d="M547.92,-149.27C645.58,-175.08 881.11,-228.94 1079.27,-208.39 1111.16,-205.08 1145.78,-198.5 1175.84,-191.79"/>
<polygon fill="black" stroke="black" stroke-width="2" points="1176.16,-194.41 1182.89,-190.19 1175,-189.29 1176.16,-194.41"/>
<text xml:space="preserve" text-anchor="middle" x="894.98" y="-212.69" font-family="Helvetica,sans-Serif" font-size="11.00">r_t, s_{t+1}</text>
</g>
<!-- td -->
<g id="node6" class="node">
<title>td</title>
<path fill="#fce7f3" stroke="#be185d" d="M827.35,-135.78C827.35,-135.78 710.68,-135.78 710.68,-135.78 704.68,-135.78 698.68,-129.78 698.68,-123.78 698.68,-123.78 698.68,-105 698.68,-105 698.68,-99 704.68,-93 710.68,-93 710.68,-93 827.35,-93 827.35,-93 833.35,-93 839.35,-99 839.35,-105 839.35,-105 839.35,-123.78 839.35,-123.78 839.35,-129.78 833.35,-135.78 827.35,-135.78"/>
<text xml:space="preserve" text-anchor="middle" x="769.02" y="-115.74" font-family="Helvetica,sans-Serif" font-size="12.00">TD error delta_t</text>
<text xml:space="preserve" text-anchor="middle" x="769.02" y="-102.99" font-family="Helvetica,sans-Serif" font-size="12.00">r + gamma V(s&#39;) &#45; V(s)</text>
</g>
<!-- env&#45;&gt;td -->
<g id="edge7" class="edge">
<title>env&#45;&gt;td</title>
<path fill="none" stroke="#9ca3af" stroke-width="2" stroke-dasharray="5,2" d="M548.01,-132.58C586.51,-129.4 642.34,-124.78 688.12,-121"/>
<polygon fill="#9ca3af" stroke="#9ca3af" stroke-width="2" points="688.05,-123.64 695.3,-120.4 687.61,-118.4 688.05,-123.64"/>
<text xml:space="preserve" text-anchor="middle" x="623.18" y="-131.44" font-family="Helvetica,sans-Serif" font-size="11.00">reward + next state</text>
</g>
<!-- critic&#45;&gt;td -->
<g id="edge6" class="edge">
<title>critic&#45;&gt;td</title>
<path fill="none" stroke="black" stroke-width="2" d="M1192.01,-149.63C1158.82,-139.33 1117.32,-128.08 1079.27,-122.39 1002.03,-110.85 912.77,-109.84 850.05,-111.12"/>
<polygon fill="black" stroke="black" stroke-width="2" points="850.3,-108.48 842.86,-111.28 850.42,-113.73 850.3,-108.48"/>
<text xml:space="preserve" text-anchor="middle" x="1014.94" y="-123.94" font-family="Helvetica,sans-Serif" font-size="11.00">value estimate</text>
</g>
<!-- update_actor -->
<g id="node7" class="node">
<title>update_actor</title>
<path fill="#dbeafe" stroke="#2563eb" d="M1067.27,-42.78C1067.27,-42.78 962.6,-42.78 962.6,-42.78 956.6,-42.78 950.6,-36.78 950.6,-30.78 950.6,-30.78 950.6,-12 950.6,-12 950.6,-6 956.6,0 962.6,0 962.6,0 1067.27,0 1067.27,0 1073.27,0 1079.27,-6 1079.27,-12 1079.27,-12 1079.27,-30.78 1079.27,-30.78 1079.27,-36.78 1073.27,-42.78 1067.27,-42.78"/>
<text xml:space="preserve" text-anchor="middle" x="1014.94" y="-22.74" font-family="Helvetica,sans-Serif" font-size="12.00">Update actor</text>
<text xml:space="preserve" text-anchor="middle" x="1014.94" y="-9.99" font-family="Helvetica,sans-Serif" font-size="12.00">grad log pi * delta_t</text>
</g>
<!-- td&#45;&gt;update_actor -->
<g id="edge8" class="edge">
<title>td&#45;&gt;update_actor</title>
<path fill="none" stroke="black" stroke-width="2" d="M827.2,-92.59C863.16,-78.88 909.7,-61.13 947.32,-46.79"/>
<polygon fill="black" stroke="black" stroke-width="2" points="947.78,-49.42 953.85,-44.3 945.91,-44.52 947.78,-49.42"/>
</g>
<!-- update_critic -->
<g id="node8" class="node">
<title>update_critic</title>
<path fill="#ede9fe" stroke="#7c3aed" d="M1065.77,-192.78C1065.77,-192.78 964.1,-192.78 964.1,-192.78 958.1,-192.78 952.1,-186.78 952.1,-180.78 952.1,-180.78 952.1,-162 952.1,-162 952.1,-156 958.1,-150 964.1,-150 964.1,-150 1065.77,-150 1065.77,-150 1071.77,-150 1077.77,-156 1077.77,-162 1077.77,-162 1077.77,-180.78 1077.77,-180.78 1077.77,-186.78 1071.77,-192.78 1065.77,-192.78"/>
<text xml:space="preserve" text-anchor="middle" x="1014.94" y="-172.74" font-family="Helvetica,sans-Serif" font-size="12.00">Update critic</text>
<text xml:space="preserve" text-anchor="middle" x="1014.94" y="-159.99" font-family="Helvetica,sans-Serif" font-size="12.00">minimize delta_t^2</text>
</g>
<!-- td&#45;&gt;update_critic -->
<g id="edge9" class="edge">
<title>td&#45;&gt;update_critic</title>
<path fill="none" stroke="black" stroke-width="2" d="M839.59,-130.65C871.62,-138.13 909.6,-147.01 941.92,-154.56"/>
<polygon fill="black" stroke="black" stroke-width="2" points="940.91,-157.02 948.81,-156.17 942.11,-151.91 940.91,-157.02"/>
</g>
<!-- update_actor&#45;&gt;actor -->
<g id="edge10" class="edge">
<title>update_actor&#45;&gt;actor</title>
<path fill="none" stroke="black" stroke-width="2" d="M950.25,-21.39C901.03,-21.39 831.21,-21.39 770.02,-21.39 354.68,-21.39 354.68,-21.39 354.68,-21.39 312.47,-21.39 268.2,-40.95 237.06,-58.44"/>
<polygon fill="black" stroke="black" stroke-width="2" points="236.03,-56 230.85,-62.03 238.66,-60.55 236.03,-56"/>
<text xml:space="preserve" text-anchor="middle" x="500.97" y="-22.94" font-family="Helvetica,sans-Serif" font-size="11.00">policy step</text>
</g>
<!-- update_critic&#45;&gt;critic -->
<g id="edge11" class="edge">
<title>update_critic&#45;&gt;critic</title>
<path fill="none" stroke="black" stroke-width="2" d="M1078,-171.39C1107.8,-171.39 1143.87,-171.39 1175.71,-171.39"/>
<polygon fill="black" stroke="black" stroke-width="2" points="1175.36,-174.02 1182.86,-171.39 1175.36,-168.77 1175.36,-174.02"/>
<text xml:space="preserve" text-anchor="middle" x="1132.65" y="-172.94" font-family="Helvetica,sans-Serif" font-size="11.00">value step</text>
</g>
</g>
</svg>
