<?xml version="1.0" encoding="UTF-8" standalone="no"?>
<!DOCTYPE svg PUBLIC "-//W3C//DTD SVG 1.1//EN"
 "http://www.w3.org/Graphics/SVG/1.1/DTD/svg11.dtd">
<!-- Generated by graphviz version 14.1.3 (20260303.0454)
 -->
<!-- Title: ActorCriticWorkflow Pages: 1 -->
<svg width="1387pt" height="257pt"
 viewBox="0.00 0.00 1387.00 257.00" xmlns="http://www.w3.org/2000/svg" xmlns:xlink="http://www.w3.org/1999/xlink">
<g id="graph0" class="graph" transform="scale(1 1) rotate(0) translate(18 239.43)">
<title>ActorCriticWorkflow</title>
<!-- state -->
<g id="node1" class="node">
<title>state</title>
<path fill="#e0f2fe" stroke="#0284c7" d="M73.17,-137.64C73.17,-137.64 12,-137.64 12,-137.64 6,-137.64 0,-131.64 0,-125.64 0,-125.64 0,-113.64 0,-113.64 0,-107.64 6,-101.64 12,-101.64 12,-101.64 73.17,-101.64 73.17,-101.64 79.17,-101.64 85.17,-107.64 85.17,-113.64 85.17,-113.64 85.17,-125.64 85.17,-125.64 85.17,-131.64 79.17,-137.64 73.17,-137.64"/>
<text xml:space="preserve" text-anchor="start" x="12.96" y="-115.61" font-family="Helvetica,sans-Serif" font-size="12.00"> &#160;&#160;&#160;</text>
<text xml:space="preserve" text-anchor="start" x="24.96" y="-115.61" font-family="Helvetica,sans-Serif" font-weight="bold" font-size="12.00">State</text>
<text xml:space="preserve" text-anchor="start" x="54.21" y="-115.61" font-family="Helvetica,sans-Serif" font-size="12.00"> s</text>
<text xml:space="preserve" text-anchor="start" x="63.21" y="-115.61" font-family="Helvetica,sans-Serif" baseline-shift="sub" font-size="12.00">t</text>
<text xml:space="preserve" text-anchor="start" x="66.21" y="-115.61" font-family="Helvetica,sans-Serif" font-size="12.00"> &#160;</text>
</g>
<!-- actor -->
<g id="node2" class="node">
<title>actor</title>
<path fill="#dbeafe" stroke="#2563eb" d="M260.09,-105.28C260.09,-105.28 156.17,-105.28 156.17,-105.28 150.17,-105.28 144.17,-99.28 144.17,-93.28 144.17,-93.28 144.17,-76 144.17,-76 144.17,-70 150.17,-64 156.17,-64 156.17,-64 260.09,-64 260.09,-64 266.09,-64 272.09,-70 272.09,-76 272.09,-76 272.09,-93.28 272.09,-93.28 272.09,-99.28 266.09,-105.28 260.09,-105.28"/>
<text xml:space="preserve" text-anchor="start" x="186.38" y="-86.24" font-family="Helvetica,sans-Serif" font-size="12.00"> &#160;&#160;&#160;</text>
<text xml:space="preserve" text-anchor="start" x="198.38" y="-86.24" font-family="Helvetica,sans-Serif" font-weight="bold" font-size="12.00">Actor</text>
<text xml:space="preserve" text-anchor="start" x="157.13" y="-74.24" font-family="Helvetica,sans-Serif" font-size="12.00"> &#160;&#160;&#160;policy π(a | s; θ) &#160;</text>
</g>
<!-- state&#45;&gt;actor -->
<g id="edge1" class="edge">
<title>state&#45;&gt;actor</title>
<path fill="none" stroke="black" stroke-width="2" d="M85.28,-110.72C100.01,-107.56 117.05,-103.92 133.63,-100.37"/>
<polygon fill="black" stroke="black" stroke-width="2" points="134.13,-102.95 140.91,-98.81 133.03,-97.81 134.13,-102.95"/>
</g>
<!-- action -->
<g id="node3" class="node">
<title>action</title>
<path fill="#eff6ff" stroke="#334155" d="M413.26,-105.64C413.26,-105.64 343.09,-105.64 343.09,-105.64 337.09,-105.64 331.09,-99.64 331.09,-93.64 331.09,-93.64 331.09,-81.64 331.09,-81.64 331.09,-75.64 337.09,-69.64 343.09,-69.64 343.09,-69.64 413.26,-69.64 413.26,-69.64 419.26,-69.64 425.26,-75.64 425.26,-81.64 425.26,-81.64 425.26,-93.64 425.26,-93.64 425.26,-99.64 419.26,-105.64 413.26,-105.64"/>
<text xml:space="preserve" text-anchor="start" x="344.05" y="-83.61" font-family="Helvetica,sans-Serif" font-size="12.00"> &#160;&#160;&#160;</text>
<text xml:space="preserve" text-anchor="start" x="356.05" y="-83.61" font-family="Helvetica,sans-Serif" font-weight="bold" font-size="12.00">Action</text>
<text xml:space="preserve" text-anchor="start" x="393.55" y="-83.61" font-family="Helvetica,sans-Serif" font-size="12.00"> a</text>
<text xml:space="preserve" text-anchor="start" x="403.3" y="-83.61" font-family="Helvetica,sans-Serif" baseline-shift="sub" font-size="12.00">t</text>
<text xml:space="preserve" text-anchor="start" x="406.3" y="-83.61" font-family="Helvetica,sans-Serif" font-size="12.00"> &#160;</text>
</g>
<!-- actor&#45;&gt;action -->
<g id="edge2" class="edge">
<title>actor&#45;&gt;action</title>
<path fill="none" stroke="black" stroke-width="2" d="M272.18,-85.77C288,-86.05 304.87,-86.35 320.36,-86.63"/>
<polygon fill="black" stroke="black" stroke-width="2" points="320.26,-89.25 327.81,-86.76 320.36,-84 320.26,-89.25"/>
</g>
<!-- env -->
<g id="node4" class="node">
<title>env</title>
<path fill="#fff7ed" stroke="#c77700" d="M589.68,-148.64C589.68,-148.64 496.26,-148.64 496.26,-148.64 490.26,-148.64 484.26,-142.64 484.26,-136.64 484.26,-136.64 484.26,-124.64 484.26,-124.64 484.26,-118.64 490.26,-112.64 496.26,-112.64 496.26,-112.64 589.68,-112.64 589.68,-112.64 595.68,-112.64 601.68,-118.64 601.68,-124.64 601.68,-124.64 601.68,-136.64 601.68,-136.64 601.68,-142.64 595.68,-148.64 589.68,-148.64"/>
<text xml:space="preserve" text-anchor="start" x="497.22" y="-126.61" font-family="Helvetica,sans-Serif" font-size="12.00"> &#160;&#160;&#160;</text>
<text xml:space="preserve" text-anchor="start" x="509.22" y="-126.61" font-family="Helvetica,sans-Serif" font-weight="bold" font-size="12.00">Environment</text>
<text xml:space="preserve" text-anchor="start" x="582.72" y="-126.61" font-family="Helvetica,sans-Serif" font-size="12.00"> &#160;</text>
</g>
<!-- action&#45;&gt;env -->
<g id="edge3" class="edge">
<title>action&#45;&gt;env</title>
<path fill="none" stroke="black" stroke-width="2" d="M425.39,-99.85C440.49,-103.84 457.6,-108.35 473.96,-112.68"/>
<polygon fill="black" stroke="black" stroke-width="2" points="473.17,-115.18 481.1,-114.56 474.52,-110.11 473.17,-115.18"/>
</g>
<!-- env&#45;&gt;state -->
<g id="edge4" class="edge">
<title>env&#45;&gt;state</title>
<path fill="none" stroke="black" stroke-width="2" d="M483.94,-132.41C474.04,-132.58 463.86,-132.68 454.26,-132.64 303.1,-131.97 264.9,-140.93 114.17,-129.64 108.24,-129.2 102.05,-128.57 95.91,-127.84"/>
<polygon fill="black" stroke="black" stroke-width="2" points="96.44,-125.26 88.67,-126.91 95.77,-130.47 96.44,-125.26"/>
</g>
<!-- critic -->
<g id="node5" class="node">
<title>critic</title>
<path fill="#ede9fe" stroke="#7c3aed" d="M1338.69,-191.28C1338.69,-191.28 1218.27,-191.28 1218.27,-191.28 1212.27,-191.28 1206.27,-185.28 1206.27,-179.28 1206.27,-179.28 1206.27,-162 1206.27,-162 1206.27,-156 1212.27,-150 1218.27,-150 1218.27,-150 1338.69,-150 1338.69,-150 1344.69,-150 1350.69,-156 1350.69,-162 1350.69,-162 1350.69,-179.28 1350.69,-179.28 1350.69,-185.28 1344.69,-191.28 1338.69,-191.28"/>
<text xml:space="preserve" text-anchor="start" x="1257.48" y="-172.24" font-family="Helvetica,sans-Serif" font-size="12.00"> &#160;&#160;&#160;</text>
<text xml:space="preserve" text-anchor="start" x="1269.48" y="-172.24" font-family="Helvetica,sans-Serif" font-weight="bold" font-size="12.00">Critic</text>
<text xml:space="preserve" text-anchor="start" x="1219.23" y="-160.24" font-family="Helvetica,sans-Serif" font-size="12.00"> &#160;&#160;&#160;V(s; φ) or Q(s,a; φ) &#160;</text>
</g>
<!-- env&#45;&gt;critic -->
<g id="edge5" class="edge">
<title>env&#45;&gt;critic</title>
<path fill="none" stroke="black" stroke-width="2" d="M601.79,-147.91C702.6,-175.93 917.18,-226.39 1099.52,-207.64 1131.39,-204.36 1165.97,-197.86 1196.1,-191.22"/>
<polygon fill="black" stroke="black" stroke-width="2" points="1196.44,-193.83 1203.18,-189.63 1195.29,-188.71 1196.44,-193.83"/>
<text xml:space="preserve" text-anchor="start" x="904.35" y="-211.98" font-family="Helvetica,sans-Serif" font-size="11.00"> &#160;&#160;&#160;r</text>
<text xml:space="preserve" text-anchor="start" x="920.1" y="-211.98" font-family="Helvetica,sans-Serif" baseline-shift="sub" font-size="11.00">t</text>
<text xml:space="preserve" text-anchor="start" x="922.35" y="-211.98" font-family="Helvetica,sans-Serif" font-size="11.00">, s</text>
<text xml:space="preserve" text-anchor="start" x="933.6" y="-211.98" font-family="Helvetica,sans-Serif" baseline-shift="sub" font-size="11.00">t+1</text>
<text xml:space="preserve" text-anchor="start" x="946.35" y="-211.98" font-family="Helvetica,sans-Serif" font-size="11.00"> &#160;</text>
</g>
<!-- td -->
<g id="node6" class="node">
<title>td</title>
<path fill="#fce7f3" stroke="#be185d" d="M863.35,-133.28C863.35,-133.28 764.68,-133.28 764.68,-133.28 758.68,-133.28 752.68,-127.28 752.68,-121.28 752.68,-121.28 752.68,-104 752.68,-104 752.68,-98 758.68,-92 764.68,-92 764.68,-92 863.35,-92 863.35,-92 869.35,-92 875.35,-98 875.35,-104 875.35,-104 875.35,-121.28 875.35,-121.28 875.35,-127.28 869.35,-133.28 863.35,-133.28"/>
<text xml:space="preserve" text-anchor="start" x="777.64" y="-114.24" font-family="Helvetica,sans-Serif" font-size="12.00"> &#160;&#160;&#160;</text>
<text xml:space="preserve" text-anchor="start" x="789.64" y="-114.24" font-family="Helvetica,sans-Serif" font-weight="bold" font-size="12.00">TD error</text>
<text xml:space="preserve" text-anchor="start" x="836.89" y="-114.24" font-family="Helvetica,sans-Serif" font-size="12.00"> δ</text>
<text xml:space="preserve" text-anchor="start" x="847.39" y="-114.24" font-family="Helvetica,sans-Serif" baseline-shift="sub" font-size="12.00">t</text>
<text xml:space="preserve" text-anchor="start" x="765.64" y="-102.24" font-family="Helvetica,sans-Serif" font-size="12.00"> &#160;&#160;&#160;r + γV(s&#39;) &#45; V(s) &#160;</text>
</g>
<!-- env&#45;&gt;td -->
<g id="edge7" class="edge">
<title>env&#45;&gt;td</title>
<path fill="none" stroke="#9ca3af" stroke-width="2" stroke-dasharray="5,2" d="M602.02,-126.76C643.06,-124.01 698.33,-120.31 742,-117.39"/>
<polygon fill="#9ca3af" stroke="#9ca3af" stroke-width="2" points="741.94,-120.03 749.25,-116.91 741.59,-114.79 741.94,-120.03"/>
<text xml:space="preserve" text-anchor="middle" x="677.18" y="-126.37" font-family="Helvetica,sans-Serif" font-size="11.00">reward + next state</text>
</g>
<!-- critic&#45;&gt;td -->
<g id="edge6" class="edge">
<title>critic&#45;&gt;td</title>
<path fill="none" stroke="black" stroke-width="2" d="M1215.26,-149.61C1181.44,-139.17 1138.65,-127.56 1099.52,-121.64 1027.42,-110.73 943.91,-109.41 886.1,-110.24"/>
<polygon fill="black" stroke="black" stroke-width="2" points="886.09,-107.62 878.64,-110.37 886.18,-112.87 886.09,-107.62"/>
<text xml:space="preserve" text-anchor="middle" x="1040.44" y="-123.19" font-family="Helvetica,sans-Serif" font-size="11.00">value estimate</text>
</g>
<!-- update_actor -->
<g id="node7" class="node">
<title>update_actor</title>
<path fill="#dbeafe" stroke="#2563eb" d="M1087.52,-41.28C1087.52,-41.28 993.35,-41.28 993.35,-41.28 987.35,-41.28 981.35,-35.28 981.35,-29.28 981.35,-29.28 981.35,-12 981.35,-12 981.35,-6 987.35,0 993.35,0 993.35,0 1087.52,0 1087.52,0 1093.52,0 1099.52,-6 1099.52,-12 1099.52,-12 1099.52,-29.28 1099.52,-29.28 1099.52,-35.28 1093.52,-41.28 1087.52,-41.28"/>
<text xml:space="preserve" text-anchor="start" x="997.69" y="-22.24" font-family="Helvetica,sans-Serif" font-size="12.00"> &#160;&#160;&#160;</text>
<text xml:space="preserve" text-anchor="start" x="1009.69" y="-22.24" font-family="Helvetica,sans-Serif" font-weight="bold" font-size="12.00">Update actor</text>
<text xml:space="preserve" text-anchor="start" x="994.31" y="-10.24" font-family="Helvetica,sans-Serif" font-size="12.00"> &#160;&#160;&#160;grad log π * δ</text>
<text xml:space="preserve" text-anchor="start" x="1077.56" y="-10.24" font-family="Helvetica,sans-Serif" baseline-shift="sub" font-size="12.00">t</text>
<text xml:space="preserve" text-anchor="start" x="1080.56" y="-10.24" font-family="Helvetica,sans-Serif" font-size="12.00"> &#160;</text>
</g>
<!-- td&#45;&gt;update_actor -->
<g id="edge8" class="edge">
<title>td&#45;&gt;update_actor</title>
<path fill="none" stroke="black" stroke-width="2" d="M866.5,-91.53C899.86,-77.86 943.46,-59.98 978.54,-45.61"/>
<polygon fill="black" stroke="black" stroke-width="2" points="979.44,-48.07 985.39,-42.8 977.45,-43.21 979.44,-48.07"/>
</g>
<!-- update_critic -->
<g id="node8" class="node">
<title>update_critic</title>
<path fill="#ede9fe" stroke="#7c3aed" d="M1083.77,-191.28C1083.77,-191.28 997.1,-191.28 997.1,-191.28 991.1,-191.28 985.1,-185.28 985.1,-179.28 985.1,-179.28 985.1,-162 985.1,-162 985.1,-156 991.1,-150 997.1,-150 997.1,-150 1083.77,-150 1083.77,-150 1089.77,-150 1095.77,-156 1095.77,-162 1095.77,-162 1095.77,-179.28 1095.77,-179.28 1095.77,-185.28 1089.77,-191.28 1083.77,-191.28"/>
<text xml:space="preserve" text-anchor="start" x="998.44" y="-172.24" font-family="Helvetica,sans-Serif" font-size="12.00"> &#160;&#160;&#160;</text>
<text xml:space="preserve" text-anchor="start" x="1010.44" y="-172.24" font-family="Helvetica,sans-Serif" font-weight="bold" font-size="12.00">Update critic</text>
<text xml:space="preserve" text-anchor="start" x="998.06" y="-160.24" font-family="Helvetica,sans-Serif" font-size="12.00"> &#160;&#160;&#160;minimize δ</text>
<text xml:space="preserve" text-anchor="start" x="1068.56" y="-160.24" font-family="Helvetica,sans-Serif" baseline-shift="sub" font-size="12.00">t</text>
<text xml:space="preserve" text-anchor="start" x="1071.56" y="-160.24" font-family="Helvetica,sans-Serif" baseline-shift="super" font-size="12.00">2</text>
<text xml:space="preserve" text-anchor="start" x="1076.81" y="-160.24" font-family="Helvetica,sans-Serif" font-size="12.00"> &#160;</text>
</g>
<!-- td&#45;&gt;update_critic -->
<g id="edge9" class="edge">
<title>td&#45;&gt;update_critic</title>
<path fill="none" stroke="black" stroke-width="2" d="M875.75,-128.34C906.44,-136.27 943.68,-145.89 974.89,-153.96"/>
<polygon fill="black" stroke="black" stroke-width="2" points="973.94,-156.43 981.86,-155.76 975.26,-151.34 973.94,-156.43"/>
</g>
<!-- update_actor&#45;&gt;actor -->
<g id="edge10" class="edge">
<title>update_actor&#45;&gt;actor</title>
<path fill="none" stroke="black" stroke-width="2" d="M981.31,-20.64C936,-20.64 871.51,-20.64 815.02,-20.64 377.18,-20.64 377.18,-20.64 377.18,-20.64 332.23,-20.64 284.69,-40.88 251.69,-58.6"/>
<polygon fill="black" stroke="black" stroke-width="2" points="250.73,-56.13 245.43,-62.05 253.27,-60.72 250.73,-56.13"/>
<text xml:space="preserve" text-anchor="middle" x="542.97" y="-22.19" font-family="Helvetica,sans-Serif" font-size="11.00">policy step</text>
</g>
<!-- update_critic&#45;&gt;critic -->
<g id="edge11" class="edge">
<title>update_critic&#45;&gt;critic</title>
<path fill="none" stroke="black" stroke-width="2" d="M1096.18,-170.64C1125.68,-170.64 1162.65,-170.64 1195.51,-170.64"/>
<polygon fill="black" stroke="black" stroke-width="2" points="1195.49,-173.27 1202.99,-170.64 1195.49,-168.02 1195.49,-173.27"/>
<text xml:space="preserve" text-anchor="middle" x="1152.9" y="-172.19" font-family="Helvetica,sans-Serif" font-size="11.00">value step</text>
</g>
</g>
</svg>
