<?xml version="1.0" encoding="UTF-8" standalone="no"?>
<!DOCTYPE svg PUBLIC "-//W3C//DTD SVG 1.1//EN"
 "http://www.w3.org/Graphics/SVG/1.1/DTD/svg11.dtd">
<!-- Generated by graphviz version 14.1.3 (20260303.0454)
 -->
<!-- Title: AgentEnvironmentLoop Pages: 1 -->
<svg width="665pt" height="172pt"
 viewBox="0.00 0.00 665.00 172.00" xmlns="http://www.w3.org/2000/svg" xmlns:xlink="http://www.w3.org/1999/xlink">
<g id="graph0" class="graph" transform="scale(1 1) rotate(0) translate(18 154.05)">
<title>AgentEnvironmentLoop</title>
<!-- agent -->
<g id="node1" class="node">
<title>agent</title>
<path fill="#f4f7fb" stroke="#44546a" d="M97.17,-113.03C97.17,-113.03 12,-113.03 12,-113.03 6,-113.03 0,-107.03 0,-101.03 0,-101.03 0,-67.25 0,-67.25 0,-61.25 6,-55.25 12,-55.25 12,-55.25 97.17,-55.25 97.17,-55.25 103.17,-55.25 109.17,-61.25 109.17,-67.25 109.17,-67.25 109.17,-101.03 109.17,-101.03 109.17,-107.03 103.17,-113.03 97.17,-113.03"/>
<text xml:space="preserve" text-anchor="middle" x="54.59" y="-92.04" font-family="Helvetica,sans-Serif" font-size="13.00">Agent</text>
<text xml:space="preserve" text-anchor="middle" x="54.59" y="-78.54" font-family="Helvetica,sans-Serif" font-size="13.00">policy pi(a|s)</text>
<text xml:space="preserve" text-anchor="middle" x="54.59" y="-65.04" font-family="Helvetica,sans-Serif" font-size="13.00">choose action</text>
</g>
<!-- env -->
<g id="node2" class="node">
<title>env</title>
<path fill="#f4f7fb" stroke="#44546a" d="M443.34,-113.03C443.34,-113.03 328.17,-113.03 328.17,-113.03 322.17,-113.03 316.17,-107.03 316.17,-101.03 316.17,-101.03 316.17,-67.25 316.17,-67.25 316.17,-61.25 322.17,-55.25 328.17,-55.25 328.17,-55.25 443.34,-55.25 443.34,-55.25 449.34,-55.25 455.34,-61.25 455.34,-67.25 455.34,-67.25 455.34,-101.03 455.34,-101.03 455.34,-107.03 449.34,-113.03 443.34,-113.03"/>
<text xml:space="preserve" text-anchor="middle" x="385.75" y="-92.04" font-family="Helvetica,sans-Serif" font-size="13.00">Environment</text>
<text xml:space="preserve" text-anchor="middle" x="385.75" y="-78.54" font-family="Helvetica,sans-Serif" font-size="13.00">dynamics P(s&#39;|s,a)</text>
<text xml:space="preserve" text-anchor="middle" x="385.75" y="-65.04" font-family="Helvetica,sans-Serif" font-size="13.00">compute next state</text>
</g>
<!-- agent&#45;&gt;env -->
<g id="edge1" class="edge">
<title>agent&#45;&gt;env</title>
<path fill="none" stroke="#d04d2d" stroke-width="2.1" d="M109.61,-105.27C125.63,-110.56 143.39,-115.48 160.17,-118.14 206.26,-125.44 218.95,-124.58 265.17,-118.14 278.33,-116.31 292.07,-113.39 305.36,-110.01"/>
<polygon fill="#d04d2d" stroke="#d04d2d" stroke-width="2.1" points="305.81,-112.79 312.82,-108.04 304.37,-107.38 305.81,-112.79"/>
<text xml:space="preserve" text-anchor="middle" x="212.67" y="-124.65" font-family="Helvetica,sans-Serif" font-size="12.00">action A_t</text>
</g>
<!-- env&#45;&gt;agent -->
<g id="edge2" class="edge">
<title>env&#45;&gt;agent</title>
<path fill="none" stroke="#d04d2d" stroke-width="2.1" d="M315.86,-84.14C258.33,-84.14 176.9,-84.14 120.5,-84.14"/>
<polygon fill="#d04d2d" stroke="#d04d2d" stroke-width="2.1" points="120.75,-81.34 112.75,-84.14 120.75,-86.94 120.75,-81.34"/>
<text xml:space="preserve" text-anchor="middle" x="212.67" y="-98.24" font-family="Helvetica,sans-Serif" font-size="12.00">observation O_{t+1}</text>
<text xml:space="preserve" text-anchor="middle" x="212.67" y="-85.49" font-family="Helvetica,sans-Serif" font-size="12.00">reward R_{t+1}</text>
</g>
<!-- obs -->
<g id="node3" class="node">
<title>obs</title>
<path fill="#fff7e6" stroke="#c77b00" d="M617.01,-44.28C617.01,-44.28 518.34,-44.28 518.34,-44.28 512.34,-44.28 506.34,-38.28 506.34,-32.28 506.34,-32.28 506.34,-12 506.34,-12 506.34,-6 512.34,0 518.34,0 518.34,0 617.01,0 617.01,0 623.01,0 629.01,-6 629.01,-12 629.01,-12 629.01,-32.28 629.01,-32.28 629.01,-38.28 623.01,-44.28 617.01,-44.28"/>
<text xml:space="preserve" text-anchor="middle" x="567.67" y="-23.29" font-family="Helvetica,sans-Serif" font-size="13.00">Observation O_t</text>
<text xml:space="preserve" text-anchor="middle" x="567.67" y="-9.79" font-family="Helvetica,sans-Serif" font-size="13.00">Reward R_t</text>
</g>
<!-- env&#45;&gt;obs -->
<g id="edge3" class="edge">
<title>env&#45;&gt;obs</title>
<path fill="none" stroke="#7a7a7a" stroke-width="2.1" stroke-dasharray="5,2" d="M455.8,-60.35C472.35,-54.64 489.9,-48.6 506.04,-43.04"/>
</g>
<!-- obs&#45;&gt;agent -->
<g id="edge4" class="edge">
<title>obs&#45;&gt;agent</title>
<path fill="none" stroke="#7a7a7a" stroke-width="2.1" stroke-dasharray="5,2" d="M506.02,-24.5C455.19,-26.9 380.77,-31.39 316.17,-39.14 244.26,-47.77 162.03,-62.85 109.5,-73.15"/>
</g>
</g>
</svg>
