<?xml version="1.0" encoding="UTF-8" standalone="no"?>
<!DOCTYPE svg PUBLIC "-//W3C//DTD SVG 1.1//EN"
 "http://www.w3.org/Graphics/SVG/1.1/DTD/svg11.dtd">
<!-- Generated by graphviz version 14.1.3 (20260303.0454)
 -->
<!-- Title: AgentEnvironmentLoop Pages: 1 -->
<svg width="718pt" height="169pt"
 viewBox="0.00 0.00 718.00 169.00" xmlns="http://www.w3.org/2000/svg" xmlns:xlink="http://www.w3.org/1999/xlink">
<g id="graph0" class="graph" transform="scale(1 1) rotate(0) translate(18 150.59)">
<title>AgentEnvironmentLoop</title>
<!-- agent -->
<g id="node1" class="node">
<title>agent</title>
<path fill="#f4f7fb" stroke="#44546a" d="M119.67,-111.78C119.67,-111.78 12,-111.78 12,-111.78 6,-111.78 0,-105.78 0,-99.78 0,-99.78 0,-67.5 0,-67.5 0,-61.5 6,-55.5 12,-55.5 12,-55.5 119.67,-55.5 119.67,-55.5 125.67,-55.5 131.67,-61.5 131.67,-67.5 131.67,-67.5 131.67,-99.78 131.67,-99.78 131.67,-105.78 125.67,-111.78 119.67,-111.78"/>
<text xml:space="preserve" text-anchor="start" x="39.21" y="-91.79" font-family="Helvetica,sans-Serif" font-size="13.00"> &#160;&#160;&#160;</text>
<text xml:space="preserve" text-anchor="start" x="54.21" y="-91.79" font-family="Helvetica,sans-Serif" font-weight="bold" font-size="13.00">Agent</text>
<text xml:space="preserve" text-anchor="start" x="18.21" y="-78.79" font-family="Helvetica,sans-Serif" font-size="13.00"> &#160;&#160;&#160;policy π(a | s)</text>
<text xml:space="preserve" text-anchor="start" x="12.96" y="-65.79" font-family="Helvetica,sans-Serif" font-size="13.00"> &#160;&#160;&#160;choose action &#160;</text>
</g>
<!-- env -->
<g id="node2" class="node">
<title>env</title>
<path fill="#f4f7fb" stroke="#44546a" d="M483.84,-111.78C483.84,-111.78 346.17,-111.78 346.17,-111.78 340.17,-111.78 334.17,-105.78 334.17,-99.78 334.17,-99.78 334.17,-67.5 334.17,-67.5 334.17,-61.5 340.17,-55.5 346.17,-55.5 346.17,-55.5 483.84,-55.5 483.84,-55.5 489.84,-55.5 495.84,-61.5 495.84,-67.5 495.84,-67.5 495.84,-99.78 495.84,-99.78 495.84,-105.78 489.84,-111.78 483.84,-111.78"/>
<text xml:space="preserve" text-anchor="start" x="366.63" y="-91.79" font-family="Helvetica,sans-Serif" font-size="13.00"> &#160;&#160;&#160;</text>
<text xml:space="preserve" text-anchor="start" x="381.63" y="-91.79" font-family="Helvetica,sans-Serif" font-weight="bold" font-size="13.00">Environment</text>
<text xml:space="preserve" text-anchor="start" x="347.5" y="-78.79" font-family="Helvetica,sans-Serif" font-size="13.00"> &#160;&#160;&#160;dynamics P(s&#39; | s, a)</text>
<text xml:space="preserve" text-anchor="start" x="347.13" y="-65.79" font-family="Helvetica,sans-Serif" font-size="13.00"> &#160;&#160;&#160;compute next state &#160;</text>
</g>
<!-- agent&#45;&gt;env -->
<g id="edge1" class="edge">
<title>agent&#45;&gt;env</title>
<path fill="none" stroke="#d04d2d" stroke-width="2.1" d="M132.04,-105.03C148.39,-109.46 166.02,-113.44 182.67,-115.64 226.95,-121.5 238.82,-120.98 283.17,-115.64 296.27,-114.06 309.95,-111.62 323.32,-108.78"/>
<polygon fill="#d04d2d" stroke="#d04d2d" stroke-width="2.1" points="323.64,-111.58 330.85,-107.12 322.43,-106.11 323.64,-111.58"/>
<text xml:space="preserve" text-anchor="start" x="201.05" y="-122.19" font-family="Helvetica,sans-Serif" font-size="12.00"> &#160;&#160;&#160;action A</text>
<text xml:space="preserve" text-anchor="start" x="255.8" y="-122.19" font-family="Helvetica,sans-Serif" baseline-shift="sub" font-size="12.00">t</text>
<text xml:space="preserve" text-anchor="start" x="258.8" y="-122.19" font-family="Helvetica,sans-Serif" font-size="12.00"> &#160;</text>
</g>
<!-- env&#45;&gt;agent -->
<g id="edge2" class="edge">
<title>env&#45;&gt;agent</title>
<path fill="none" stroke="#d04d2d" stroke-width="2.1" d="M333.74,-83.64C276.36,-83.64 199.61,-83.64 143.15,-83.64"/>
<polygon fill="#d04d2d" stroke="#d04d2d" stroke-width="2.1" points="143.31,-80.84 135.31,-83.64 143.31,-86.44 143.31,-80.84"/>
<text xml:space="preserve" text-anchor="start" x="182.67" y="-97.24" font-family="Helvetica,sans-Serif" font-size="12.00"> &#160;&#160;&#160;observation O</text>
<text xml:space="preserve" text-anchor="start" x="268.92" y="-97.24" font-family="Helvetica,sans-Serif" baseline-shift="sub" font-size="12.00">t+1</text>
<text xml:space="preserve" text-anchor="start" x="192.42" y="-85.24" font-family="Helvetica,sans-Serif" font-size="12.00"> &#160;&#160;&#160;reward R</text>
<text xml:space="preserve" text-anchor="start" x="253.17" y="-85.24" font-family="Helvetica,sans-Serif" baseline-shift="sub" font-size="12.00">t+1</text>
<text xml:space="preserve" text-anchor="start" x="267.42" y="-85.24" font-family="Helvetica,sans-Serif" font-size="12.00"> &#160;</text>
</g>
<!-- obs -->
<g id="node3" class="node">
<title>obs</title>
<path fill="#fff7e6" stroke="#c77b00" d="M670.26,-43.28C670.26,-43.28 558.84,-43.28 558.84,-43.28 552.84,-43.28 546.84,-37.28 546.84,-31.28 546.84,-31.28 546.84,-12 546.84,-12 546.84,-6 552.84,0 558.84,0 558.84,0 670.26,0 670.26,0 676.26,0 682.26,-6 682.26,-12 682.26,-12 682.26,-31.28 682.26,-31.28 682.26,-37.28 676.26,-43.28 670.26,-43.28"/>
<text xml:space="preserve" text-anchor="start" x="559.8" y="-23.29" font-family="Helvetica,sans-Serif" font-size="13.00"> &#160;&#160;&#160;</text>
<text xml:space="preserve" text-anchor="start" x="574.8" y="-23.29" font-family="Helvetica,sans-Serif" font-weight="bold" font-size="13.00">Observation</text>
<text xml:space="preserve" text-anchor="start" x="652.8" y="-23.29" font-family="Helvetica,sans-Serif" font-size="13.00"> O</text>
<text xml:space="preserve" text-anchor="start" x="666.3" y="-23.29" font-family="Helvetica,sans-Serif" baseline-shift="sub" font-size="13.00">t</text>
<text xml:space="preserve" text-anchor="start" x="571.05" y="-10.29" font-family="Helvetica,sans-Serif" font-size="13.00"> &#160;&#160;&#160;</text>
<text xml:space="preserve" text-anchor="start" x="586.05" y="-10.29" font-family="Helvetica,sans-Serif" font-weight="bold" font-size="13.00">Reward</text>
<text xml:space="preserve" text-anchor="start" x="634.05" y="-10.29" font-family="Helvetica,sans-Serif" font-size="13.00"> R</text>
<text xml:space="preserve" text-anchor="start" x="647.55" y="-10.29" font-family="Helvetica,sans-Serif" baseline-shift="sub" font-size="13.00">t</text>
<text xml:space="preserve" text-anchor="start" x="650.55" y="-10.29" font-family="Helvetica,sans-Serif" font-size="13.00"> &#160;</text>
</g>
<!-- env&#45;&gt;obs -->
<g id="edge3" class="edge">
<title>env&#45;&gt;obs</title>
<path fill="none" stroke="#7a7a7a" stroke-width="2.1" stroke-dasharray="5,2" d="M496.07,-58.51C512.75,-53.28 530.18,-47.81 546.34,-42.73"/>
</g>
<!-- obs&#45;&gt;agent -->
<g id="edge4" class="edge">
<title>obs&#45;&gt;agent</title>
<path fill="none" stroke="#7a7a7a" stroke-width="2.1" stroke-dasharray="5,2" d="M546.49,-24.1C489.79,-26.62 406.48,-31.38 334.17,-39.64 264.77,-47.57 185.93,-61.1 131.95,-71.07"/>
</g>
</g>
</svg>
