<?xml version="1.0" encoding="UTF-8" standalone="no"?>
<!DOCTYPE svg PUBLIC "-//W3C//DTD SVG 1.1//EN"
 "http://www.w3.org/Graphics/SVG/1.1/DTD/svg11.dtd">
<!-- Generated by graphviz version 14.1.3 (20260303.0454)
 -->
<!-- Title: BellmanPolicyIterationLoop Pages: 1 -->
<svg width="787pt" height="171pt"
 viewBox="0.00 0.00 787.00 171.00" xmlns="http://www.w3.org/2000/svg" xmlns:xlink="http://www.w3.org/1999/xlink">
<g id="graph0" class="graph" transform="scale(1 1) rotate(0) translate(18 152.89)">
<title>BellmanPolicyIterationLoop</title>
<!-- policy -->
<g id="node1" class="node">
<title>policy</title>
<path fill="#f8fafc" stroke="#4b5563" d="M109.55,-134.89C109.55,-134.89 43.13,-134.89 43.13,-134.89 37.13,-134.89 31.13,-128.89 31.13,-122.89 31.13,-122.89 31.13,-110.89 31.13,-110.89 31.13,-104.89 37.13,-98.89 43.13,-98.89 43.13,-98.89 109.55,-98.89 109.55,-98.89 115.55,-98.89 121.55,-104.89 121.55,-110.89 121.55,-110.89 121.55,-122.89 121.55,-122.89 121.55,-128.89 115.55,-134.89 109.55,-134.89"/>
<text xml:space="preserve" text-anchor="middle" x="76.34" y="-111.29" font-family="Helvetica,sans-Serif" font-size="13.00">Policy pi_k</text>
</g>
<!-- eval -->
<g id="node2" class="node">
<title>eval</title>
<path fill="#f8fafc" stroke="#4b5563" d="M393.59,-57.78C393.59,-57.78 223.67,-57.78 223.67,-57.78 217.67,-57.78 211.67,-51.78 211.67,-45.78 211.67,-45.78 211.67,-12 211.67,-12 211.67,-6 217.67,0 223.67,0 223.67,0 393.59,0 393.59,0 399.59,0 405.59,-6 405.59,-12 405.59,-12 405.59,-45.78 405.59,-45.78 405.59,-51.78 399.59,-57.78 393.59,-57.78"/>
<text xml:space="preserve" text-anchor="middle" x="308.63" y="-36.79" font-family="Helvetica,sans-Serif" font-size="13.00">Policy evaluation</text>
<text xml:space="preserve" text-anchor="middle" x="308.63" y="-23.29" font-family="Helvetica,sans-Serif" font-size="13.00">Bellman expectation backup</text>
<text xml:space="preserve" text-anchor="middle" x="308.63" y="-9.79" font-family="Helvetica,sans-Serif" font-size="13.00">V^pi, Q^pi</text>
</g>
<!-- policy&#45;&gt;eval -->
<g id="edge1" class="edge">
<title>policy&#45;&gt;eval</title>
<path fill="none" stroke="#4f46e5" stroke-width="2" d="M122.01,-99.82C150.11,-89.08 187.3,-74.87 221.01,-61.99"/>
<polygon fill="#4f46e5" stroke="#4f46e5" stroke-width="2" points="221.58,-64.77 228.05,-59.3 219.58,-59.54 221.58,-64.77"/>
</g>
<!-- improve -->
<g id="node3" class="node">
<title>improve</title>
<path fill="#f8fafc" stroke="#4b5563" d="M738.51,-107.78C738.51,-107.78 559.59,-107.78 559.59,-107.78 553.59,-107.78 547.59,-101.78 547.59,-95.78 547.59,-95.78 547.59,-62 547.59,-62 547.59,-56 553.59,-50 559.59,-50 559.59,-50 738.51,-50 738.51,-50 744.51,-50 750.51,-56 750.51,-62 750.51,-62 750.51,-95.78 750.51,-95.78 750.51,-101.78 744.51,-107.78 738.51,-107.78"/>
<text xml:space="preserve" text-anchor="middle" x="649.05" y="-86.79" font-family="Helvetica,sans-Serif" font-size="13.00">Policy improvement</text>
<text xml:space="preserve" text-anchor="middle" x="649.05" y="-73.29" font-family="Helvetica,sans-Serif" font-size="13.00">use Bellman optimality</text>
<text xml:space="preserve" text-anchor="middle" x="649.05" y="-59.79" font-family="Helvetica,sans-Serif" font-size="13.00">pi_{k+1}(s) = argmax_a q(s,a)</text>
</g>
<!-- eval&#45;&gt;improve -->
<g id="edge3" class="edge">
<title>eval&#45;&gt;improve</title>
<path fill="none" stroke="#4f46e5" stroke-width="2" d="M405.7,-43.08C446.42,-49.1 494.13,-56.15 536.4,-62.39"/>
<polygon fill="#4f46e5" stroke="#4f46e5" stroke-width="2" points="535.99,-65.16 544.32,-63.56 536.81,-59.62 535.99,-65.16"/>
<text xml:space="preserve" text-anchor="middle" x="476.59" y="-59.72" font-family="Helvetica,sans-Serif" font-size="12.00">compute values</text>
</g>
<!-- improve&#45;&gt;policy -->
<g id="edge4" class="edge">
<title>improve&#45;&gt;policy</title>
<path fill="none" stroke="#4f46e5" stroke-width="2" d="M547.32,-85.6C426.49,-93.64 228.27,-106.84 132.52,-113.22"/>
<polygon fill="#4f46e5" stroke="#4f46e5" stroke-width="2" points="132.46,-110.41 124.66,-113.74 132.83,-116 132.46,-110.41"/>
<text xml:space="preserve" text-anchor="middle" x="308.63" y="-109.29" font-family="Helvetica,sans-Serif" font-size="12.00">repeat until stable</text>
</g>
<!-- model -->
<g id="node4" class="node">
<title>model</title>
<path fill="#fff7ed" stroke="#c77700" d="M140.67,-51.03C140.67,-51.03 12,-51.03 12,-51.03 6,-51.03 0,-45.03 0,-39.03 0,-39.03 0,-18.75 0,-18.75 0,-12.75 6,-6.75 12,-6.75 12,-6.75 140.67,-6.75 140.67,-6.75 146.67,-6.75 152.67,-12.75 152.67,-18.75 152.67,-18.75 152.67,-39.03 152.67,-39.03 152.67,-45.03 146.67,-51.03 140.67,-51.03"/>
<text xml:space="preserve" text-anchor="middle" x="76.34" y="-30.04" font-family="Helvetica,sans-Serif" font-size="13.00">Transition model</text>
<text xml:space="preserve" text-anchor="middle" x="76.34" y="-16.54" font-family="Helvetica,sans-Serif" font-size="13.00">P(s&#39;|s,a) and rewards</text>
</g>
<!-- model&#45;&gt;eval -->
<g id="edge2" class="edge">
<title>model&#45;&gt;eval</title>
<path fill="none" stroke="#9ca3af" stroke-width="2" stroke-dasharray="5,2" d="M153.06,-28.89C168.19,-28.89 184.34,-28.89 200.3,-28.89"/>
<polygon fill="#9ca3af" stroke="#9ca3af" stroke-width="2" points="200.27,-31.69 208.27,-28.89 200.27,-26.09 200.27,-31.69"/>
</g>
</g>
</svg>
