<?xml version="1.0" encoding="UTF-8" standalone="no"?>
<!DOCTYPE svg PUBLIC "-//W3C//DTD SVG 1.1//EN"
 "http://www.w3.org/Graphics/SVG/1.1/DTD/svg11.dtd">
<!-- Generated by graphviz version 14.1.3 (20260303.0454)
 -->
<!-- Title: BellmanPolicyIterationLoop Pages: 1 -->
<svg width="823pt" height="170pt"
 viewBox="0.00 0.00 823.00 170.00" xmlns="http://www.w3.org/2000/svg" xmlns:xlink="http://www.w3.org/1999/xlink">
<g id="graph0" class="graph" transform="scale(1 1) rotate(0) translate(18 152.14)">
<title>BellmanPolicyIterationLoop</title>
<!-- policy -->
<g id="node1" class="node">
<title>policy</title>
<path fill="#f8fafc" stroke="#4b5563" d="M133.55,-134.14C133.55,-134.14 52.88,-134.14 52.88,-134.14 46.88,-134.14 40.88,-128.14 40.88,-122.14 40.88,-122.14 40.88,-110.14 40.88,-110.14 40.88,-104.14 46.88,-98.14 52.88,-98.14 52.88,-98.14 133.55,-98.14 133.55,-98.14 139.55,-98.14 145.55,-104.14 145.55,-110.14 145.55,-110.14 145.55,-122.14 145.55,-122.14 145.55,-128.14 139.55,-134.14 133.55,-134.14"/>
<text xml:space="preserve" text-anchor="start" x="53.84" y="-111.54" font-family="Helvetica,sans-Serif" font-size="13.00"> &#160;&#160;&#160;</text>
<text xml:space="preserve" text-anchor="start" x="68.84" y="-111.54" font-family="Helvetica,sans-Serif" font-weight="bold" font-size="13.00">Policy</text>
<text xml:space="preserve" text-anchor="start" x="108.59" y="-111.54" font-family="Helvetica,sans-Serif" font-size="13.00"> π</text>
<text xml:space="preserve" text-anchor="start" x="119.84" y="-111.54" font-family="Helvetica,sans-Serif" baseline-shift="sub" font-size="13.00">k</text>
<text xml:space="preserve" text-anchor="start" x="125.09" y="-111.54" font-family="Helvetica,sans-Serif" font-size="13.00"> &#160;</text>
</g>
<!-- eval -->
<g id="node2" class="node">
<title>eval</title>
<path fill="#f8fafc" stroke="#4b5563" d="M442.34,-56.28C442.34,-56.28 257.42,-56.28 257.42,-56.28 251.42,-56.28 245.42,-50.28 245.42,-44.28 245.42,-44.28 245.42,-12 245.42,-12 245.42,-6 251.42,0 257.42,0 257.42,0 442.34,0 442.34,0 448.34,0 454.34,-6 454.34,-12 454.34,-12 454.34,-44.28 454.34,-44.28 454.34,-50.28 448.34,-56.28 442.34,-56.28"/>
<text xml:space="preserve" text-anchor="start" x="287.26" y="-36.29" font-family="Helvetica,sans-Serif" font-size="13.00"> &#160;&#160;&#160;</text>
<text xml:space="preserve" text-anchor="start" x="302.26" y="-36.29" font-family="Helvetica,sans-Serif" font-weight="bold" font-size="13.00">Policy evaluation</text>
<text xml:space="preserve" text-anchor="start" x="258.38" y="-23.29" font-family="Helvetica,sans-Serif" font-size="13.00"> &#160;&#160;&#160;Bellman expectation backup</text>
<text xml:space="preserve" text-anchor="start" x="321.76" y="-10.29" font-family="Helvetica,sans-Serif" font-size="13.00"> &#160;&#160;&#160;v</text>
<text xml:space="preserve" text-anchor="start" x="343.51" y="-10.29" font-family="Helvetica,sans-Serif" baseline-shift="sub" font-size="13.00">π</text>
<text xml:space="preserve" text-anchor="start" x="349.51" y="-10.29" font-family="Helvetica,sans-Serif" font-size="13.00">, q</text>
<text xml:space="preserve" text-anchor="start" x="364.51" y="-10.29" font-family="Helvetica,sans-Serif" baseline-shift="sub" font-size="13.00">π</text>
<text xml:space="preserve" text-anchor="start" x="370.51" y="-10.29" font-family="Helvetica,sans-Serif" font-size="13.00"> &#160;</text>
</g>
<!-- policy&#45;&gt;eval -->
<g id="edge1" class="edge">
<title>policy&#45;&gt;eval</title>
<path fill="none" stroke="#4f46e5" stroke-width="2" d="M145.75,-98.33C177.3,-87.43 218.61,-73.15 255.74,-60.32"/>
<polygon fill="#4f46e5" stroke="#4f46e5" stroke-width="2" points="256.58,-63 263.23,-57.74 254.75,-57.7 256.58,-63"/>
</g>
<!-- improve -->
<g id="node3" class="node">
<title>improve</title>
<path fill="#f8fafc" stroke="#4b5563" d="M774.51,-106.28C774.51,-106.28 608.34,-106.28 608.34,-106.28 602.34,-106.28 596.34,-100.28 596.34,-94.28 596.34,-94.28 596.34,-62 596.34,-62 596.34,-56 602.34,-50 608.34,-50 608.34,-50 774.51,-50 774.51,-50 780.51,-50 786.51,-56 786.51,-62 786.51,-62 786.51,-94.28 786.51,-94.28 786.51,-100.28 780.51,-106.28 774.51,-106.28"/>
<text xml:space="preserve" text-anchor="start" x="620.55" y="-86.29" font-family="Helvetica,sans-Serif" font-size="13.00"> &#160;&#160;&#160;</text>
<text xml:space="preserve" text-anchor="start" x="635.55" y="-86.29" font-family="Helvetica,sans-Serif" font-weight="bold" font-size="13.00">Policy improvement</text>
<text xml:space="preserve" text-anchor="start" x="617.17" y="-73.29" font-family="Helvetica,sans-Serif" font-size="13.00"> &#160;&#160;&#160;use Bellman optimality</text>
<text xml:space="preserve" text-anchor="start" x="609.3" y="-60.29" font-family="Helvetica,sans-Serif" font-size="13.00"> &#160;&#160;&#160;π</text>
<text xml:space="preserve" text-anchor="start" x="631.8" y="-60.29" font-family="Helvetica,sans-Serif" baseline-shift="sub" font-size="13.00">k+1</text>
<text xml:space="preserve" text-anchor="start" x="649.05" y="-60.29" font-family="Helvetica,sans-Serif" font-size="13.00">(s) = arg max q(s,a) &#160;</text>
</g>
<!-- eval&#45;&gt;improve -->
<g id="edge3" class="edge">
<title>eval&#45;&gt;improve</title>
<path fill="none" stroke="#4f46e5" stroke-width="2" d="M454.6,-43.41C496.04,-49.52 543.71,-56.54 585.29,-62.66"/>
<polygon fill="#4f46e5" stroke="#4f46e5" stroke-width="2" points="584.69,-65.4 593.01,-63.8 585.5,-59.86 584.69,-65.4"/>
<text xml:space="preserve" text-anchor="middle" x="525.34" y="-60.44" font-family="Helvetica,sans-Serif" font-size="12.00">compute values</text>
</g>
<!-- improve&#45;&gt;policy -->
<g id="edge4" class="edge">
<title>improve&#45;&gt;policy</title>
<path fill="none" stroke="#4f46e5" stroke-width="2" d="M595.99,-84.16C472.95,-92 261.2,-105.5 156.52,-112.17"/>
<polygon fill="#4f46e5" stroke="#4f46e5" stroke-width="2" points="156.64,-109.35 148.84,-112.66 157,-114.94 156.64,-109.35"/>
<text xml:space="preserve" text-anchor="middle" x="349.88" y="-107.85" font-family="Helvetica,sans-Serif" font-size="12.00">repeat until stable</text>
</g>
<!-- model -->
<g id="node4" class="node">
<title>model</title>
<path fill="#fff7ed" stroke="#c77700" d="M174.42,-49.78C174.42,-49.78 12,-49.78 12,-49.78 6,-49.78 0,-43.78 0,-37.78 0,-37.78 0,-18.5 0,-18.5 0,-12.5 6,-6.5 12,-6.5 12,-6.5 174.42,-6.5 174.42,-6.5 180.42,-6.5 186.42,-12.5 186.42,-18.5 186.42,-18.5 186.42,-37.78 186.42,-37.78 186.42,-43.78 180.42,-49.78 174.42,-49.78"/>
<text xml:space="preserve" text-anchor="start" x="32.46" y="-29.79" font-family="Helvetica,sans-Serif" font-size="13.00"> &#160;&#160;&#160;</text>
<text xml:space="preserve" text-anchor="start" x="47.46" y="-29.79" font-family="Helvetica,sans-Serif" font-weight="bold" font-size="13.00">Transition model</text>
<text xml:space="preserve" text-anchor="start" x="12.96" y="-16.79" font-family="Helvetica,sans-Serif" font-size="13.00"> &#160;&#160;&#160;P(s&#39; | s, a) and rewards &#160;</text>
</g>
<!-- model&#45;&gt;eval -->
<g id="edge2" class="edge">
<title>model&#45;&gt;eval</title>
<path fill="none" stroke="#9ca3af" stroke-width="2" stroke-dasharray="5,2" d="M186.87,-28.14C202.24,-28.14 218.34,-28.14 234.17,-28.14"/>
<polygon fill="#9ca3af" stroke="#9ca3af" stroke-width="2" points="234.06,-30.94 242.06,-28.14 234.06,-25.34 234.06,-30.94"/>
</g>
</g>
</svg>
