<?xml version="1.0" encoding="UTF-8" standalone="no"?>
<!DOCTYPE svg PUBLIC "-//W3C//DTD SVG 1.1//EN"
 "http://www.w3.org/Graphics/SVG/1.1/DTD/svg11.dtd">
<!-- Generated by graphviz version 14.1.3 (20260303.0454)
 -->
<!-- Title: BellmanBackupTaxonomy Pages: 1 -->
<svg width="324pt" height="469pt"
 viewBox="0.00 0.00 324.00 469.00" xmlns="http://www.w3.org/2000/svg" xmlns:xlink="http://www.w3.org/1999/xlink">
<g id="graph0" class="graph" transform="scale(1 1) rotate(0) translate(18 450.68)">
<title>BellmanBackupTaxonomy</title>
<!-- bellman -->
<g id="node1" class="node">
<title>bellman</title>
<path fill="#e0f2fe" stroke="#0284c7" d="M224.29,-432.68C224.29,-432.68 67.12,-432.68 67.12,-432.68 61.12,-432.68 55.12,-426.68 55.12,-420.68 55.12,-420.68 55.12,-403.4 55.12,-403.4 55.12,-397.4 61.12,-391.4 67.12,-391.4 67.12,-391.4 224.29,-391.4 224.29,-391.4 230.29,-391.4 236.29,-397.4 236.29,-403.4 236.29,-403.4 236.29,-420.68 236.29,-420.68 236.29,-426.68 230.29,-432.68 224.29,-432.68"/>
<text xml:space="preserve" text-anchor="start" x="90.21" y="-413.64" font-family="Helvetica,sans-Serif" font-size="12.00"> &#160;&#160;&#160;</text>
<text xml:space="preserve" text-anchor="start" x="102.21" y="-413.64" font-family="Helvetica,sans-Serif" font-weight="bold" font-size="12.00">Bellman backups</text>
<text xml:space="preserve" text-anchor="start" x="68.08" y="-401.64" font-family="Helvetica,sans-Serif" font-size="12.00"> &#160;&#160;&#160;one&#45;step recursive targets &#160;</text>
</g>
<!-- expectation -->
<g id="node2" class="node">
<title>expectation</title>
<path fill="#dbeafe" stroke="#1d4ed8" d="M153.42,-350.4C153.42,-350.4 12,-350.4 12,-350.4 6,-350.4 0,-344.4 0,-338.4 0,-338.4 0,-321.12 0,-321.12 0,-315.12 6,-309.12 12,-309.12 12,-309.12 153.42,-309.12 153.42,-309.12 159.42,-309.12 165.42,-315.12 165.42,-321.12 165.42,-321.12 165.42,-338.4 165.42,-338.4 165.42,-344.4 159.42,-350.4 153.42,-350.4"/>
<text xml:space="preserve" text-anchor="start" x="19.71" y="-331.36" font-family="Helvetica,sans-Serif" font-size="12.00"> &#160;&#160;&#160;</text>
<text xml:space="preserve" text-anchor="start" x="31.71" y="-331.36" font-family="Helvetica,sans-Serif" font-weight="bold" font-size="12.00">Expectation backup</text>
<text xml:space="preserve" text-anchor="start" x="12.96" y="-319.36" font-family="Helvetica,sans-Serif" font-size="12.00"> &#160;&#160;&#160;average under policy π &#160;</text>
</g>
<!-- bellman&#45;&gt;expectation -->
<g id="edge1" class="edge">
<title>bellman&#45;&gt;expectation</title>
<path fill="none" stroke="#2563eb" stroke-width="2" d="M130.14,-391.2C122.49,-381.45 113.14,-369.54 104.77,-358.87"/>
<polygon fill="#2563eb" stroke="#2563eb" stroke-width="2" points="106.89,-357.32 100.19,-353.04 102.76,-360.56 106.89,-357.32"/>
</g>
<!-- optimality -->
<g id="node3" class="node">
<title>optimality</title>
<path fill="#ede9fe" stroke="#7c3aed" d="M276.42,-289.12C276.42,-289.12 141,-289.12 141,-289.12 135,-289.12 129,-283.12 129,-277.12 129,-277.12 129,-259.84 129,-259.84 129,-253.84 135,-247.84 141,-247.84 141,-247.84 276.42,-247.84 276.42,-247.84 282.42,-247.84 288.42,-253.84 288.42,-259.84 288.42,-259.84 288.42,-277.12 288.42,-277.12 288.42,-283.12 282.42,-289.12 276.42,-289.12"/>
<text xml:space="preserve" text-anchor="start" x="151.33" y="-270.08" font-family="Helvetica,sans-Serif" font-size="12.00"> &#160;&#160;&#160;</text>
<text xml:space="preserve" text-anchor="start" x="163.33" y="-270.08" font-family="Helvetica,sans-Serif" font-weight="bold" font-size="12.00">Optimality backup</text>
<text xml:space="preserve" text-anchor="start" x="141.96" y="-258.08" font-family="Helvetica,sans-Serif" font-size="12.00"> &#160;&#160;&#160;max over next actions &#160;</text>
</g>
<!-- bellman&#45;&gt;optimality -->
<g id="edge2" class="edge">
<title>bellman&#45;&gt;optimality</title>
<path fill="none" stroke="#2563eb" stroke-width="2" d="M158.07,-390.99C164.94,-379.38 173.35,-364.35 179.71,-350.4 187.27,-333.8 194.23,-314.61 199.43,-299.08"/>
<polygon fill="#2563eb" stroke="#2563eb" stroke-width="2" points="201.79,-300.29 201.63,-292.34 196.8,-298.65 201.79,-300.29"/>
</g>
<!-- evaluation -->
<g id="node4" class="node">
<title>evaluation</title>
<path fill="#eff6ff" stroke="#334155" d="M139.42,-227.84C139.42,-227.84 28,-227.84 28,-227.84 22,-227.84 16,-221.84 16,-215.84 16,-215.84 16,-198.56 16,-198.56 16,-192.56 22,-186.56 28,-186.56 28,-186.56 139.42,-186.56 139.42,-186.56 145.42,-186.56 151.42,-192.56 151.42,-198.56 151.42,-198.56 151.42,-215.84 151.42,-215.84 151.42,-221.84 145.42,-227.84 139.42,-227.84"/>
<text xml:space="preserve" text-anchor="start" x="28.96" y="-208.8" font-family="Helvetica,sans-Serif" font-size="12.00"> &#160;&#160;&#160;</text>
<text xml:space="preserve" text-anchor="start" x="40.96" y="-208.8" font-family="Helvetica,sans-Serif" font-weight="bold" font-size="12.00">Policy evaluation</text>
<text xml:space="preserve" text-anchor="start" x="33.83" y="-196.8" font-family="Helvetica,sans-Serif" font-size="12.00"> &#160;&#160;&#160;estimate V</text>
<text xml:space="preserve" text-anchor="start" x="102.08" y="-196.8" font-family="Helvetica,sans-Serif" baseline-shift="super" font-size="12.00">π</text>
<text xml:space="preserve" text-anchor="start" x="107.33" y="-196.8" font-family="Helvetica,sans-Serif" font-size="12.00">, Q</text>
<text xml:space="preserve" text-anchor="start" x="122.33" y="-196.8" font-family="Helvetica,sans-Serif" baseline-shift="super" font-size="12.00">π</text>
<text xml:space="preserve" text-anchor="start" x="127.58" y="-196.8" font-family="Helvetica,sans-Serif" font-size="12.00"> &#160;</text>
</g>
<!-- expectation&#45;&gt;evaluation -->
<g id="edge3" class="edge">
<title>expectation&#45;&gt;evaluation</title>
<path fill="none" stroke="#2563eb" stroke-width="2" d="M82.88,-308.85C83.03,-289.74 83.28,-260.62 83.46,-238.6"/>
<polygon fill="#2563eb" stroke="#2563eb" stroke-width="2" points="86.08,-238.69 83.52,-231.16 80.83,-238.64 86.08,-238.69"/>
</g>
<!-- control -->
<g id="node6" class="node">
<title>control</title>
<path fill="#fef3c7" stroke="#b45309" d="M227.29,-41.28C227.29,-41.28 70.12,-41.28 70.12,-41.28 64.12,-41.28 58.12,-35.28 58.12,-29.28 58.12,-29.28 58.12,-12 58.12,-12 58.12,-6 64.12,0 70.12,0 70.12,0 227.29,0 227.29,0 233.29,0 239.29,-6 239.29,-12 239.29,-12 239.29,-29.28 239.29,-29.28 239.29,-35.28 233.29,-41.28 227.29,-41.28"/>
<text xml:space="preserve" text-anchor="start" x="89.46" y="-22.24" font-family="Helvetica,sans-Serif" font-size="12.00"> &#160;&#160;&#160;</text>
<text xml:space="preserve" text-anchor="start" x="101.46" y="-22.24" font-family="Helvetica,sans-Serif" font-weight="bold" font-size="12.00">Control algorithms</text>
<text xml:space="preserve" text-anchor="start" x="71.08" y="-10.24" font-family="Helvetica,sans-Serif" font-size="12.00"> &#160;&#160;&#160;value iteration, Q&#45;learning &#160;</text>
</g>
<!-- optimality&#45;&gt;control -->
<g id="edge5" class="edge">
<title>optimality&#45;&gt;control</title>
<path fill="none" stroke="#2563eb" stroke-width="2" d="M206.76,-247.56C203.23,-214.85 194.64,-147.93 178.71,-93.28 174.53,-78.94 168.35,-63.6 162.69,-50.81"/>
<polygon fill="#2563eb" stroke="#2563eb" stroke-width="2" points="165.24,-50.08 159.75,-44.33 160.46,-52.25 165.24,-50.08"/>
</g>
<!-- improvement -->
<g id="node5" class="node">
<title>improvement</title>
<path fill="#fff7ed" stroke="#c77700" d="M152.29,-134.56C152.29,-134.56 25.13,-134.56 25.13,-134.56 19.12,-134.56 13.12,-128.56 13.12,-122.56 13.12,-122.56 13.12,-105.28 13.12,-105.28 13.12,-99.28 19.12,-93.28 25.12,-93.28 25.12,-93.28 152.29,-93.28 152.29,-93.28 158.29,-93.28 164.29,-99.28 164.29,-105.28 164.29,-105.28 164.29,-122.56 164.29,-122.56 164.29,-128.56 158.29,-134.56 152.29,-134.56"/>
<text xml:space="preserve" text-anchor="start" x="26.08" y="-115.52" font-family="Helvetica,sans-Serif" font-size="12.00"> &#160;&#160;&#160;</text>
<text xml:space="preserve" text-anchor="start" x="38.08" y="-115.52" font-family="Helvetica,sans-Serif" font-weight="bold" font-size="12.00">Policy improvement</text>
<text xml:space="preserve" text-anchor="start" x="29.46" y="-103.52" font-family="Helvetica,sans-Serif" font-size="12.00"> &#160;&#160;&#160;greedy step from Q &#160;</text>
</g>
<!-- evaluation&#45;&gt;improvement -->
<g id="edge4" class="edge">
<title>evaluation&#45;&gt;improvement</title>
<path fill="none" stroke="#2563eb" stroke-width="2" d="M84.79,-186.39C85.45,-174.4 86.3,-158.85 87.05,-145.31"/>
<polygon fill="#2563eb" stroke="#2563eb" stroke-width="2" points="89.66,-145.66 87.44,-138.03 84.41,-145.37 89.66,-145.66"/>
<text xml:space="preserve" text-anchor="middle" x="118.01" y="-156.11" font-family="Helvetica,sans-Serif" font-size="11.00">greedy policy</text>
</g>
<!-- improvement&#45;&gt;control -->
<g id="edge6" class="edge">
<title>improvement&#45;&gt;control</title>
<path fill="none" stroke="#94a3b8" stroke-width="2" stroke-dasharray="5,2" d="M101.73,-93.11C109.93,-80.64 120.65,-64.33 129.78,-50.44"/>
<polygon fill="#94a3b8" stroke="#94a3b8" stroke-width="2" points="131.92,-51.96 133.85,-44.25 127.53,-49.08 131.92,-51.96"/>
<text xml:space="preserve" text-anchor="middle" x="137.68" y="-62.83" font-family="Helvetica,sans-Serif" font-size="11.00">repeat</text>
</g>
</g>
</svg>
