<?xml version="1.0" encoding="UTF-8" standalone="no"?>
<!DOCTYPE svg PUBLIC "-//W3C//DTD SVG 1.1//EN"
 "http://www.w3.org/Graphics/SVG/1.1/DTD/svg11.dtd">
<!-- Generated by graphviz version 14.1.3 (20260303.0454)
 -->
<!-- Title: DeadlyTriad Pages: 1 -->
<svg width="445pt" height="330pt"
 viewBox="0.00 0.00 445.00 330.00" xmlns="http://www.w3.org/2000/svg" xmlns:xlink="http://www.w3.org/1999/xlink">
<g id="graph0" class="graph" transform="scale(1 1) rotate(0) translate(18 312.12)">
<title>DeadlyTriad</title>
<!-- offpolicy -->
<g id="node1" class="node">
<title>offpolicy</title>
<path fill="#dbeafe" stroke="#2563eb" d="M397.17,-294.12C397.17,-294.12 188.25,-294.12 188.25,-294.12 182.25,-294.12 176.25,-288.12 176.25,-282.12 176.25,-282.12 176.25,-264.84 176.25,-264.84 176.25,-258.84 182.25,-252.84 188.25,-252.84 188.25,-252.84 397.17,-252.84 397.17,-252.84 403.17,-252.84 409.17,-258.84 409.17,-264.84 409.17,-264.84 409.17,-282.12 409.17,-282.12 409.17,-288.12 403.17,-294.12 397.17,-294.12"/>
<text xml:space="preserve" text-anchor="start" x="234.58" y="-275.08" font-family="Helvetica,sans-Serif" font-size="12.00"> &#160;&#160;&#160;</text>
<text xml:space="preserve" text-anchor="start" x="246.58" y="-275.08" font-family="Helvetica,sans-Serif" font-weight="bold" font-size="12.00">Off&#45;policy learning</text>
<text xml:space="preserve" text-anchor="start" x="189.21" y="-263.08" font-family="Helvetica,sans-Serif" font-size="12.00"> &#160;&#160;&#160;data from a different behavior policy &#160;</text>
</g>
<!-- bootstrap -->
<g id="node2" class="node">
<title>bootstrap</title>
<path fill="#ede9fe" stroke="#7c3aed" d="M225.42,-209.84C225.42,-209.84 12,-209.84 12,-209.84 6,-209.84 0,-203.84 0,-197.84 0,-197.84 0,-180.56 0,-180.56 0,-174.56 6,-168.56 12,-168.56 12,-168.56 225.42,-168.56 225.42,-168.56 231.42,-168.56 237.42,-174.56 237.42,-180.56 237.42,-180.56 237.42,-197.84 237.42,-197.84 237.42,-203.84 231.42,-209.84 225.42,-209.84"/>
<text xml:space="preserve" text-anchor="start" x="71.46" y="-190.8" font-family="Helvetica,sans-Serif" font-size="12.00"> &#160;&#160;&#160;</text>
<text xml:space="preserve" text-anchor="start" x="83.46" y="-190.8" font-family="Helvetica,sans-Serif" font-weight="bold" font-size="12.00">Bootstrapping</text>
<text xml:space="preserve" text-anchor="start" x="12.96" y="-178.8" font-family="Helvetica,sans-Serif" font-size="12.00"> &#160;&#160;&#160;targets depend on learned estimates &#160;</text>
</g>
<!-- offpolicy&#45;&gt;bootstrap -->
<g id="edge4" class="edge">
<title>offpolicy&#45;&gt;bootstrap</title>
<path fill="none" stroke="#94a3b8" stroke-width="2" stroke-dasharray="5,2" d="M250.14,-252.35C223.08,-239.55 188.17,-223.05 161.14,-210.26"/>
</g>
<!-- instability -->
<g id="node4" class="node">
<title>instability</title>
<path fill="#fee2e2" stroke="#dc2626" d="M357.29,-41.28C357.29,-41.28 110.13,-41.28 110.13,-41.28 104.12,-41.28 98.12,-35.28 98.12,-29.28 98.12,-29.28 98.12,-12 98.12,-12 98.12,-6 104.12,0 110.12,0 110.12,0 357.29,0 357.29,0 363.29,0 369.29,-6 369.29,-12 369.29,-12 369.29,-29.28 369.29,-29.28 369.29,-35.28 363.29,-41.28 357.29,-41.28"/>
<text xml:space="preserve" text-anchor="start" x="188.33" y="-22.24" font-family="Helvetica,sans-Serif" font-size="12.00"> &#160;&#160;&#160;</text>
<text xml:space="preserve" text-anchor="start" x="200.33" y="-22.24" font-family="Helvetica,sans-Serif" font-weight="bold" font-size="12.00">Instability risk</text>
<text xml:space="preserve" text-anchor="start" x="111.08" y="-10.24" font-family="Helvetica,sans-Serif" font-size="12.00"> &#160;&#160;&#160;moving targets, divergence, overestimation &#160;</text>
</g>
<!-- offpolicy&#45;&gt;instability -->
<g id="edge1" class="edge">
<title>offpolicy&#45;&gt;instability</title>
<path fill="none" stroke="#2563eb" stroke-width="2" d="M317.16,-252.38C357.21,-216.99 428.62,-141.83 389.71,-84.28 378.24,-67.32 361.35,-54.95 342.86,-45.93"/>
<polygon fill="#2563eb" stroke="#2563eb" stroke-width="2" points="344.04,-43.59 336.13,-42.89 341.88,-48.37 344.04,-43.59"/>
</g>
<!-- approximation -->
<g id="node3" class="node">
<title>approximation</title>
<path fill="#ecfccb" stroke="#4d7c0f" d="M359.92,-125.56C359.92,-125.56 107.5,-125.56 107.5,-125.56 101.5,-125.56 95.5,-119.56 95.5,-113.56 95.5,-113.56 95.5,-96.28 95.5,-96.28 95.5,-90.28 101.5,-84.28 107.5,-84.28 107.5,-84.28 359.92,-84.28 359.92,-84.28 365.92,-84.28 371.92,-90.28 371.92,-96.28 371.92,-96.28 371.92,-113.56 371.92,-113.56 371.92,-119.56 365.92,-125.56 359.92,-125.56"/>
<text xml:space="preserve" text-anchor="start" x="159.46" y="-106.52" font-family="Helvetica,sans-Serif" font-size="12.00"> &#160;&#160;&#160;</text>
<text xml:space="preserve" text-anchor="start" x="171.46" y="-106.52" font-family="Helvetica,sans-Serif" font-weight="bold" font-size="12.00">Function approximation</text>
<text xml:space="preserve" text-anchor="start" x="108.46" y="-94.52" font-family="Helvetica,sans-Serif" font-size="12.00"> &#160;&#160;&#160;shared parameters couple many predictions &#160;</text>
</g>
<!-- bootstrap&#45;&gt;approximation -->
<g id="edge5" class="edge">
<title>bootstrap&#45;&gt;approximation</title>
<path fill="none" stroke="#94a3b8" stroke-width="2" stroke-dasharray="5,2" d="M146.84,-168.07C164.8,-155.23 187.97,-138.65 205.87,-125.84"/>
</g>
<!-- bootstrap&#45;&gt;instability -->
<g id="edge2" class="edge">
<title>bootstrap&#45;&gt;instability</title>
<path fill="none" stroke="#2563eb" stroke-width="2" d="M100.06,-168.19C82,-146.3 59.79,-110.79 77.71,-84.28 89.18,-67.32 106.07,-54.95 124.56,-45.93"/>
<polygon fill="#2563eb" stroke="#2563eb" stroke-width="2" points="125.54,-48.37 131.29,-42.89 123.38,-43.59 125.54,-48.37"/>
</g>
<!-- approximation&#45;&gt;offpolicy -->
<g id="edge6" class="edge">
<title>approximation&#45;&gt;offpolicy</title>
<path fill="none" stroke="#94a3b8" stroke-width="2" stroke-dasharray="5,2" d="M240.76,-125.82C252.09,-157.8 274.22,-220.29 285.59,-252.39"/>
</g>
<!-- approximation&#45;&gt;instability -->
<g id="edge3" class="edge">
<title>approximation&#45;&gt;instability</title>
<path fill="none" stroke="#2563eb" stroke-width="2" d="M233.71,-84C233.71,-74.37 233.71,-62.6 233.71,-51.9"/>
<polygon fill="#2563eb" stroke="#2563eb" stroke-width="2" points="236.34,-52.19 233.71,-44.69 231.09,-52.19 236.34,-52.19"/>
</g>
</g>
</svg>
