<?xml version="1.0" encoding="UTF-8" standalone="no"?>
<!DOCTYPE svg PUBLIC "-//W3C//DTD SVG 1.1//EN"
 "http://www.w3.org/Graphics/SVG/1.1/DTD/svg11.dtd">
<!-- Generated by graphviz version 14.1.3 (20260303.0454)
 -->
<!-- Title: DQNWorkflow Pages: 1 -->
<svg width="1329pt" height="197pt"
 viewBox="0.00 0.00 1329.00 197.00" xmlns="http://www.w3.org/2000/svg" xmlns:xlink="http://www.w3.org/1999/xlink">
<g id="graph0" class="graph" transform="scale(1 1) rotate(0) translate(18 179.39)">
<title>DQNWorkflow</title>
<!-- state -->
<g id="node1" class="node">
<title>state</title>
<path fill="#f8fafc" stroke="#334155" d="M103.92,-91.39C103.92,-91.39 12,-91.39 12,-91.39 6,-91.39 0,-85.39 0,-79.39 0,-79.39 0,-60.61 0,-60.61 0,-54.61 6,-48.61 12,-48.61 12,-48.61 103.92,-48.61 103.92,-48.61 109.92,-48.61 115.92,-54.61 115.92,-60.61 115.92,-60.61 115.92,-79.39 115.92,-79.39 115.92,-85.39 109.92,-91.39 103.92,-91.39"/>
<text xml:space="preserve" text-anchor="middle" x="57.96" y="-71.35" font-family="Helvetica,sans-Serif" font-size="12.00">Input state</text>
<text xml:space="preserve" text-anchor="middle" x="57.96" y="-58.6" font-family="Helvetica,sans-Serif" font-size="12.00">4 stacked frames</text>
</g>
<!-- online -->
<g id="node2" class="node">
<title>online</title>
<path fill="#dbeafe" stroke="#1d4ed8" d="M276.84,-91.39C276.84,-91.39 181.92,-91.39 181.92,-91.39 175.92,-91.39 169.92,-85.39 169.92,-79.39 169.92,-79.39 169.92,-60.61 169.92,-60.61 169.92,-54.61 175.92,-48.61 181.92,-48.61 181.92,-48.61 276.84,-48.61 276.84,-48.61 282.84,-48.61 288.84,-54.61 288.84,-60.61 288.84,-60.61 288.84,-79.39 288.84,-79.39 288.84,-85.39 282.84,-91.39 276.84,-91.39"/>
<text xml:space="preserve" text-anchor="middle" x="229.38" y="-71.35" font-family="Helvetica,sans-Serif" font-size="12.00">Online Q&#45;network</text>
<text xml:space="preserve" text-anchor="middle" x="229.38" y="-58.6" font-family="Helvetica,sans-Serif" font-size="12.00">Q(s,a; w)</text>
</g>
<!-- state&#45;&gt;online -->
<g id="edge1" class="edge">
<title>state&#45;&gt;online</title>
<path fill="none" stroke="#2563eb" stroke-width="2" d="M116.32,-70C130.15,-70 145.06,-70 159.36,-70"/>
<polygon fill="#2563eb" stroke="#2563eb" stroke-width="2" points="159.11,-72.63 166.61,-70 159.11,-67.38 159.11,-72.63"/>
</g>
<!-- policy -->
<g id="node3" class="node">
<title>policy</title>
<path fill="#eff6ff" stroke="#334155" d="M471.51,-161.39C471.51,-161.39 354.84,-161.39 354.84,-161.39 348.84,-161.39 342.84,-155.39 342.84,-149.39 342.84,-149.39 342.84,-130.61 342.84,-130.61 342.84,-124.61 348.84,-118.61 354.84,-118.61 354.84,-118.61 471.51,-118.61 471.51,-118.61 477.51,-118.61 483.51,-124.61 483.51,-130.61 483.51,-130.61 483.51,-149.39 483.51,-149.39 483.51,-155.39 477.51,-161.39 471.51,-161.39"/>
<text xml:space="preserve" text-anchor="middle" x="413.18" y="-141.35" font-family="Helvetica,sans-Serif" font-size="12.00">epsilon&#45;greedy action</text>
<text xml:space="preserve" text-anchor="middle" x="413.18" y="-128.6" font-family="Helvetica,sans-Serif" font-size="12.00">a_t</text>
</g>
<!-- online&#45;&gt;policy -->
<g id="edge2" class="edge">
<title>online&#45;&gt;policy</title>
<path fill="none" stroke="#2563eb" stroke-width="2" d="M286.9,-91.76C305.54,-98.94 326.44,-106.99 345.74,-114.42"/>
<polygon fill="#2563eb" stroke="#2563eb" stroke-width="2" points="344.61,-116.8 352.55,-117.04 346.49,-111.9 344.61,-116.8"/>
</g>
<!-- sync -->
<g id="node9" class="node">
<title>sync</title>
<path fill="#ede9fe" stroke="#6d28d9" d="M623.43,-91.39C623.43,-91.39 549.51,-91.39 549.51,-91.39 543.51,-91.39 537.51,-85.39 537.51,-79.39 537.51,-79.39 537.51,-60.61 537.51,-60.61 537.51,-54.61 543.51,-48.61 549.51,-48.61 549.51,-48.61 623.43,-48.61 623.43,-48.61 629.43,-48.61 635.43,-54.61 635.43,-60.61 635.43,-60.61 635.43,-79.39 635.43,-79.39 635.43,-85.39 629.43,-91.39 623.43,-91.39"/>
<text xml:space="preserve" text-anchor="middle" x="586.47" y="-71.35" font-family="Helvetica,sans-Serif" font-size="12.00">Periodic sync</text>
<text xml:space="preserve" text-anchor="middle" x="586.47" y="-58.6" font-family="Helvetica,sans-Serif" font-size="12.00">w^&#45; &lt;&#45; w</text>
</g>
<!-- online&#45;&gt;sync -->
<g id="edge10" class="edge">
<title>online&#45;&gt;sync</title>
<path fill="none" stroke="#6d28d9" stroke-width="2" stroke-dasharray="5,2" d="M289.02,-70C354.83,-70 461,-70 526.82,-70"/>
<polygon fill="#6d28d9" stroke="#6d28d9" stroke-width="2" points="526.5,-72.63 534,-70 526.5,-67.38 526.5,-72.63"/>
</g>
<!-- env -->
<g id="node4" class="node">
<title>env</title>
<path fill="#fff7ed" stroke="#c77700" d="M621.18,-159C621.18,-159 551.76,-159 551.76,-159 545.76,-159 539.76,-153 539.76,-147 539.76,-147 539.76,-135 539.76,-135 539.76,-129 545.76,-123 551.76,-123 551.76,-123 621.18,-123 621.18,-123 627.18,-123 633.18,-129 633.18,-135 633.18,-135 633.18,-147 633.18,-147 633.18,-153 627.18,-159 621.18,-159"/>
<text xml:space="preserve" text-anchor="middle" x="586.47" y="-135.97" font-family="Helvetica,sans-Serif" font-size="12.00">Environment</text>
</g>
<!-- policy&#45;&gt;env -->
<g id="edge3" class="edge">
<title>policy&#45;&gt;env</title>
<path fill="none" stroke="#2563eb" stroke-width="2" d="M483.85,-140.41C498.9,-140.49 514.64,-140.59 529.11,-140.67"/>
<polygon fill="#2563eb" stroke="#2563eb" stroke-width="2" points="528.85,-143.29 536.37,-140.71 528.89,-138.04 528.85,-143.29"/>
</g>
<!-- replay -->
<g id="node5" class="node">
<title>replay</title>
<path fill="#ecfccb" stroke="#4d7c0f" d="M774.6,-157C774.6,-157 701.43,-157 701.43,-157 695.43,-157 689.43,-151 689.43,-145 689.43,-145 689.43,-133 689.43,-133 689.43,-127 695.43,-121 701.43,-121 701.43,-121 774.6,-121 774.6,-121 780.6,-121 786.6,-127 786.6,-133 786.6,-133 786.6,-145 786.6,-145 786.6,-151 780.6,-157 774.6,-157"/>
<text xml:space="preserve" text-anchor="middle" x="738.02" y="-133.97" font-family="Helvetica,sans-Serif" font-size="12.00">Replay buffer</text>
</g>
<!-- env&#45;&gt;replay -->
<g id="edge4" class="edge">
<title>env&#45;&gt;replay</title>
<path fill="none" stroke="#2563eb" stroke-width="2" d="M633.56,-140.38C647.85,-140.19 663.8,-139.98 678.8,-139.78"/>
<polygon fill="#2563eb" stroke="#2563eb" stroke-width="2" points="678.52,-142.41 685.98,-139.68 678.45,-137.16 678.52,-142.41"/>
</g>
<!-- sample -->
<g id="node6" class="node">
<title>sample</title>
<path fill="#ecfccb" stroke="#4d7c0f" d="M950.52,-156C950.52,-156 852.6,-156 852.6,-156 846.6,-156 840.6,-150 840.6,-144 840.6,-144 840.6,-132 840.6,-132 840.6,-126 846.6,-120 852.6,-120 852.6,-120 950.52,-120 950.52,-120 956.52,-120 962.52,-126 962.52,-132 962.52,-132 962.52,-144 962.52,-144 962.52,-150 956.52,-156 950.52,-156"/>
<text xml:space="preserve" text-anchor="middle" x="901.56" y="-132.97" font-family="Helvetica,sans-Serif" font-size="12.00">Sample minibatch</text>
</g>
<!-- replay&#45;&gt;sample -->
<g id="edge5" class="edge">
<title>replay&#45;&gt;sample</title>
<path fill="none" stroke="#2563eb" stroke-width="2" d="M787.05,-138.7C800.52,-138.62 815.45,-138.53 829.94,-138.44"/>
<polygon fill="#2563eb" stroke="#2563eb" stroke-width="2" points="829.88,-141.06 837.36,-138.39 829.85,-135.81 829.88,-141.06"/>
</g>
<!-- target -->
<g id="node7" class="node">
<title>target</title>
<path fill="#ede9fe" stroke="#6d28d9" d="M1108.44,-91.39C1108.44,-91.39 1028.52,-91.39 1028.52,-91.39 1022.52,-91.39 1016.52,-85.39 1016.52,-79.39 1016.52,-79.39 1016.52,-60.61 1016.52,-60.61 1016.52,-54.61 1022.52,-48.61 1028.52,-48.61 1028.52,-48.61 1108.44,-48.61 1108.44,-48.61 1114.44,-48.61 1120.44,-54.61 1120.44,-60.61 1120.44,-60.61 1120.44,-79.39 1120.44,-79.39 1120.44,-85.39 1114.44,-91.39 1108.44,-91.39"/>
<text xml:space="preserve" text-anchor="middle" x="1068.48" y="-71.35" font-family="Helvetica,sans-Serif" font-size="12.00">Target network</text>
<text xml:space="preserve" text-anchor="middle" x="1068.48" y="-58.6" font-family="Helvetica,sans-Serif" font-size="12.00">Q(s,a; w^&#45;)</text>
</g>
<!-- sample&#45;&gt;target -->
<g id="edge6" class="edge">
<title>sample&#45;&gt;target</title>
<path fill="none" stroke="#2563eb" stroke-width="2" d="M947.19,-119.6C965.47,-112.06 986.92,-103.22 1006.6,-95.1"/>
<polygon fill="#2563eb" stroke="#2563eb" stroke-width="2" points="1007.37,-97.62 1013.3,-92.34 1005.37,-92.77 1007.37,-97.62"/>
</g>
<!-- loss -->
<g id="node8" class="node">
<title>loss</title>
<path fill="#fce7f3" stroke="#be185d" d="M1281.36,-91.39C1281.36,-91.39 1186.44,-91.39 1186.44,-91.39 1180.44,-91.39 1174.44,-85.39 1174.44,-79.39 1174.44,-79.39 1174.44,-60.61 1174.44,-60.61 1174.44,-54.61 1180.44,-48.61 1186.44,-48.61 1186.44,-48.61 1281.36,-48.61 1281.36,-48.61 1287.36,-48.61 1293.36,-54.61 1293.36,-60.61 1293.36,-60.61 1293.36,-79.39 1293.36,-79.39 1293.36,-85.39 1287.36,-91.39 1281.36,-91.39"/>
<text xml:space="preserve" text-anchor="middle" x="1233.9" y="-71.35" font-family="Helvetica,sans-Serif" font-size="12.00">Squared TD error</text>
<text xml:space="preserve" text-anchor="middle" x="1233.9" y="-58.6" font-family="Helvetica,sans-Serif" font-size="12.00">loss(w)</text>
</g>
<!-- target&#45;&gt;loss -->
<g id="edge7" class="edge">
<title>target&#45;&gt;loss</title>
<path fill="none" stroke="#2563eb" stroke-width="2" d="M1120.74,-58.77C1134.37,-58.05 1149.33,-57.83 1163.74,-58.13"/>
<polygon fill="#2563eb" stroke="#2563eb" stroke-width="2" points="1163.52,-60.75 1171.1,-58.34 1163.68,-55.5 1163.52,-60.75"/>
</g>
<!-- target&#45;&gt;loss -->
<g id="edge9" class="edge">
<title>target&#45;&gt;loss</title>
<path fill="none" stroke="#2563eb" stroke-width="2" stroke-dasharray="5,2" d="M1120.74,-81.23C1137.68,-82.13 1156.66,-82.24 1174.12,-81.57"/>
</g>
<!-- loss&#45;&gt;online -->
<g id="edge8" class="edge">
<title>loss&#45;&gt;online</title>
<path fill="none" stroke="#2563eb" stroke-width="2" d="M1174.19,-48.63C1157.03,-42.94 1138.13,-37.22 1120.44,-33 1025.17,-10.28 1000.5,0 902.56,0 585.47,0 585.47,0 585.47,0 484.2,0 369.7,-27.74 298.77,-48.3"/>
<polygon fill="#2563eb" stroke="#2563eb" stroke-width="2" points="298.42,-45.67 291.96,-50.3 299.9,-50.71 298.42,-45.67"/>
</g>
<!-- sync&#45;&gt;target -->
<g id="edge11" class="edge">
<title>sync&#45;&gt;target</title>
<path fill="none" stroke="#6d28d9" stroke-width="2" stroke-dasharray="5,2" d="M635.69,-70C723.34,-70 908.65,-70 1005.52,-70"/>
<polygon fill="#6d28d9" stroke="#6d28d9" stroke-width="2" points="1005.51,-72.63 1013.01,-70 1005.51,-67.38 1005.51,-72.63"/>
</g>
</g>
</svg>
