<?xml version="1.0" encoding="UTF-8" standalone="no"?>
<!DOCTYPE svg PUBLIC "-//W3C//DTD SVG 1.1//EN"
 "http://www.w3.org/Graphics/SVG/1.1/DTD/svg11.dtd">
<!-- Generated by graphviz version 14.1.3 (20260303.0454)
 -->
<!-- Title: DQNWorkflow Pages: 1 -->
<svg width="1447pt" height="197pt"
 viewBox="0.00 0.00 1447.00 197.00" xmlns="http://www.w3.org/2000/svg" xmlns:xlink="http://www.w3.org/1999/xlink">
<g id="graph0" class="graph" transform="scale(1 1) rotate(0) translate(18 178.64)">
<title>DQNWorkflow</title>
<!-- state -->
<g id="node1" class="node">
<title>state</title>
<path fill="#f8fafc" stroke="#334155" d="M121.92,-90.64C121.92,-90.64 12,-90.64 12,-90.64 6,-90.64 0,-84.64 0,-78.64 0,-78.64 0,-61.36 0,-61.36 0,-55.36 6,-49.36 12,-49.36 12,-49.36 121.92,-49.36 121.92,-49.36 127.92,-49.36 133.92,-55.36 133.92,-61.36 133.92,-61.36 133.92,-78.64 133.92,-78.64 133.92,-84.64 127.92,-90.64 121.92,-90.64"/>
<text xml:space="preserve" text-anchor="start" x="30.96" y="-71.6" font-family="Helvetica,sans-Serif" font-size="12.00"> &#160;&#160;&#160;</text>
<text xml:space="preserve" text-anchor="start" x="42.96" y="-71.6" font-family="Helvetica,sans-Serif" font-weight="bold" font-size="12.00">Input state</text>
<text xml:space="preserve" text-anchor="start" x="12.96" y="-59.6" font-family="Helvetica,sans-Serif" font-size="12.00"> &#160;&#160;&#160;4 stacked frames &#160;</text>
</g>
<!-- online -->
<g id="node2" class="node">
<title>online</title>
<path fill="#dbeafe" stroke="#1d4ed8" d="M312.09,-90.64C312.09,-90.64 199.92,-90.64 199.92,-90.64 193.92,-90.64 187.92,-84.64 187.92,-78.64 187.92,-78.64 187.92,-61.36 187.92,-61.36 187.92,-55.36 193.92,-49.36 199.92,-49.36 199.92,-49.36 312.09,-49.36 312.09,-49.36 318.09,-49.36 324.09,-55.36 324.09,-61.36 324.09,-61.36 324.09,-78.64 324.09,-78.64 324.09,-84.64 318.09,-90.64 312.09,-90.64"/>
<text xml:space="preserve" text-anchor="start" x="200.88" y="-71.6" font-family="Helvetica,sans-Serif" font-size="12.00"> &#160;&#160;&#160;</text>
<text xml:space="preserve" text-anchor="start" x="212.88" y="-71.6" font-family="Helvetica,sans-Serif" font-weight="bold" font-size="12.00">Online Q&#45;network</text>
<text xml:space="preserve" text-anchor="start" x="223.38" y="-59.6" font-family="Helvetica,sans-Serif" font-size="12.00"> &#160;&#160;&#160;Q(s,a; w) &#160;</text>
</g>
<!-- state&#45;&gt;online -->
<g id="edge1" class="edge">
<title>state&#45;&gt;online</title>
<path fill="none" stroke="#2563eb" stroke-width="2" d="M134.17,-70C148.12,-70 162.96,-70 177.3,-70"/>
<polygon fill="#2563eb" stroke="#2563eb" stroke-width="2" points="177.1,-72.63 184.6,-70 177.1,-67.38 177.1,-72.63"/>
</g>
<!-- policy -->
<g id="node3" class="node">
<title>policy</title>
<path fill="#eff6ff" stroke="#334155" d="M486.51,-160.64C486.51,-160.64 390.09,-160.64 390.09,-160.64 384.09,-160.64 378.09,-154.64 378.09,-148.64 378.09,-148.64 378.09,-131.36 378.09,-131.36 378.09,-125.36 384.09,-119.36 390.09,-119.36 390.09,-119.36 486.51,-119.36 486.51,-119.36 492.51,-119.36 498.51,-125.36 498.51,-131.36 498.51,-131.36 498.51,-148.64 498.51,-148.64 498.51,-154.64 492.51,-160.64 486.51,-160.64"/>
<text xml:space="preserve" text-anchor="start" x="391.05" y="-141.6" font-family="Helvetica,sans-Serif" font-size="12.00"> &#160;&#160;&#160;ε&#45;greedy action</text>
<text xml:space="preserve" text-anchor="start" x="424.43" y="-129.6" font-family="Helvetica,sans-Serif" font-size="12.00"> &#160;&#160;&#160;a</text>
<text xml:space="preserve" text-anchor="start" x="443.18" y="-129.6" font-family="Helvetica,sans-Serif" baseline-shift="sub" font-size="12.00">t</text>
<text xml:space="preserve" text-anchor="start" x="446.18" y="-129.6" font-family="Helvetica,sans-Serif" font-size="12.00"> &#160;</text>
</g>
<!-- online&#45;&gt;policy -->
<g id="edge2" class="edge">
<title>online&#45;&gt;policy</title>
<path fill="none" stroke="#2563eb" stroke-width="2" d="M311.1,-91C330.62,-98.58 352.84,-107.21 373.14,-115.09"/>
<polygon fill="#2563eb" stroke="#2563eb" stroke-width="2" points="372.17,-117.53 380.11,-117.8 374.07,-112.63 372.17,-117.53"/>
</g>
<!-- sync -->
<g id="node9" class="node">
<title>sync</title>
<path fill="#ede9fe" stroke="#6d28d9" d="M657.18,-90.64C657.18,-90.64 565.26,-90.64 565.26,-90.64 559.26,-90.64 553.26,-84.64 553.26,-78.64 553.26,-78.64 553.26,-61.36 553.26,-61.36 553.26,-55.36 559.26,-49.36 565.26,-49.36 565.26,-49.36 657.18,-49.36 657.18,-49.36 663.18,-49.36 669.18,-55.36 669.18,-61.36 669.18,-61.36 669.18,-78.64 669.18,-78.64 669.18,-84.64 663.18,-90.64 657.18,-90.64"/>
<text xml:space="preserve" text-anchor="start" x="566.22" y="-71.6" font-family="Helvetica,sans-Serif" font-size="12.00"> &#160;&#160;&#160;</text>
<text xml:space="preserve" text-anchor="start" x="578.22" y="-71.6" font-family="Helvetica,sans-Serif" font-weight="bold" font-size="12.00">Periodic sync</text>
<text xml:space="preserve" text-anchor="start" x="585.35" y="-59.6" font-family="Helvetica,sans-Serif" font-size="12.00"> &#160;&#160;&#160;w</text>
<text xml:space="preserve" text-anchor="start" x="606.35" y="-59.6" font-family="Helvetica,sans-Serif" baseline-shift="super" font-size="12.00">&#45;</text>
<text xml:space="preserve" text-anchor="start" x="609.35" y="-59.6" font-family="Helvetica,sans-Serif" font-size="12.00"> = w &#160;</text>
</g>
<!-- online&#45;&gt;sync -->
<g id="edge10" class="edge">
<title>online&#45;&gt;sync</title>
<path fill="none" stroke="#6d28d9" stroke-width="2" stroke-dasharray="5,2" d="M324.27,-70C386.94,-70 479.88,-70 542.64,-70"/>
<polygon fill="#6d28d9" stroke="#6d28d9" stroke-width="2" points="542.31,-72.63 549.81,-70 542.31,-67.38 542.31,-72.63"/>
</g>
<!-- env -->
<g id="node4" class="node">
<title>env</title>
<path fill="#fff7ed" stroke="#c77700" d="M657.93,-159C657.93,-159 564.51,-159 564.51,-159 558.51,-159 552.51,-153 552.51,-147 552.51,-147 552.51,-135 552.51,-135 552.51,-129 558.51,-123 564.51,-123 564.51,-123 657.93,-123 657.93,-123 663.93,-123 669.93,-129 669.93,-135 669.93,-135 669.93,-147 669.93,-147 669.93,-153 663.93,-159 657.93,-159"/>
<text xml:space="preserve" text-anchor="start" x="565.47" y="-136.97" font-family="Helvetica,sans-Serif" font-size="12.00"> &#160;&#160;&#160;</text>
<text xml:space="preserve" text-anchor="start" x="577.47" y="-136.97" font-family="Helvetica,sans-Serif" font-weight="bold" font-size="12.00">Environment</text>
<text xml:space="preserve" text-anchor="start" x="650.97" y="-136.97" font-family="Helvetica,sans-Serif" font-size="12.00"> &#160;</text>
</g>
<!-- policy&#45;&gt;env -->
<g id="edge3" class="edge">
<title>policy&#45;&gt;env</title>
<path fill="none" stroke="#2563eb" stroke-width="2" d="M498.6,-140.35C512.57,-140.43 527.56,-140.52 541.89,-140.6"/>
<polygon fill="#2563eb" stroke="#2563eb" stroke-width="2" points="541.64,-143.22 549.15,-140.64 541.67,-137.97 541.64,-143.22"/>
</g>
<!-- replay -->
<g id="node5" class="node">
<title>replay</title>
<path fill="#ecfccb" stroke="#4d7c0f" d="M832.35,-158C832.35,-158 735.93,-158 735.93,-158 729.93,-158 723.93,-152 723.93,-146 723.93,-146 723.93,-134 723.93,-134 723.93,-128 729.93,-122 735.93,-122 735.93,-122 832.35,-122 832.35,-122 838.35,-122 844.35,-128 844.35,-134 844.35,-134 844.35,-146 844.35,-146 844.35,-152 838.35,-158 832.35,-158"/>
<text xml:space="preserve" text-anchor="start" x="736.89" y="-135.97" font-family="Helvetica,sans-Serif" font-size="12.00"> &#160;&#160;&#160;</text>
<text xml:space="preserve" text-anchor="start" x="748.89" y="-135.97" font-family="Helvetica,sans-Serif" font-weight="bold" font-size="12.00">Replay buffer</text>
<text xml:space="preserve" text-anchor="start" x="825.39" y="-135.97" font-family="Helvetica,sans-Serif" font-size="12.00"> &#160;</text>
</g>
<!-- env&#45;&gt;replay -->
<g id="edge4" class="edge">
<title>env&#45;&gt;replay</title>
<path fill="none" stroke="#2563eb" stroke-width="2" d="M670.09,-140.66C683.96,-140.58 698.92,-140.49 713.27,-140.41"/>
<polygon fill="#2563eb" stroke="#2563eb" stroke-width="2" points="713.07,-143.04 720.56,-140.37 713.04,-137.79 713.07,-143.04"/>
</g>
<!-- sample -->
<g id="node6" class="node">
<title>sample</title>
<path fill="#ecfccb" stroke="#4d7c0f" d="M1032.27,-157C1032.27,-157 910.35,-157 910.35,-157 904.35,-157 898.35,-151 898.35,-145 898.35,-145 898.35,-133 898.35,-133 898.35,-127 904.35,-121 910.35,-121 910.35,-121 1032.27,-121 1032.27,-121 1038.27,-121 1044.27,-127 1044.27,-133 1044.27,-133 1044.27,-145 1044.27,-145 1044.27,-151 1038.27,-157 1032.27,-157"/>
<text xml:space="preserve" text-anchor="start" x="911.31" y="-134.97" font-family="Helvetica,sans-Serif" font-size="12.00"> &#160;&#160;&#160;</text>
<text xml:space="preserve" text-anchor="start" x="923.31" y="-134.97" font-family="Helvetica,sans-Serif" font-weight="bold" font-size="12.00">Sample minibatch</text>
<text xml:space="preserve" text-anchor="start" x="1025.31" y="-134.97" font-family="Helvetica,sans-Serif" font-size="12.00"> &#160;</text>
</g>
<!-- replay&#45;&gt;sample -->
<g id="edge5" class="edge">
<title>replay&#45;&gt;sample</title>
<path fill="none" stroke="#2563eb" stroke-width="2" d="M844.75,-139.68C858.36,-139.6 873.07,-139.53 887.46,-139.45"/>
<polygon fill="#2563eb" stroke="#2563eb" stroke-width="2" points="887.34,-142.07 894.83,-139.41 887.32,-136.82 887.34,-142.07"/>
</g>
<!-- target -->
<g id="node7" class="node">
<title>target</title>
<path fill="#ede9fe" stroke="#6d28d9" d="M1208.19,-90.64C1208.19,-90.64 1110.27,-90.64 1110.27,-90.64 1104.27,-90.64 1098.27,-84.64 1098.27,-78.64 1098.27,-78.64 1098.27,-61.36 1098.27,-61.36 1098.27,-55.36 1104.27,-49.36 1110.27,-49.36 1110.27,-49.36 1208.19,-49.36 1208.19,-49.36 1214.19,-49.36 1220.19,-55.36 1220.19,-61.36 1220.19,-61.36 1220.19,-78.64 1220.19,-78.64 1220.19,-84.64 1214.19,-90.64 1208.19,-90.64"/>
<text xml:space="preserve" text-anchor="start" x="1111.23" y="-71.6" font-family="Helvetica,sans-Serif" font-size="12.00"> &#160;&#160;&#160;</text>
<text xml:space="preserve" text-anchor="start" x="1123.23" y="-71.6" font-family="Helvetica,sans-Serif" font-weight="bold" font-size="12.00">Target network</text>
<text xml:space="preserve" text-anchor="start" x="1125.11" y="-59.6" font-family="Helvetica,sans-Serif" font-size="12.00"> &#160;&#160;&#160;Q(s,a; w</text>
<text xml:space="preserve" text-anchor="start" x="1180.61" y="-59.6" font-family="Helvetica,sans-Serif" baseline-shift="super" font-size="12.00">&#45;</text>
<text xml:space="preserve" text-anchor="start" x="1183.61" y="-59.6" font-family="Helvetica,sans-Serif" font-size="12.00">) &#160;</text>
</g>
<!-- sample&#45;&gt;target -->
<g id="edge6" class="edge">
<title>sample&#45;&gt;target</title>
<path fill="none" stroke="#2563eb" stroke-width="2" d="M1022.13,-120.51C1043.5,-112.58 1068.77,-103.2 1091.7,-94.69"/>
<polygon fill="#2563eb" stroke="#2563eb" stroke-width="2" points="1092.41,-97.23 1098.53,-92.16 1090.58,-92.31 1092.41,-97.23"/>
</g>
<!-- loss -->
<g id="node8" class="node">
<title>loss</title>
<path fill="#fce7f3" stroke="#be185d" d="M1399.11,-90.64C1399.11,-90.64 1286.19,-90.64 1286.19,-90.64 1280.19,-90.64 1274.19,-84.64 1274.19,-78.64 1274.19,-78.64 1274.19,-61.36 1274.19,-61.36 1274.19,-55.36 1280.19,-49.36 1286.19,-49.36 1286.19,-49.36 1399.11,-49.36 1399.11,-49.36 1405.11,-49.36 1411.11,-55.36 1411.11,-61.36 1411.11,-61.36 1411.11,-78.64 1411.11,-78.64 1411.11,-84.64 1405.11,-90.64 1399.11,-90.64"/>
<text xml:space="preserve" text-anchor="start" x="1287.15" y="-71.6" font-family="Helvetica,sans-Serif" font-size="12.00"> &#160;&#160;&#160;</text>
<text xml:space="preserve" text-anchor="start" x="1299.15" y="-71.6" font-family="Helvetica,sans-Serif" font-weight="bold" font-size="12.00">Squared TD error</text>
<text xml:space="preserve" text-anchor="start" x="1314.53" y="-59.6" font-family="Helvetica,sans-Serif" font-size="12.00"> &#160;&#160;&#160;loss(w) &#160;</text>
</g>
<!-- target&#45;&gt;loss -->
<g id="edge7" class="edge">
<title>target&#45;&gt;loss</title>
<path fill="none" stroke="#2563eb" stroke-width="2" d="M1220.64,-58.62C1234.41,-58.04 1249.23,-57.87 1263.62,-58.1"/>
<polygon fill="#2563eb" stroke="#2563eb" stroke-width="2" points="1263.41,-60.73 1270.97,-58.28 1263.53,-55.48 1263.41,-60.73"/>
</g>
<!-- target&#45;&gt;loss -->
<g id="edge9" class="edge">
<title>target&#45;&gt;loss</title>
<path fill="none" stroke="#2563eb" stroke-width="2" stroke-dasharray="5,2" d="M1220.64,-81.38C1237.75,-82.1 1256.49,-82.19 1274,-81.65"/>
</g>
<!-- loss&#45;&gt;online -->
<g id="edge8" class="edge">
<title>loss&#45;&gt;online</title>
<path fill="none" stroke="#2563eb" stroke-width="2" d="M1279.44,-48.92C1260.57,-43.1 1239.68,-37.24 1220.19,-33 1111.58,-9.39 1083.45,0 972.31,0 610.22,0 610.22,0 610.22,0 513.05,0 403.66,-25.81 332.71,-46.08"/>
<polygon fill="#2563eb" stroke="#2563eb" stroke-width="2" points="332.34,-43.46 325.87,-48.06 333.8,-48.5 332.34,-43.46"/>
</g>
<!-- sync&#45;&gt;target -->
<g id="edge11" class="edge">
<title>sync&#45;&gt;target</title>
<path fill="none" stroke="#6d28d9" stroke-width="2" stroke-dasharray="5,2" d="M669.62,-70C770.28,-70 978.31,-70 1087.61,-70"/>
<polygon fill="#6d28d9" stroke="#6d28d9" stroke-width="2" points="1087.35,-72.63 1094.85,-70 1087.35,-67.38 1087.35,-72.63"/>
</g>
</g>
</svg>
