<?xml version="1.0" encoding="UTF-8" standalone="no"?>
<!DOCTYPE svg PUBLIC "-//W3C//DTD SVG 1.1//EN"
 "http://www.w3.org/Graphics/SVG/1.1/DTD/svg11.dtd">
<!-- Generated by graphviz version 14.1.3 (20260303.0454)
 -->
<!-- Title: EvaluationWorkflow Pages: 1 -->
<svg width="1205pt" height="77pt"
 viewBox="0.00 0.00 1205.00 77.00" xmlns="http://www.w3.org/2000/svg" xmlns:xlink="http://www.w3.org/1999/xlink">
<g id="graph0" class="graph" transform="scale(1 1) rotate(0) translate(18 59.28)">
<title>EvaluationWorkflow</title>
<!-- train -->
<g id="node1" class="node">
<title>train</title>
<path fill="#dbeafe" stroke="#1d4ed8" d="M191.67,-41.28C191.67,-41.28 12,-41.28 12,-41.28 6,-41.28 0,-35.28 0,-29.28 0,-29.28 0,-12 0,-12 0,-6 6,0 12,0 12,0 191.67,0 191.67,0 197.67,0 203.67,-6 203.67,-12 203.67,-12 203.67,-29.28 203.67,-29.28 203.67,-35.28 197.67,-41.28 191.67,-41.28"/>
<text xml:space="preserve" text-anchor="start" x="62.84" y="-22.24" font-family="Helvetica,sans-Serif" font-size="12.00"> &#160;&#160;&#160;</text>
<text xml:space="preserve" text-anchor="start" x="74.84" y="-22.24" font-family="Helvetica,sans-Serif" font-weight="bold" font-size="12.00">Train policy</text>
<text xml:space="preserve" text-anchor="start" x="12.96" y="-10.24" font-family="Helvetica,sans-Serif" font-size="12.00"> &#160;&#160;&#160;often with exploration enabled &#160;</text>
</g>
<!-- checkpoint -->
<g id="node2" class="node">
<title>checkpoint</title>
<path fill="#ede9fe" stroke="#7c3aed" d="M432.84,-41.28C432.84,-41.28 269.67,-41.28 269.67,-41.28 263.67,-41.28 257.67,-35.28 257.67,-29.28 257.67,-29.28 257.67,-12 257.67,-12 257.67,-6 263.67,0 269.67,0 269.67,0 432.84,0 432.84,0 438.84,0 444.84,-6 444.84,-12 444.84,-12 444.84,-29.28 444.84,-29.28 444.84,-35.28 438.84,-41.28 432.84,-41.28"/>
<text xml:space="preserve" text-anchor="start" x="293.13" y="-22.24" font-family="Helvetica,sans-Serif" font-size="12.00"> &#160;&#160;&#160;</text>
<text xml:space="preserve" text-anchor="start" x="305.13" y="-22.24" font-family="Helvetica,sans-Serif" font-weight="bold" font-size="12.00">Checkpoint model</text>
<text xml:space="preserve" text-anchor="start" x="270.63" y="-10.24" font-family="Helvetica,sans-Serif" font-size="12.00"> &#160;&#160;&#160;fixed parameters for testing &#160;</text>
</g>
<!-- train&#45;&gt;checkpoint -->
<g id="edge1" class="edge">
<title>train&#45;&gt;checkpoint</title>
<path fill="none" stroke="#2563eb" stroke-width="2" d="M203.83,-20.64C218.13,-20.64 232.85,-20.64 247.19,-20.64"/>
<polygon fill="#2563eb" stroke="#2563eb" stroke-width="2" points="247.02,-23.27 254.52,-20.64 247.02,-18.02 247.02,-23.27"/>
</g>
<!-- eval -->
<g id="node3" class="node">
<title>eval</title>
<path fill="#fff7ed" stroke="#c77700" d="M632.76,-41.28C632.76,-41.28 510.84,-41.28 510.84,-41.28 504.84,-41.28 498.84,-35.28 498.84,-29.28 498.84,-29.28 498.84,-12 498.84,-12 498.84,-6 504.84,0 510.84,0 510.84,0 632.76,0 632.76,0 638.76,0 644.76,-6 644.76,-12 644.76,-12 644.76,-29.28 644.76,-29.28 644.76,-35.28 638.76,-41.28 632.76,-41.28"/>
<text xml:space="preserve" text-anchor="start" x="522.3" y="-22.24" font-family="Helvetica,sans-Serif" font-size="12.00"> &#160;&#160;&#160;</text>
<text xml:space="preserve" text-anchor="start" x="534.3" y="-22.24" font-family="Helvetica,sans-Serif" font-weight="bold" font-size="12.00">Evaluate policy</text>
<text xml:space="preserve" text-anchor="start" x="511.8" y="-10.24" font-family="Helvetica,sans-Serif" font-size="12.00"> &#160;&#160;&#160;no training updates &#160;</text>
</g>
<!-- checkpoint&#45;&gt;eval -->
<g id="edge2" class="edge">
<title>checkpoint&#45;&gt;eval</title>
<path fill="none" stroke="#2563eb" stroke-width="2" d="M445.25,-20.64C459.42,-20.64 473.96,-20.64 487.89,-20.64"/>
<polygon fill="#2563eb" stroke="#2563eb" stroke-width="2" points="487.88,-23.27 495.38,-20.64 487.88,-18.02 487.88,-23.27"/>
</g>
<!-- seeds -->
<g id="node4" class="node">
<title>seeds</title>
<path fill="#ecfccb" stroke="#4d7c0f" d="M844.68,-41.28C844.68,-41.28 710.76,-41.28 710.76,-41.28 704.76,-41.28 698.76,-35.28 698.76,-29.28 698.76,-29.28 698.76,-12 698.76,-12 698.76,-6 704.76,0 710.76,0 710.76,0 844.68,0 844.68,0 850.68,0 856.68,-6 856.68,-12 856.68,-12 856.68,-29.28 856.68,-29.28 856.68,-35.28 850.68,-41.28 844.68,-41.28"/>
<text xml:space="preserve" text-anchor="start" x="711.72" y="-22.24" font-family="Helvetica,sans-Serif" font-size="12.00"> &#160;&#160;&#160;</text>
<text xml:space="preserve" text-anchor="start" x="723.72" y="-22.24" font-family="Helvetica,sans-Serif" font-weight="bold" font-size="12.00">Repeat across seeds</text>
<text xml:space="preserve" text-anchor="start" x="721.85" y="-10.24" font-family="Helvetica,sans-Serif" font-size="12.00"> &#160;&#160;&#160;capture variability &#160;</text>
</g>
<!-- eval&#45;&gt;seeds -->
<g id="edge3" class="edge">
<title>eval&#45;&gt;seeds</title>
<path fill="none" stroke="#2563eb" stroke-width="2" d="M644.98,-20.64C658.9,-20.64 673.64,-20.64 688.01,-20.64"/>
<polygon fill="#2563eb" stroke="#2563eb" stroke-width="2" points="687.87,-23.27 695.37,-20.64 687.87,-18.02 687.87,-23.27"/>
</g>
<!-- metrics -->
<g id="node5" class="node">
<title>metrics</title>
<path fill="#fce7f3" stroke="#be185d" d="M1157.1,-41.28C1157.1,-41.28 922.68,-41.28 922.68,-41.28 916.68,-41.28 910.68,-35.28 910.68,-29.28 910.68,-29.28 910.68,-12 910.68,-12 910.68,-6 916.68,0 922.68,0 922.68,0 1157.1,0 1157.1,0 1163.1,0 1169.1,-6 1169.1,-12 1169.1,-12 1169.1,-29.28 1169.1,-29.28 1169.1,-35.28 1163.1,-41.28 1157.1,-41.28"/>
<text xml:space="preserve" text-anchor="start" x="981.39" y="-22.24" font-family="Helvetica,sans-Serif" font-size="12.00"> &#160;&#160;&#160;</text>
<text xml:space="preserve" text-anchor="start" x="993.39" y="-22.24" font-family="Helvetica,sans-Serif" font-weight="bold" font-size="12.00">Aggregate metrics</text>
<text xml:space="preserve" text-anchor="start" x="923.64" y="-10.24" font-family="Helvetica,sans-Serif" font-size="12.00"> &#160;&#160;&#160;mean, spread, sample and compute cost &#160;</text>
</g>
<!-- seeds&#45;&gt;metrics -->
<g id="edge4" class="edge">
<title>seeds&#45;&gt;metrics</title>
<path fill="none" stroke="#2563eb" stroke-width="2" d="M857.13,-20.64C870.87,-20.64 885.52,-20.64 900.33,-20.64"/>
<polygon fill="#2563eb" stroke="#2563eb" stroke-width="2" points="900.06,-23.27 907.56,-20.64 900.06,-18.02 900.06,-23.27"/>
</g>
</g>
</svg>
