<?xml version="1.0" encoding="UTF-8" standalone="no"?>
<!DOCTYPE svg PUBLIC "-//W3C//DTD SVG 1.1//EN"
 "http://www.w3.org/Graphics/SVG/1.1/DTD/svg11.dtd">
<!-- Generated by graphviz version 14.1.3 (20260303.0454)
 -->
<!-- Title: PolicyGradientEstimator Pages: 1 -->
<svg width="863pt" height="185pt"
 viewBox="0.00 0.00 863.00 185.00" xmlns="http://www.w3.org/2000/svg" xmlns:xlink="http://www.w3.org/1999/xlink">
<g id="graph0" class="graph" transform="scale(1 1) rotate(0) translate(18 167.28)">
<title>PolicyGradientEstimator</title>
<!-- policy -->
<g id="node1" class="node">
<title>policy</title>
<path fill="#dbeafe" stroke="#1d4ed8" d="M109.92,-41.28C109.92,-41.28 12,-41.28 12,-41.28 6,-41.28 0,-35.28 0,-29.28 0,-29.28 0,-12 0,-12 0,-6 6,0 12,0 12,0 109.92,0 109.92,0 115.92,0 121.92,-6 121.92,-12 121.92,-12 121.92,-29.28 121.92,-29.28 121.92,-35.28 115.92,-41.28 109.92,-41.28"/>
<text xml:space="preserve" text-anchor="start" x="12.96" y="-22.24" font-family="Helvetica,sans-Serif" font-size="12.00"> &#160;&#160;&#160;</text>
<text xml:space="preserve" text-anchor="start" x="24.96" y="-22.24" font-family="Helvetica,sans-Serif" font-weight="bold" font-size="12.00">Policy network</text>
<text xml:space="preserve" text-anchor="start" x="30.96" y="-10.24" font-family="Helvetica,sans-Serif" font-size="12.00"> &#160;&#160;&#160;π</text>
<text xml:space="preserve" text-anchor="start" x="49.71" y="-10.24" font-family="Helvetica,sans-Serif" baseline-shift="sub" font-size="12.00">θ</text>
<text xml:space="preserve" text-anchor="start" x="55.71" y="-10.24" font-family="Helvetica,sans-Serif" font-size="12.00">(a | s) &#160;</text>
</g>
<!-- rollout -->
<g id="node2" class="node">
<title>rollout</title>
<path fill="#fff7ed" stroke="#c77700" d="M307.34,-76.28C307.34,-76.28 183.92,-76.28 183.92,-76.28 177.92,-76.28 171.92,-70.28 171.92,-64.28 171.92,-64.28 171.92,-47 171.92,-47 171.92,-41 177.92,-35 183.92,-35 183.92,-35 307.34,-35 307.34,-35 313.34,-35 319.34,-41 319.34,-47 319.34,-47 319.34,-64.28 319.34,-64.28 319.34,-70.28 313.34,-76.28 307.34,-76.28"/>
<text xml:space="preserve" text-anchor="start" x="184.88" y="-57.24" font-family="Helvetica,sans-Serif" font-size="12.00"> &#160;&#160;&#160;</text>
<text xml:space="preserve" text-anchor="start" x="196.88" y="-57.24" font-family="Helvetica,sans-Serif" font-weight="bold" font-size="12.00">Sample trajectories</text>
<text xml:space="preserve" text-anchor="start" x="195.75" y="-45.24" font-family="Helvetica,sans-Serif" font-size="12.00"> &#160;&#160;&#160;collect (S, A, R) &#160;</text>
</g>
<!-- policy&#45;&gt;rollout -->
<g id="edge1" class="edge">
<title>policy&#45;&gt;rollout</title>
<path fill="none" stroke="#2563eb" stroke-width="2" d="M122.28,-32.2C134.87,-34.61 148.35,-37.19 161.59,-39.73"/>
<polygon fill="#2563eb" stroke="#2563eb" stroke-width="2" points="160.82,-42.25 168.68,-41.09 161.81,-37.1 160.82,-42.25"/>
</g>
<!-- returns -->
<g id="node3" class="node">
<title>returns</title>
<path fill="#ecfccb" stroke="#4d7c0f" d="M563.26,-149.28C563.26,-149.28 381.34,-149.28 381.34,-149.28 375.34,-149.28 369.34,-143.28 369.34,-137.28 369.34,-137.28 369.34,-120 369.34,-120 369.34,-114 375.34,-108 381.34,-108 381.34,-108 563.26,-108 563.26,-108 569.26,-108 575.26,-114 575.26,-120 575.26,-120 575.26,-137.28 575.26,-137.28 575.26,-143.28 569.26,-149.28 563.26,-149.28"/>
<text xml:space="preserve" text-anchor="start" x="382.3" y="-130.24" font-family="Helvetica,sans-Serif" font-size="12.00"> &#160;&#160;&#160;</text>
<text xml:space="preserve" text-anchor="start" x="394.3" y="-130.24" font-family="Helvetica,sans-Serif" font-weight="bold" font-size="12.00">Compute return or advantage</text>
<text xml:space="preserve" text-anchor="start" x="433.67" y="-118.24" font-family="Helvetica,sans-Serif" font-size="12.00"> &#160;&#160;&#160;G</text>
<text xml:space="preserve" text-anchor="start" x="454.67" y="-118.24" font-family="Helvetica,sans-Serif" baseline-shift="sub" font-size="12.00">t</text>
<text xml:space="preserve" text-anchor="start" x="457.67" y="-118.24" font-family="Helvetica,sans-Serif" font-size="12.00"> or A&#45;hat</text>
<text xml:space="preserve" text-anchor="start" x="501.92" y="-118.24" font-family="Helvetica,sans-Serif" baseline-shift="sub" font-size="12.00">t</text>
<text xml:space="preserve" text-anchor="start" x="504.92" y="-118.24" font-family="Helvetica,sans-Serif" font-size="12.00"> &#160;</text>
</g>
<!-- rollout&#45;&gt;returns -->
<g id="edge2" class="edge">
<title>rollout&#45;&gt;returns</title>
<path fill="none" stroke="#2563eb" stroke-width="2" d="M311.61,-76.75C338.16,-85.38 369.03,-95.41 396.51,-104.34"/>
<polygon fill="#2563eb" stroke="#2563eb" stroke-width="2" points="395.64,-106.82 403.58,-106.64 397.26,-101.82 395.64,-106.82"/>
</g>
<!-- score -->
<g id="node4" class="node">
<title>score</title>
<path fill="#ede9fe" stroke="#7c3aed" d="M535.51,-76.28C535.51,-76.28 409.09,-76.28 409.09,-76.28 403.09,-76.28 397.09,-70.28 397.09,-64.28 397.09,-64.28 397.09,-47 397.09,-47 397.09,-41 403.09,-35 409.09,-35 409.09,-35 535.51,-35 535.51,-35 541.51,-35 547.51,-41 547.51,-47 547.51,-47 547.51,-64.28 547.51,-64.28 547.51,-70.28 541.51,-76.28 535.51,-76.28"/>
<text xml:space="preserve" text-anchor="start" x="410.05" y="-57.24" font-family="Helvetica,sans-Serif" font-size="12.00"> &#160;&#160;&#160;</text>
<text xml:space="preserve" text-anchor="start" x="422.05" y="-57.24" font-family="Helvetica,sans-Serif" font-weight="bold" font-size="12.00">Score function term</text>
<text xml:space="preserve" text-anchor="start" x="414.17" y="-45.24" font-family="Helvetica,sans-Serif" font-size="12.00"> &#160;&#160;&#160;grad log π</text>
<text xml:space="preserve" text-anchor="start" x="479.42" y="-45.24" font-family="Helvetica,sans-Serif" baseline-shift="sub" font-size="12.00">θ</text>
<text xml:space="preserve" text-anchor="start" x="485.42" y="-45.24" font-family="Helvetica,sans-Serif" font-size="12.00">(A</text>
<text xml:space="preserve" text-anchor="start" x="497.42" y="-45.24" font-family="Helvetica,sans-Serif" baseline-shift="sub" font-size="12.00">t</text>
<text xml:space="preserve" text-anchor="start" x="500.42" y="-45.24" font-family="Helvetica,sans-Serif" font-size="12.00"> | S</text>
<text xml:space="preserve" text-anchor="start" x="517.67" y="-45.24" font-family="Helvetica,sans-Serif" baseline-shift="sub" font-size="12.00">t</text>
<text xml:space="preserve" text-anchor="start" x="520.67" y="-45.24" font-family="Helvetica,sans-Serif" font-size="12.00">) &#160;</text>
</g>
<!-- rollout&#45;&gt;score -->
<g id="edge5" class="edge">
<title>rollout&#45;&gt;score</title>
<path fill="none" stroke="#2563eb" stroke-width="2" d="M319.57,-55.64C340.92,-55.64 364.44,-55.64 386.46,-55.64"/>
<polygon fill="#2563eb" stroke="#2563eb" stroke-width="2" points="386.27,-58.27 393.77,-55.64 386.27,-53.02 386.27,-58.27"/>
</g>
<!-- update -->
<g id="node5" class="node">
<title>update</title>
<path fill="#fce7f3" stroke="#be185d" d="M814.68,-76.28C814.68,-76.28 637.26,-76.28 637.26,-76.28 631.26,-76.28 625.26,-70.28 625.26,-64.28 625.26,-64.28 625.26,-47 625.26,-47 625.26,-41 631.26,-35 637.26,-35 637.26,-35 814.68,-35 814.68,-35 820.68,-35 826.68,-41 826.68,-47 826.68,-47 826.68,-64.28 826.68,-64.28 826.68,-70.28 820.68,-76.28 814.68,-76.28"/>
<text xml:space="preserve" text-anchor="start" x="680.97" y="-57.24" font-family="Helvetica,sans-Serif" font-size="12.00"> &#160;&#160;&#160;</text>
<text xml:space="preserve" text-anchor="start" x="692.97" y="-57.24" font-family="Helvetica,sans-Serif" font-weight="bold" font-size="12.00">Policy update</text>
<text xml:space="preserve" text-anchor="start" x="638.22" y="-45.24" font-family="Helvetica,sans-Serif" font-size="12.00"> &#160;&#160;&#160;weight by return or advantage &#160;</text>
</g>
<!-- returns&#45;&gt;update -->
<g id="edge3" class="edge">
<title>returns&#45;&gt;update</title>
<path fill="none" stroke="#2563eb" stroke-width="2" d="M546.09,-107.53C576.22,-98.79 611.32,-88.61 642.4,-79.59"/>
<polygon fill="#2563eb" stroke="#2563eb" stroke-width="2" points="642.96,-82.16 649.43,-77.55 641.5,-77.12 642.96,-82.16"/>
</g>
<!-- score&#45;&gt;update -->
<g id="edge6" class="edge">
<title>score&#45;&gt;update</title>
<path fill="none" stroke="#2563eb" stroke-width="2" d="M547.79,-55.64C568.78,-55.64 592.07,-55.64 614.68,-55.64"/>
<polygon fill="#2563eb" stroke="#2563eb" stroke-width="2" points="614.49,-58.27 621.99,-55.64 614.49,-53.02 614.49,-58.27"/>
</g>
<!-- update&#45;&gt;policy -->
<g id="edge4" class="edge">
<title>update&#45;&gt;policy</title>
<path fill="none" stroke="#2563eb" stroke-width="2" d="M654.8,-34.57C629.92,-28.1 601.57,-21.84 575.26,-18.64 418.05,0.5 231.75,-7.9 132.51,-14.82"/>
<polygon fill="#2563eb" stroke="#2563eb" stroke-width="2" points="132.62,-12.18 125.32,-15.34 132.99,-17.42 132.62,-12.18"/>
</g>
</g>
</svg>
