<?xml version="1.0" encoding="UTF-8" standalone="no"?>
<!DOCTYPE svg PUBLIC "-//W3C//DTD SVG 1.1//EN"
 "http://www.w3.org/Graphics/SVG/1.1/DTD/svg11.dtd">
<!-- Generated by graphviz version 14.1.3 (20260303.0454)
 -->
<!-- Title: PPOClip Pages: 1 -->
<svg width="992pt" height="150pt"
 viewBox="0.00 0.00 992.00 150.00" xmlns="http://www.w3.org/2000/svg" xmlns:xlink="http://www.w3.org/1999/xlink">
<g id="graph0" class="graph" transform="scale(1 1) rotate(0) translate(18 132.28)">
<title>PPOClip</title>
<!-- oldpolicy -->
<g id="node1" class="node">
<title>oldpolicy</title>
<path fill="#dbeafe" stroke="#1d4ed8" d="M144.42,-77.28C144.42,-77.28 12,-77.28 12,-77.28 6,-77.28 0,-71.28 0,-65.28 0,-65.28 0,-48 0,-48 0,-42 6,-36 12,-36 12,-36 144.42,-36 144.42,-36 150.42,-36 156.42,-42 156.42,-48 156.42,-48 156.42,-65.28 156.42,-65.28 156.42,-71.28 150.42,-77.28 144.42,-77.28"/>
<text xml:space="preserve" text-anchor="start" x="43.71" y="-58.24" font-family="Helvetica,sans-Serif" font-size="12.00"> &#160;&#160;&#160;</text>
<text xml:space="preserve" text-anchor="start" x="55.71" y="-58.24" font-family="Helvetica,sans-Serif" font-weight="bold" font-size="12.00">Old policy</text>
<text xml:space="preserve" text-anchor="start" x="12.96" y="-46.24" font-family="Helvetica,sans-Serif" font-size="12.00"> &#160;&#160;&#160;collect on&#45;policy data &#160;</text>
</g>
<!-- ratio -->
<g id="node2" class="node">
<title>ratio</title>
<path fill="#ede9fe" stroke="#7c3aed" d="M335.47,-114.28C335.47,-114.28 228.55,-114.28 228.55,-114.28 222.55,-114.28 216.55,-108.28 216.55,-102.28 216.55,-102.28 216.55,-85 216.55,-85 216.55,-79 222.55,-73 228.55,-73 228.55,-73 335.47,-73 335.47,-73 341.47,-73 347.47,-79 347.47,-85 347.47,-85 347.47,-102.28 347.47,-102.28 347.47,-108.28 341.47,-114.28 335.47,-114.28"/>
<text xml:space="preserve" text-anchor="start" x="229.51" y="-95.24" font-family="Helvetica,sans-Serif" font-size="12.00"> &#160;&#160;&#160;</text>
<text xml:space="preserve" text-anchor="start" x="241.51" y="-95.24" font-family="Helvetica,sans-Serif" font-weight="bold" font-size="12.00">Importance ratio</text>
<text xml:space="preserve" text-anchor="start" x="235.13" y="-83.24" font-family="Helvetica,sans-Serif" font-size="12.00"> &#160;&#160;&#160;r</text>
<text xml:space="preserve" text-anchor="start" x="250.88" y="-83.24" font-family="Helvetica,sans-Serif" baseline-shift="sub" font-size="12.00">t</text>
<text xml:space="preserve" text-anchor="start" x="253.88" y="-83.24" font-family="Helvetica,sans-Serif" font-size="12.00">(θ) = π</text>
<text xml:space="preserve" text-anchor="start" x="288.38" y="-83.24" font-family="Helvetica,sans-Serif" baseline-shift="sub" font-size="12.00">θ</text>
<text xml:space="preserve" text-anchor="start" x="294.38" y="-83.24" font-family="Helvetica,sans-Serif" font-size="12.00"> / π</text>
<text xml:space="preserve" text-anchor="start" x="310.13" y="-83.24" font-family="Helvetica,sans-Serif" baseline-shift="sub" font-size="12.00">old</text>
<text xml:space="preserve" text-anchor="start" x="322.88" y="-83.24" font-family="Helvetica,sans-Serif" font-size="12.00"> &#160;</text>
</g>
<!-- oldpolicy&#45;&gt;ratio -->
<g id="edge1" class="edge">
<title>oldpolicy&#45;&gt;ratio</title>
<path fill="none" stroke="#2563eb" stroke-width="2" d="M156.65,-70.84C172.94,-73.83 190.1,-76.97 206.29,-79.94"/>
<polygon fill="#2563eb" stroke="#2563eb" stroke-width="2" points="205.4,-82.45 213.25,-81.22 206.35,-77.28 205.4,-82.45"/>
</g>
<!-- advantage -->
<g id="node3" class="node">
<title>advantage</title>
<path fill="#ecfccb" stroke="#4d7c0f" d="M345.59,-41.28C345.59,-41.28 218.42,-41.28 218.42,-41.28 212.42,-41.28 206.42,-35.28 206.42,-29.28 206.42,-29.28 206.42,-12 206.42,-12 206.42,-6 212.42,0 218.42,0 218.42,0 345.59,0 345.59,0 351.59,0 357.59,-6 357.59,-12 357.59,-12 357.59,-29.28 357.59,-29.28 357.59,-35.28 351.59,-41.28 345.59,-41.28"/>
<text xml:space="preserve" text-anchor="start" x="219.38" y="-22.24" font-family="Helvetica,sans-Serif" font-size="12.00"> &#160;&#160;&#160;</text>
<text xml:space="preserve" text-anchor="start" x="231.38" y="-22.24" font-family="Helvetica,sans-Serif" font-weight="bold" font-size="12.00">Advantage estimate</text>
<text xml:space="preserve" text-anchor="start" x="257.63" y="-10.24" font-family="Helvetica,sans-Serif" font-size="12.00"> &#160;&#160;&#160;A&#45;hat</text>
<text xml:space="preserve" text-anchor="start" x="297.38" y="-10.24" font-family="Helvetica,sans-Serif" baseline-shift="sub" font-size="12.00">t</text>
<text xml:space="preserve" text-anchor="start" x="300.38" y="-10.24" font-family="Helvetica,sans-Serif" font-size="12.00"> &#160;</text>
</g>
<!-- oldpolicy&#45;&gt;advantage -->
<g id="edge2" class="edge">
<title>oldpolicy&#45;&gt;advantage</title>
<path fill="none" stroke="#2563eb" stroke-width="2" d="M156.65,-42.82C169.46,-40.54 182.79,-38.16 195.78,-35.84"/>
<polygon fill="#2563eb" stroke="#2563eb" stroke-width="2" points="196.19,-38.44 203.12,-34.54 195.27,-33.27 196.19,-38.44"/>
</g>
<!-- unclipped -->
<g id="node4" class="node">
<title>unclipped</title>
<path fill="#fff7ed" stroke="#c77700" d="M546.76,-77.28C546.76,-77.28 419.59,-77.28 419.59,-77.28 413.59,-77.28 407.59,-71.28 407.59,-65.28 407.59,-65.28 407.59,-48 407.59,-48 407.59,-42 413.59,-36 419.59,-36 419.59,-36 546.76,-36 546.76,-36 552.76,-36 558.76,-42 558.76,-48 558.76,-48 558.76,-65.28 558.76,-65.28 558.76,-71.28 552.76,-77.28 546.76,-77.28"/>
<text xml:space="preserve" text-anchor="start" x="420.55" y="-58.24" font-family="Helvetica,sans-Serif" font-size="12.00"> &#160;&#160;&#160;</text>
<text xml:space="preserve" text-anchor="start" x="432.55" y="-58.24" font-family="Helvetica,sans-Serif" font-weight="bold" font-size="12.00">Unclipped objective</text>
<text xml:space="preserve" text-anchor="start" x="446.05" y="-46.24" font-family="Helvetica,sans-Serif" font-size="12.00"> &#160;&#160;&#160;r</text>
<text xml:space="preserve" text-anchor="start" x="461.8" y="-46.24" font-family="Helvetica,sans-Serif" baseline-shift="sub" font-size="12.00">t</text>
<text xml:space="preserve" text-anchor="start" x="464.8" y="-46.24" font-family="Helvetica,sans-Serif" font-size="12.00">(θ) A&#45;hat</text>
<text xml:space="preserve" text-anchor="start" x="511.3" y="-46.24" font-family="Helvetica,sans-Serif" baseline-shift="sub" font-size="12.00">t</text>
<text xml:space="preserve" text-anchor="start" x="514.3" y="-46.24" font-family="Helvetica,sans-Serif" font-size="12.00"> &#160;</text>
</g>
<!-- ratio&#45;&gt;unclipped -->
<g id="edge3" class="edge">
<title>ratio&#45;&gt;unclipped</title>
<path fill="none" stroke="#2563eb" stroke-width="2" d="M347.95,-81.58C363.64,-78.66 380.66,-75.5 397.13,-72.44"/>
<polygon fill="#2563eb" stroke="#2563eb" stroke-width="2" points="397.42,-75.05 404.32,-71.1 396.46,-69.89 397.42,-75.05"/>
</g>
<!-- advantage&#45;&gt;unclipped -->
<g id="edge4" class="edge">
<title>advantage&#45;&gt;unclipped</title>
<path fill="none" stroke="#2563eb" stroke-width="2" d="M358.02,-34.2C370.72,-36.49 383.99,-38.89 396.94,-41.23"/>
<polygon fill="#2563eb" stroke="#2563eb" stroke-width="2" points="396.4,-43.8 404.25,-42.56 397.34,-38.64 396.4,-43.8"/>
</g>
<!-- clipped -->
<g id="node5" class="node">
<title>clipped</title>
<path fill="#fef3c7" stroke="#b45309" d="M737.43,-77.28C737.43,-77.28 620.76,-77.28 620.76,-77.28 614.76,-77.28 608.76,-71.28 608.76,-65.28 608.76,-65.28 608.76,-48 608.76,-48 608.76,-42 614.76,-36 620.76,-36 620.76,-36 737.43,-36 737.43,-36 743.43,-36 749.43,-42 749.43,-48 749.43,-48 749.43,-65.28 749.43,-65.28 749.43,-71.28 743.43,-77.28 737.43,-77.28"/>
<text xml:space="preserve" text-anchor="start" x="621.72" y="-58.24" font-family="Helvetica,sans-Serif" font-size="12.00"> &#160;&#160;&#160;</text>
<text xml:space="preserve" text-anchor="start" x="633.72" y="-58.24" font-family="Helvetica,sans-Serif" font-weight="bold" font-size="12.00">Clipped surrogate</text>
<text xml:space="preserve" text-anchor="start" x="630.72" y="-46.24" font-family="Helvetica,sans-Serif" font-size="12.00"> &#160;&#160;&#160;limit policy drift &#160;</text>
</g>
<!-- unclipped&#45;&gt;clipped -->
<g id="edge5" class="edge">
<title>unclipped&#45;&gt;clipped</title>
<path fill="none" stroke="#2563eb" stroke-width="2" d="M559.15,-56.64C571.93,-56.64 585.25,-56.64 598.16,-56.64"/>
<polygon fill="#2563eb" stroke="#2563eb" stroke-width="2" points="597.88,-59.27 605.38,-56.64 597.88,-54.02 597.88,-59.27"/>
</g>
<!-- update -->
<g id="node6" class="node">
<title>update</title>
<path fill="#fce7f3" stroke="#be185d" d="M943.85,-77.28C943.85,-77.28 811.43,-77.28 811.43,-77.28 805.43,-77.28 799.43,-71.28 799.43,-65.28 799.43,-65.28 799.43,-48 799.43,-48 799.43,-42 805.43,-36 811.43,-36 811.43,-36 943.85,-36 943.85,-36 949.85,-36 955.85,-42 955.85,-48 955.85,-48 955.85,-65.28 955.85,-65.28 955.85,-71.28 949.85,-77.28 943.85,-77.28"/>
<text xml:space="preserve" text-anchor="start" x="812.39" y="-58.24" font-family="Helvetica,sans-Serif" font-size="12.00"> &#160;&#160;&#160;</text>
<text xml:space="preserve" text-anchor="start" x="824.39" y="-58.24" font-family="Helvetica,sans-Serif" font-weight="bold" font-size="12.00">Conservative update</text>
<text xml:space="preserve" text-anchor="start" x="816.52" y="-46.24" font-family="Helvetica,sans-Serif" font-size="12.00"> &#160;&#160;&#160;stable improvement &#160;</text>
</g>
<!-- clipped&#45;&gt;update -->
<g id="edge6" class="edge">
<title>clipped&#45;&gt;update</title>
<path fill="none" stroke="#2563eb" stroke-width="2" d="M749.67,-56.64C762.3,-56.64 775.63,-56.64 788.71,-56.64"/>
<polygon fill="#2563eb" stroke="#2563eb" stroke-width="2" points="788.6,-59.27 796.1,-56.64 788.6,-54.02 788.6,-59.27"/>
</g>
</g>
</svg>
