<?xml version="1.0" encoding="UTF-8" standalone="no"?>
<!DOCTYPE svg PUBLIC "-//W3C//DTD SVG 1.1//EN"
 "http://www.w3.org/Graphics/SVG/1.1/DTD/svg11.dtd">
<!-- Generated by graphviz version 14.1.3 (20260303.0454)
 -->
<!-- Title: RLAlgorithmLoop Pages: 1 -->
<svg width="1061pt" height="131pt"
 viewBox="0.00 0.00 1061.00 131.00" xmlns="http://www.w3.org/2000/svg" xmlns:xlink="http://www.w3.org/1999/xlink">
<g id="graph0" class="graph" transform="scale(1 1) rotate(0) translate(18 113.28)">
<title>RLAlgorithmLoop</title>
<!-- policy -->
<g id="node1" class="node">
<title>policy</title>
<path fill="#f6f8fb" stroke="#495869" d="M144.42,-39.64C144.42,-39.64 12,-39.64 12,-39.64 6,-39.64 0,-33.64 0,-27.64 0,-27.64 0,-15.64 0,-15.64 0,-9.64 6,-3.64 12,-3.64 12,-3.64 144.42,-3.64 144.42,-3.64 150.42,-3.64 156.42,-9.64 156.42,-15.64 156.42,-15.64 156.42,-27.64 156.42,-27.64 156.42,-33.64 150.42,-39.64 144.42,-39.64"/>
<text xml:space="preserve" text-anchor="start" x="12.96" y="-17.04" font-family="Helvetica,sans-Serif" font-size="13.00"> &#160;&#160;&#160;</text>
<text xml:space="preserve" text-anchor="start" x="27.96" y="-17.04" font-family="Helvetica,sans-Serif" font-weight="bold" font-size="13.00">Current policy</text>
<text xml:space="preserve" text-anchor="start" x="119.46" y="-17.04" font-family="Helvetica,sans-Serif" font-size="13.00"> π</text>
<text xml:space="preserve" text-anchor="start" x="130.71" y="-17.04" font-family="Helvetica,sans-Serif" baseline-shift="sub" font-size="13.00">k</text>
<text xml:space="preserve" text-anchor="start" x="135.96" y="-17.04" font-family="Helvetica,sans-Serif" font-size="13.00"> &#160;</text>
</g>
<!-- sample -->
<g id="node2" class="node">
<title>sample</title>
<path fill="#f6f8fb" stroke="#495869" d="M372.34,-95.28C372.34,-95.28 223.42,-95.28 223.42,-95.28 217.42,-95.28 211.42,-89.28 211.42,-83.28 211.42,-83.28 211.42,-64 211.42,-64 211.42,-58 217.42,-52 223.42,-52 223.42,-52 372.34,-52 372.34,-52 378.34,-52 384.34,-58 384.34,-64 384.34,-64 384.34,-83.28 384.34,-83.28 384.34,-89.28 378.34,-95.28 372.34,-95.28"/>
<text xml:space="preserve" text-anchor="start" x="224.38" y="-75.29" font-family="Helvetica,sans-Serif" font-size="13.00"> &#160;&#160;&#160;</text>
<text xml:space="preserve" text-anchor="start" x="239.38" y="-75.29" font-family="Helvetica,sans-Serif" font-weight="bold" font-size="13.00">Generate experience</text>
<text xml:space="preserve" text-anchor="start" x="257.75" y="-62.29" font-family="Helvetica,sans-Serif" font-size="13.00"> &#160;&#160;&#160;(s, a, r, s&#39;) &#160;</text>
</g>
<!-- policy&#45;&gt;sample -->
<g id="edge1" class="edge">
<title>policy&#45;&gt;sample</title>
<path fill="none" stroke="#2d6cdf" stroke-width="2" d="M156.57,-40.12C170.82,-43.53 185.87,-47.12 200.6,-50.64"/>
<polygon fill="#2d6cdf" stroke="#2d6cdf" stroke-width="2" points="199.89,-53.35 208.32,-52.48 201.19,-47.9 199.89,-53.35"/>
</g>
<!-- estimate -->
<g id="node3" class="node">
<title>estimate</title>
<path fill="#f6f8fb" stroke="#495869" d="M569.51,-95.28C569.51,-95.28 451.34,-95.28 451.34,-95.28 445.34,-95.28 439.34,-89.28 439.34,-83.28 439.34,-83.28 439.34,-64 439.34,-64 439.34,-58 445.34,-52 451.34,-52 451.34,-52 569.51,-52 569.51,-52 575.51,-52 581.51,-58 581.51,-64 581.51,-64 581.51,-83.28 581.51,-83.28 581.51,-89.28 575.51,-95.28 569.51,-95.28"/>
<text xml:space="preserve" text-anchor="start" x="452.3" y="-75.29" font-family="Helvetica,sans-Serif" font-size="13.00"> &#160;&#160;&#160;</text>
<text xml:space="preserve" text-anchor="start" x="467.3" y="-75.29" font-family="Helvetica,sans-Serif" font-weight="bold" font-size="13.00">Estimate values</text>
<text xml:space="preserve" text-anchor="start" x="476.3" y="-62.29" font-family="Helvetica,sans-Serif" font-size="13.00"> &#160;&#160;&#160;v</text>
<text xml:space="preserve" text-anchor="start" x="498.05" y="-62.29" font-family="Helvetica,sans-Serif" baseline-shift="sub" font-size="13.00">π</text>
<text xml:space="preserve" text-anchor="start" x="504.05" y="-62.29" font-family="Helvetica,sans-Serif" font-size="13.00"> or q</text>
<text xml:space="preserve" text-anchor="start" x="531.05" y="-62.29" font-family="Helvetica,sans-Serif" baseline-shift="sub" font-size="13.00">π</text>
<text xml:space="preserve" text-anchor="start" x="537.05" y="-62.29" font-family="Helvetica,sans-Serif" font-size="13.00"> &#160;</text>
</g>
<!-- sample&#45;&gt;estimate -->
<g id="edge2" class="edge">
<title>sample&#45;&gt;estimate</title>
<path fill="none" stroke="#2d6cdf" stroke-width="2" d="M384.82,-73.64C399.14,-73.64 413.95,-73.64 428.14,-73.64"/>
<polygon fill="#2d6cdf" stroke="#2d6cdf" stroke-width="2" points="427.83,-76.44 435.83,-73.64 427.83,-70.84 427.83,-76.44"/>
</g>
<!-- improve -->
<g id="node4" class="node">
<title>improve</title>
<path fill="#f6f8fb" stroke="#495869" d="M818.43,-95.28C818.43,-95.28 648.51,-95.28 648.51,-95.28 642.51,-95.28 636.51,-89.28 636.51,-83.28 636.51,-83.28 636.51,-64 636.51,-64 636.51,-58 642.51,-52 648.51,-52 648.51,-52 818.43,-52 818.43,-52 824.43,-52 830.43,-58 830.43,-64 830.43,-64 830.43,-83.28 830.43,-83.28 830.43,-89.28 824.43,-95.28 818.43,-95.28"/>
<text xml:space="preserve" text-anchor="start" x="678.72" y="-75.29" font-family="Helvetica,sans-Serif" font-size="13.00"> &#160;&#160;&#160;</text>
<text xml:space="preserve" text-anchor="start" x="693.72" y="-75.29" font-family="Helvetica,sans-Serif" font-weight="bold" font-size="13.00">Improve policy</text>
<text xml:space="preserve" text-anchor="start" x="649.47" y="-62.29" font-family="Helvetica,sans-Serif" font-size="13.00"> &#160;&#160;&#160;arg max or gradient step &#160;</text>
</g>
<!-- estimate&#45;&gt;improve -->
<g id="edge3" class="edge">
<title>estimate&#45;&gt;improve</title>
<path fill="none" stroke="#2d6cdf" stroke-width="2" d="M581.97,-73.64C595.9,-73.64 610.81,-73.64 625.63,-73.64"/>
<polygon fill="#2d6cdf" stroke="#2d6cdf" stroke-width="2" points="625.36,-76.44 633.36,-73.64 625.36,-70.84 625.36,-76.44"/>
</g>
<!-- repeat -->
<g id="node5" class="node">
<title>repeat</title>
<path fill="#eef7ef" stroke="#4d8a55" d="M1013.35,-43.28C1013.35,-43.28 897.43,-43.28 897.43,-43.28 891.43,-43.28 885.43,-37.28 885.43,-31.28 885.43,-31.28 885.43,-12 885.43,-12 885.43,-6 891.43,0 897.43,0 897.43,0 1013.35,0 1013.35,0 1019.35,0 1025.35,-6 1025.35,-12 1025.35,-12 1025.35,-31.28 1025.35,-31.28 1025.35,-37.28 1019.35,-43.28 1013.35,-43.28"/>
<text xml:space="preserve" text-anchor="start" x="925.39" y="-23.29" font-family="Helvetica,sans-Serif" font-size="13.00"> &#160;&#160;&#160;</text>
<text xml:space="preserve" text-anchor="start" x="940.39" y="-23.29" font-family="Helvetica,sans-Serif" font-weight="bold" font-size="13.00">Repeat</text>
<text xml:space="preserve" text-anchor="start" x="898.39" y="-10.29" font-family="Helvetica,sans-Serif" font-size="13.00"> &#160;&#160;&#160;new policy π</text>
<text xml:space="preserve" text-anchor="start" x="987.64" y="-10.29" font-family="Helvetica,sans-Serif" baseline-shift="sub" font-size="13.00">k+1</text>
<text xml:space="preserve" text-anchor="start" x="1004.89" y="-10.29" font-family="Helvetica,sans-Serif" font-size="13.00"> &#160;</text>
</g>
<!-- improve&#45;&gt;repeat -->
<g id="edge4" class="edge">
<title>improve&#45;&gt;repeat</title>
<path fill="none" stroke="#2d6cdf" stroke-width="2" d="M828.05,-51.51C843.63,-47.83 859.66,-44.04 874.85,-40.45"/>
<polygon fill="#2d6cdf" stroke="#2d6cdf" stroke-width="2" points="875.12,-43.26 882.26,-38.69 873.83,-37.81 875.12,-43.26"/>
</g>
<!-- repeat&#45;&gt;policy -->
<g id="edge5" class="edge">
<title>repeat&#45;&gt;policy</title>
<path fill="none" stroke="#2d6cdf" stroke-width="2" d="M885.19,-12.59C841.95,-7.69 785.06,-2.64 734.47,-2.64 296.88,-2.64 296.88,-2.64 296.88,-2.64 254.32,-2.64 207.25,-6.29 167.8,-10.39"/>
<polygon fill="#2d6cdf" stroke="#2d6cdf" stroke-width="2" points="167.56,-7.6 159.9,-11.23 168.15,-13.17 167.56,-7.6"/>
<text xml:space="preserve" text-anchor="middle" x="510.43" y="-3.99" font-family="Helvetica,sans-Serif" font-size="12.00">loop</text>
</g>
</g>
</svg>
