<?xml version="1.0" encoding="UTF-8" standalone="no"?>
<!DOCTYPE svg PUBLIC "-//W3C//DTD SVG 1.1//EN"
 "http://www.w3.org/Graphics/SVG/1.1/DTD/svg11.dtd">
<!-- Generated by graphviz version 14.1.3 (20260303.0454)
 -->
<!-- Title: RLAlgorithmLoop Pages: 1 -->
<svg width="974pt" height="132pt"
 viewBox="0.00 0.00 974.00 132.00" xmlns="http://www.w3.org/2000/svg" xmlns:xlink="http://www.w3.org/1999/xlink">
<g id="graph0" class="graph" transform="scale(1 1) rotate(0) translate(18 114.28)">
<title>RLAlgorithmLoop</title>
<!-- policy -->
<g id="node1" class="node">
<title>policy</title>
<path fill="#f6f8fb" stroke="#495869" d="M125.67,-40.14C125.67,-40.14 12,-40.14 12,-40.14 6,-40.14 0,-34.14 0,-28.14 0,-28.14 0,-16.14 0,-16.14 0,-10.14 6,-4.14 12,-4.14 12,-4.14 125.67,-4.14 125.67,-4.14 131.67,-4.14 137.67,-10.14 137.67,-16.14 137.67,-16.14 137.67,-28.14 137.67,-28.14 137.67,-34.14 131.67,-40.14 125.67,-40.14"/>
<text xml:space="preserve" text-anchor="middle" x="68.84" y="-16.54" font-family="Helvetica,sans-Serif" font-size="13.00">Current policy pi_k</text>
</g>
<!-- sample -->
<g id="node2" class="node">
<title>sample</title>
<path fill="#f6f8fb" stroke="#495869" d="M331.84,-96.28C331.84,-96.28 204.67,-96.28 204.67,-96.28 198.67,-96.28 192.67,-90.28 192.67,-84.28 192.67,-84.28 192.67,-64 192.67,-64 192.67,-58 198.67,-52 204.67,-52 204.67,-52 331.84,-52 331.84,-52 337.84,-52 343.84,-58 343.84,-64 343.84,-64 343.84,-84.28 343.84,-84.28 343.84,-90.28 337.84,-96.28 331.84,-96.28"/>
<text xml:space="preserve" text-anchor="middle" x="268.26" y="-75.29" font-family="Helvetica,sans-Serif" font-size="13.00">Generate experience</text>
<text xml:space="preserve" text-anchor="middle" x="268.26" y="-61.79" font-family="Helvetica,sans-Serif" font-size="13.00">(s, a, r, s&#39;)</text>
</g>
<!-- policy&#45;&gt;sample -->
<g id="edge1" class="edge">
<title>policy&#45;&gt;sample</title>
<path fill="none" stroke="#2d6cdf" stroke-width="2" d="M138.05,-40.11C152.13,-43.82 167.13,-47.77 181.74,-51.61"/>
<polygon fill="#2d6cdf" stroke="#2d6cdf" stroke-width="2" points="180.91,-54.29 189.36,-53.62 182.33,-48.88 180.91,-54.29"/>
</g>
<!-- estimate -->
<g id="node3" class="node">
<title>estimate</title>
<path fill="#f6f8fb" stroke="#495869" d="M507.26,-96.28C507.26,-96.28 410.84,-96.28 410.84,-96.28 404.84,-96.28 398.84,-90.28 398.84,-84.28 398.84,-84.28 398.84,-64 398.84,-64 398.84,-58 404.84,-52 410.84,-52 410.84,-52 507.26,-52 507.26,-52 513.26,-52 519.26,-58 519.26,-64 519.26,-64 519.26,-84.28 519.26,-84.28 519.26,-90.28 513.26,-96.28 507.26,-96.28"/>
<text xml:space="preserve" text-anchor="middle" x="459.05" y="-75.29" font-family="Helvetica,sans-Serif" font-size="13.00">Estimate values</text>
<text xml:space="preserve" text-anchor="middle" x="459.05" y="-61.79" font-family="Helvetica,sans-Serif" font-size="13.00">V^pi or Q^pi</text>
</g>
<!-- sample&#45;&gt;estimate -->
<g id="edge2" class="edge">
<title>sample&#45;&gt;estimate</title>
<path fill="none" stroke="#2d6cdf" stroke-width="2" d="M344.14,-74.14C358.5,-74.14 373.49,-74.14 387.69,-74.14"/>
<polygon fill="#2d6cdf" stroke="#2d6cdf" stroke-width="2" points="387.36,-76.94 395.36,-74.14 387.36,-71.34 387.36,-76.94"/>
</g>
<!-- improve -->
<g id="node4" class="node">
<title>improve</title>
<path fill="#f6f8fb" stroke="#495869" d="M729.93,-96.28C729.93,-96.28 586.26,-96.28 586.26,-96.28 580.26,-96.28 574.26,-90.28 574.26,-84.28 574.26,-84.28 574.26,-64 574.26,-64 574.26,-58 580.26,-52 586.26,-52 586.26,-52 729.93,-52 729.93,-52 735.93,-52 741.93,-58 741.93,-64 741.93,-64 741.93,-84.28 741.93,-84.28 741.93,-90.28 735.93,-96.28 729.93,-96.28"/>
<text xml:space="preserve" text-anchor="middle" x="658.1" y="-75.29" font-family="Helvetica,sans-Serif" font-size="13.00">Improve policy</text>
<text xml:space="preserve" text-anchor="middle" x="658.1" y="-61.79" font-family="Helvetica,sans-Serif" font-size="13.00">argmax or gradient step</text>
</g>
<!-- estimate&#45;&gt;improve -->
<g id="edge3" class="edge">
<title>estimate&#45;&gt;improve</title>
<path fill="none" stroke="#2d6cdf" stroke-width="2" d="M519.7,-74.14C533.47,-74.14 548.44,-74.14 563.26,-74.14"/>
<polygon fill="#2d6cdf" stroke="#2d6cdf" stroke-width="2" points="562.99,-76.94 570.99,-74.14 562.99,-71.34 562.99,-76.94"/>
</g>
<!-- repeat -->
<g id="node5" class="node">
<title>repeat</title>
<path fill="#eef7ef" stroke="#4d8a55" d="M926.35,-44.28C926.35,-44.28 808.93,-44.28 808.93,-44.28 802.93,-44.28 796.93,-38.28 796.93,-32.28 796.93,-32.28 796.93,-12 796.93,-12 796.93,-6 802.93,0 808.93,0 808.93,0 926.35,0 926.35,0 932.35,0 938.35,-6 938.35,-12 938.35,-12 938.35,-32.28 938.35,-32.28 938.35,-38.28 932.35,-44.28 926.35,-44.28"/>
<text xml:space="preserve" text-anchor="middle" x="867.64" y="-23.29" font-family="Helvetica,sans-Serif" font-size="13.00">Repeat</text>
<text xml:space="preserve" text-anchor="middle" x="867.64" y="-9.79" font-family="Helvetica,sans-Serif" font-size="13.00">new policy pi_{k+1}</text>
</g>
<!-- improve&#45;&gt;repeat -->
<g id="edge4" class="edge">
<title>improve&#45;&gt;repeat</title>
<path fill="none" stroke="#2d6cdf" stroke-width="2" d="M742.32,-53.29C756.84,-49.65 771.91,-45.87 786.35,-42.26"/>
<polygon fill="#2d6cdf" stroke="#2d6cdf" stroke-width="2" points="786.72,-45.05 793.8,-40.39 785.36,-39.62 786.72,-45.05"/>
</g>
<!-- repeat&#45;&gt;policy -->
<g id="edge5" class="edge">
<title>repeat&#45;&gt;policy</title>
<path fill="none" stroke="#2d6cdf" stroke-width="2" d="M796.66,-12.53C756.48,-7.82 705.05,-3.14 659.1,-3.14 267.26,-3.14 267.26,-3.14 267.26,-3.14 228.09,-3.14 184.76,-6.89 148.7,-11.06"/>
<polygon fill="#2d6cdf" stroke="#2d6cdf" stroke-width="2" points="148.37,-8.28 140.75,-12 149.03,-13.84 148.37,-8.28"/>
<text xml:space="preserve" text-anchor="middle" x="459.05" y="-4.49" font-family="Helvetica,sans-Serif" font-size="12.00">loop</text>
</g>
</g>
</svg>
