<?xml version="1.0" encoding="UTF-8" standalone="no"?>
<!DOCTYPE svg PUBLIC "-//W3C//DTD SVG 1.1//EN"
 "http://www.w3.org/Graphics/SVG/1.1/DTD/svg11.dtd">
<!-- Generated by graphviz version 14.1.3 (20260303.0454)
 -->
<!-- Title: SarsaVsQLearning Pages: 1 -->
<svg width="745pt" height="261pt"
 viewBox="0.00 0.00 745.00 261.00" xmlns="http://www.w3.org/2000/svg" xmlns:xlink="http://www.w3.org/1999/xlink">
<g id="graph0" class="graph" transform="scale(1 1) rotate(0) translate(18 242.51)">
<title>SarsaVsQLearning</title>
<g id="clust1" class="cluster">
<title>cluster_sarsa</title>
<path fill="none" stroke="#60a5fa" d="M48.76,-8C48.76,-8 676.18,-8 676.18,-8 682.18,-8 688.18,-14 688.18,-20 688.18,-20 688.18,-77 688.18,-77 688.18,-83 682.18,-89 676.18,-89 676.18,-89 48.76,-89 48.76,-89 42.76,-89 36.76,-83 36.76,-77 36.76,-77 36.76,-20 36.76,-20 36.76,-14 42.76,-8 48.76,-8"/>
<text xml:space="preserve" text-anchor="middle" x="362.47" y="-71.7" font-family="Helvetica,sans-Serif" font-weight="bold" font-size="14.00">On&#45;policy SARSA</text>
</g>
<g id="clust2" class="cluster">
<title>cluster_q</title>
<path fill="none" stroke="#f59e0b" d="M48.76,-97C48.76,-97 688.56,-97 688.56,-97 694.56,-97 700.56,-103 700.56,-109 700.56,-109 700.56,-166 700.56,-166 700.56,-172 694.56,-178 688.56,-178 688.56,-178 48.76,-178 48.76,-178 42.76,-178 36.76,-172 36.76,-166 36.76,-166 36.76,-109 36.76,-109 36.76,-103 42.76,-97 48.76,-97"/>
<text xml:space="preserve" text-anchor="middle" x="368.66" y="-160.7" font-family="Helvetica,sans-Serif" font-weight="bold" font-size="14.00">Off&#45;policy Q&#45;learning</text>
</g>
<!-- s1 -->
<g id="node1" class="node">
<title>s1</title>
<ellipse fill="#dbeafe" stroke="#334155" cx="65.76" cy="-37" rx="21" ry="21"/>
<text xml:space="preserve" text-anchor="middle" x="65.76" y="-31.98" font-family="Helvetica,sans-Serif" font-size="12.00">S,A</text>
</g>
<!-- r1 -->
<g id="node2" class="node">
<title>r1</title>
<polygon fill="#eff6ff" stroke="#334155" points="243.52,-55 189.52,-55 189.52,-19 243.52,-19 243.52,-55"/>
<text xml:space="preserve" text-anchor="middle" x="216.52" y="-31.98" font-family="Helvetica,sans-Serif" font-size="12.00">R</text>
</g>
<!-- s1&#45;&gt;r1 -->
<g id="edge1" class="edge">
<title>s1&#45;&gt;r1</title>
<path fill="none" stroke="black" stroke-width="2" d="M87.13,-37C110.63,-37 149.73,-37 178.61,-37"/>
<polygon fill="black" stroke="black" stroke-width="2" points="178.6,-39.63 186.1,-37 178.6,-34.38 178.6,-39.63"/>
</g>
<!-- sp1 -->
<g id="node3" class="node">
<title>sp1</title>
<ellipse fill="#dbeafe" stroke="#334155" cx="319.52" cy="-37" rx="18" ry="18"/>
<text xml:space="preserve" text-anchor="middle" x="319.52" y="-31.98" font-family="Helvetica,sans-Serif" font-size="12.00">S&#39;</text>
</g>
<!-- r1&#45;&gt;sp1 -->
<g id="edge2" class="edge">
<title>r1&#45;&gt;sp1</title>
<path fill="none" stroke="black" stroke-width="2" d="M243.79,-37C258.23,-37 276.13,-37 290.79,-37"/>
<polygon fill="black" stroke="black" stroke-width="2" points="290.74,-39.63 298.24,-37 290.74,-34.38 290.74,-39.63"/>
</g>
<!-- ap1 -->
<g id="node4" class="node">
<title>ap1</title>
<ellipse fill="#dbeafe" stroke="#334155" cx="447.4" cy="-37" rx="18" ry="18"/>
<text xml:space="preserve" text-anchor="middle" x="447.4" y="-31.98" font-family="Helvetica,sans-Serif" font-size="12.00">A&#39;</text>
</g>
<!-- sp1&#45;&gt;ap1 -->
<g id="edge3" class="edge">
<title>sp1&#45;&gt;ap1</title>
<path fill="none" stroke="black" stroke-width="2" d="M337.76,-37C358.55,-37 393.77,-37 418.46,-37"/>
<polygon fill="black" stroke="black" stroke-width="2" points="418.44,-39.63 425.94,-37 418.44,-34.38 418.44,-39.63"/>
</g>
<!-- tgt1 -->
<g id="node5" class="node">
<title>tgt1</title>
<polygon fill="#eff6ff" stroke="#334155" points="680.18,-55 569.66,-55 569.66,-19 680.18,-19 680.18,-55"/>
<text xml:space="preserve" text-anchor="start" x="599.42" y="-38.6" font-family="Helvetica,sans-Serif" font-size="12.00"> &#160;&#160;&#160;&#160;&#160;</text>
<text xml:space="preserve" text-anchor="start" x="617.42" y="-38.6" font-family="Helvetica,sans-Serif" font-weight="bold" font-size="12.00">target</text>
<text xml:space="preserve" text-anchor="start" x="575.42" y="-26.6" font-family="Helvetica,sans-Serif" font-size="12.00"> &#160;&#160;&#160;&#160;&#160;R + γQ(S&#39;,A&#39;) &#160;&#160;&#160;</text>
</g>
<!-- ap1&#45;&gt;tgt1 -->
<g id="edge4" class="edge">
<title>ap1&#45;&gt;tgt1</title>
<path fill="none" stroke="black" stroke-width="2" stroke-dasharray="5,2" d="M465.88,-37C489.81,-37 533.87,-37 569.4,-37"/>
</g>
<!-- s2 -->
<g id="node6" class="node">
<title>s2</title>
<ellipse fill="#ffedd5" stroke="#334155" cx="65.76" cy="-126" rx="21" ry="21"/>
<text xml:space="preserve" text-anchor="middle" x="65.76" y="-120.97" font-family="Helvetica,sans-Serif" font-size="12.00">S,A</text>
</g>
<!-- r2 -->
<g id="node7" class="node">
<title>r2</title>
<polygon fill="#fff7ed" stroke="#334155" points="243.52,-144 189.52,-144 189.52,-108 243.52,-108 243.52,-144"/>
<text xml:space="preserve" text-anchor="middle" x="216.52" y="-120.97" font-family="Helvetica,sans-Serif" font-size="12.00">R</text>
</g>
<!-- s2&#45;&gt;r2 -->
<g id="edge5" class="edge">
<title>s2&#45;&gt;r2</title>
<path fill="none" stroke="black" stroke-width="2" d="M87.13,-126C110.63,-126 149.73,-126 178.61,-126"/>
<polygon fill="black" stroke="black" stroke-width="2" points="178.6,-128.63 186.1,-126 178.6,-123.38 178.6,-128.63"/>
</g>
<!-- sp2 -->
<g id="node8" class="node">
<title>sp2</title>
<ellipse fill="#ffedd5" stroke="#334155" cx="319.52" cy="-126" rx="18" ry="18"/>
<text xml:space="preserve" text-anchor="middle" x="319.52" y="-120.97" font-family="Helvetica,sans-Serif" font-size="12.00">S&#39;</text>
</g>
<!-- r2&#45;&gt;sp2 -->
<g id="edge6" class="edge">
<title>r2&#45;&gt;sp2</title>
<path fill="none" stroke="black" stroke-width="2" d="M243.79,-126C258.23,-126 276.13,-126 290.79,-126"/>
<polygon fill="black" stroke="black" stroke-width="2" points="290.74,-128.63 298.24,-126 290.74,-123.38 290.74,-128.63"/>
</g>
<!-- max2 -->
<g id="node9" class="node">
<title>max2</title>
<polygon fill="#fff7ed" stroke="#334155" points="499.29,-144 395.52,-144 395.52,-108 499.29,-108 499.29,-144"/>
<text xml:space="preserve" text-anchor="start" x="401.28" y="-122.62" font-family="Helvetica,sans-Serif" font-size="12.00"> &#160;&#160;&#160;&#160;&#160;max Q(S&#39;,a) &#160;&#160;&#160;</text>
</g>
<!-- sp2&#45;&gt;max2 -->
<g id="edge7" class="edge">
<title>sp2&#45;&gt;max2</title>
<path fill="none" stroke="black" stroke-width="2" d="M337.76,-126C350.14,-126 367.65,-126 385,-126"/>
<polygon fill="black" stroke="black" stroke-width="2" points="384.63,-128.63 392.13,-126 384.63,-123.38 384.63,-128.63"/>
</g>
<!-- tgt2 -->
<g id="node10" class="node">
<title>tgt2</title>
<polygon fill="#fff7ed" stroke="#334155" points="692.56,-144 557.29,-144 557.29,-108 692.56,-108 692.56,-144"/>
<text xml:space="preserve" text-anchor="start" x="599.42" y="-127.6" font-family="Helvetica,sans-Serif" font-size="12.00"> &#160;&#160;&#160;&#160;&#160;</text>
<text xml:space="preserve" text-anchor="start" x="617.42" y="-127.6" font-family="Helvetica,sans-Serif" font-weight="bold" font-size="12.00">target</text>
<text xml:space="preserve" text-anchor="start" x="563.05" y="-115.6" font-family="Helvetica,sans-Serif" font-size="12.00"> &#160;&#160;&#160;&#160;&#160;R + γ max Q(S&#39;,a) &#160;&#160;&#160;</text>
</g>
<!-- max2&#45;&gt;tgt2 -->
<g id="edge8" class="edge">
<title>max2&#45;&gt;tgt2</title>
<path fill="none" stroke="black" stroke-width="2" stroke-dasharray="5,2" d="M499.64,-126C517.55,-126 537.93,-126 556.94,-126"/>
</g>
<!-- note -->
<g id="node11" class="node">
<title>note</title>
<path fill="#f1f5f9" stroke="#64748b" d="M119.52,-224.51C119.52,-224.51 12,-224.51 12,-224.51 6,-224.51 0,-218.51 0,-212.51 0,-212.51 0,-199.49 0,-199.49 0,-193.49 6,-187.49 12,-187.49 12,-187.49 119.52,-187.49 119.52,-187.49 125.52,-187.49 131.52,-193.49 131.52,-199.49 131.52,-199.49 131.52,-212.51 131.52,-212.51 131.52,-218.51 125.52,-224.51 119.52,-224.51"/>
<text xml:space="preserve" text-anchor="middle" x="65.76" y="-207.35" font-family="Helvetica,sans-Serif" font-size="12.00">Same sample</text>
<text xml:space="preserve" text-anchor="middle" x="65.76" y="-194.6" font-family="Helvetica,sans-Serif" font-size="12.00">Different backup target</text>
</g>
</g>
</svg>
