<?xml version="1.0" encoding="UTF-8" standalone="no"?>
<!DOCTYPE svg PUBLIC "-//W3C//DTD SVG 1.1//EN"
 "http://www.w3.org/Graphics/SVG/1.1/DTD/svg11.dtd">
<!-- Generated by graphviz version 14.1.3 (20260303.0454)
 -->
<!-- Title: AuditOverview Pages: 1 -->
<svg width="740pt" height="119pt"
 viewBox="0.00 0.00 740.00 119.00" xmlns="http://www.w3.org/2000/svg" xmlns:xlink="http://www.w3.org/1999/xlink">
<g id="graph0" class="graph" transform="scale(1 1) rotate(0) translate(4 115.25)">
<title>AuditOverview</title>
<polygon fill="white" stroke="none" points="-4,4 -4,-115.25 735.5,-115.25 735.5,4 -4,4"/>
<text xml:space="preserve" text-anchor="middle" x="365.75" y="-95.85" font-family="Times,serif" font-size="12.00">Audit summary</text>
<!-- strengths -->
<g id="node1" class="node">
<title>strengths</title>
<path fill="none" stroke="black" d="M161.5,-82.25C161.5,-82.25 12,-82.25 12,-82.25 6,-82.25 0,-76.25 0,-70.25 0,-70.25 0,-18.75 0,-18.75 0,-12.75 6,-6.75 12,-6.75 12,-6.75 161.5,-6.75 161.5,-6.75 167.5,-6.75 173.5,-12.75 173.5,-18.75 173.5,-18.75 173.5,-70.25 173.5,-70.25 173.5,-76.25 167.5,-82.25 161.5,-82.25"/>
<text xml:space="preserve" text-anchor="middle" x="86.75" y="-67.8" font-family="Times,serif" font-size="11.00">What already works</text>
<text xml:space="preserve" text-anchor="middle" x="86.75" y="-54.3" font-family="Times,serif" font-size="11.00">&#45; correct RL scope</text>
<text xml:space="preserve" text-anchor="middle" x="86.75" y="-40.8" font-family="Times,serif" font-size="11.00">&#45; formal ambition</text>
<text xml:space="preserve" text-anchor="middle" x="86.75" y="-27.3" font-family="Times,serif" font-size="11.00">&#45; prerequisite ordering</text>
<text xml:space="preserve" text-anchor="middle" x="86.75" y="-13.8" font-family="Times,serif" font-size="11.00">&#45; some exact vs sample distinctions</text>
</g>
<!-- weakness -->
<g id="node2" class="node">
<title>weakness</title>
<path fill="none" stroke="black" d="M325.25,-62.5C325.25,-62.5 221.5,-62.5 221.5,-62.5 215.5,-62.5 209.5,-56.5 209.5,-50.5 209.5,-50.5 209.5,-38.5 209.5,-38.5 209.5,-32.5 215.5,-26.5 221.5,-26.5 221.5,-26.5 325.25,-26.5 325.25,-26.5 331.25,-26.5 337.25,-32.5 337.25,-38.5 337.25,-38.5 337.25,-50.5 337.25,-50.5 337.25,-56.5 331.25,-62.5 325.25,-62.5"/>
<text xml:space="preserve" text-anchor="middle" x="273.38" y="-47.55" font-family="Times,serif" font-size="11.00">Main weakness</text>
<text xml:space="preserve" text-anchor="middle" x="273.38" y="-34.05" font-family="Times,serif" font-size="11.00">pedagogical compression</text>
</g>
<!-- strengths&#45;&gt;weakness -->
<g id="edge1" class="edge">
<title>strengths&#45;&gt;weakness</title>
<path fill="none" stroke="black" d="M173.85,-44.5C181.8,-44.5 189.83,-44.5 197.67,-44.5"/>
<polygon fill="black" stroke="black" points="197.49,-48 207.49,-44.5 197.49,-41 197.49,-48"/>
</g>
<!-- traps -->
<g id="node3" class="node">
<title>traps</title>
<path fill="none" stroke="black" d="M538.5,-89C538.5,-89 385.25,-89 385.25,-89 379.25,-89 373.25,-83 373.25,-77 373.25,-77 373.25,-12 373.25,-12 373.25,-6 379.25,0 385.25,0 385.25,0 538.5,0 538.5,0 544.5,0 550.5,-6 550.5,-12 550.5,-12 550.5,-77 550.5,-77 550.5,-83 544.5,-89 538.5,-89"/>
<text xml:space="preserve" text-anchor="middle" x="461.88" y="-74.55" font-family="Times,serif" font-size="11.00">Confusion traps</text>
<text xml:space="preserve" text-anchor="middle" x="461.88" y="-61.05" font-family="Times,serif" font-size="11.00">&#45; observation vs state</text>
<text xml:space="preserve" text-anchor="middle" x="461.88" y="-47.55" font-family="Times,serif" font-size="11.00">&#45; reward vs return vs value</text>
<text xml:space="preserve" text-anchor="middle" x="461.88" y="-34.05" font-family="Times,serif" font-size="11.00">&#45; Bellman identity vs sampled target</text>
<text xml:space="preserve" text-anchor="middle" x="461.88" y="-20.55" font-family="Times,serif" font-size="11.00">&#45; on&#45;policy vs off&#45;policy</text>
<text xml:space="preserve" text-anchor="middle" x="461.88" y="-7.05" font-family="Times,serif" font-size="11.00">&#45; exact gradient vs semi&#45;gradient</text>
</g>
<!-- weakness&#45;&gt;traps -->
<g id="edge2" class="edge">
<title>weakness&#45;&gt;traps</title>
<path fill="none" stroke="black" d="M337.52,-44.5C345.27,-44.5 353.34,-44.5 361.47,-44.5"/>
<polygon fill="black" stroke="black" points="361.47,-48 371.47,-44.5 361.47,-41 361.47,-48"/>
</g>
<!-- rewrite -->
<g id="node4" class="node">
<title>rewrite</title>
<path fill="none" stroke="black" d="M719.5,-82.25C719.5,-82.25 598.5,-82.25 598.5,-82.25 592.5,-82.25 586.5,-76.25 586.5,-70.25 586.5,-70.25 586.5,-18.75 586.5,-18.75 586.5,-12.75 592.5,-6.75 598.5,-6.75 598.5,-6.75 719.5,-6.75 719.5,-6.75 725.5,-6.75 731.5,-12.75 731.5,-18.75 731.5,-18.75 731.5,-70.25 731.5,-70.25 731.5,-76.25 725.5,-82.25 719.5,-82.25"/>
<text xml:space="preserve" text-anchor="middle" x="659" y="-67.8" font-family="Times,serif" font-size="11.00">Rewrite goals</text>
<text xml:space="preserve" text-anchor="middle" x="659" y="-54.3" font-family="Times,serif" font-size="11.00">&#45; slower dependency chain</text>
<text xml:space="preserve" text-anchor="middle" x="659" y="-40.8" font-family="Times,serif" font-size="11.00">&#45; explicit statement types</text>
<text xml:space="preserve" text-anchor="middle" x="659" y="-27.3" font-family="Times,serif" font-size="11.00">&#45; explicit assumptions</text>
<text xml:space="preserve" text-anchor="middle" x="659" y="-13.8" font-family="Times,serif" font-size="11.00">&#45; stronger confusion blocking</text>
</g>
<!-- traps&#45;&gt;rewrite -->
<g id="edge3" class="edge">
<title>traps&#45;&gt;rewrite</title>
<path fill="none" stroke="black" d="M550.73,-44.5C558.69,-44.5 566.72,-44.5 574.64,-44.5"/>
<polygon fill="black" stroke="black" points="574.6,-48 584.6,-44.5 574.6,-41 574.6,-48"/>
</g>
</g>
</svg>
