<?xml version="1.0" encoding="UTF-8" standalone="no"?>
<!DOCTYPE svg PUBLIC "-//W3C//DTD SVG 1.1//EN"
 "http://www.w3.org/Graphics/SVG/1.1/DTD/svg11.dtd">
<!-- Generated by graphviz version 14.1.3 (20260303.0454)
 -->
<!-- Title: ActorCriticBoundaries Pages: 1 -->
<svg width="754pt" height="228pt"
 viewBox="0.00 0.00 754.00 228.00" xmlns="http://www.w3.org/2000/svg" xmlns:xlink="http://www.w3.org/1999/xlink">
<g id="graph0" class="graph" transform="scale(1 1) rotate(0) translate(4 223.75)">
<title>ActorCriticBoundaries</title>
<polygon fill="white" stroke="none" points="-4,4 -4,-223.75 750,-223.75 750,4 -4,4"/>
<text xml:space="preserve" text-anchor="middle" x="373" y="-204.35" font-family="Times,serif" font-size="12.00">Boundary questions for actor&#45;critic style methods</text>
<!-- obj -->
<g id="node1" class="node">
<title>obj</title>
<path fill="none" stroke="black" d="M172,-109C172,-109 12,-109 12,-109 6,-109 0,-103 0,-97 0,-97 0,-85 0,-85 0,-79 6,-73 12,-73 12,-73 172,-73 172,-73 178,-73 184,-79 184,-85 184,-85 184,-97 184,-97 184,-103 178,-109 172,-109"/>
<text xml:space="preserve" text-anchor="middle" x="92" y="-87.3" font-family="Times,serif" font-size="11.00">1. What objective is being optimized?</text>
</g>
<!-- actor -->
<g id="node5" class="node">
<title>actor</title>
<path fill="none" stroke="black" d="M408.88,-36C408.88,-36 359.12,-36 359.12,-36 353.12,-36 347.12,-30 347.12,-24 347.12,-24 347.12,-12 347.12,-12 347.12,-6 353.12,0 359.12,0 359.12,0 408.88,0 408.88,0 414.88,0 420.88,-6 420.88,-12 420.88,-12 420.88,-24 420.88,-24 420.88,-30 414.88,-36 408.88,-36"/>
<text xml:space="preserve" text-anchor="middle" x="384" y="-14.3" font-family="Times,serif" font-size="11.00">Actor update</text>
</g>
<!-- obj&#45;&gt;actor -->
<g id="edge1" class="edge">
<title>obj&#45;&gt;actor</title>
<path fill="none" stroke="black" d="M163.81,-72.54C217.31,-59.53 288.93,-42.12 335.75,-30.73"/>
<polygon fill="black" stroke="black" points="336.44,-34.17 345.33,-28.4 334.78,-27.37 336.44,-34.17"/>
</g>
<!-- est -->
<g id="node2" class="node">
<title>est</title>
<path fill="none" stroke="black" d="M395.5,-109C395.5,-109 214.5,-109 214.5,-109 208.5,-109 202.5,-103 202.5,-97 202.5,-97 202.5,-85 202.5,-85 202.5,-79 208.5,-73 214.5,-73 214.5,-73 395.5,-73 395.5,-73 401.5,-73 407.5,-79 407.5,-85 407.5,-85 407.5,-97 407.5,-97 407.5,-103 401.5,-109 395.5,-109"/>
<text xml:space="preserve" text-anchor="middle" x="305" y="-87.3" font-family="Times,serif" font-size="11.00">2. What estimator drives the actor update?</text>
</g>
<!-- est&#45;&gt;actor -->
<g id="edge2" class="edge">
<title>est&#45;&gt;actor</title>
<path fill="none" stroke="black" d="M324.12,-72.81C333.76,-64.16 345.61,-53.5 356.23,-43.96"/>
<polygon fill="black" stroke="black" points="358.55,-46.57 363.65,-37.29 353.88,-41.37 358.55,-46.57"/>
</g>
<!-- exact -->
<g id="node3" class="node">
<title>exact</title>
<path fill="none" stroke="black" d="M544,-109C544,-109 438,-109 438,-109 432,-109 426,-103 426,-97 426,-97 426,-85 426,-85 426,-79 432,-73 438,-73 438,-73 544,-73 544,-73 550,-73 556,-79 556,-85 556,-85 556,-97 556,-97 556,-103 550,-109 544,-109"/>
<text xml:space="preserve" text-anchor="middle" x="491" y="-94.05" font-family="Times,serif" font-size="11.00">3. What remains exact</text>
<text xml:space="preserve" text-anchor="middle" x="491" y="-80.55" font-family="Times,serif" font-size="11.00">and what is approximate?</text>
</g>
<!-- exact&#45;&gt;actor -->
<g id="edge3" class="edge">
<title>exact&#45;&gt;actor</title>
<path fill="none" stroke="black" d="M464.82,-72.63C451.22,-63.61 434.4,-52.44 419.63,-42.64"/>
<polygon fill="black" stroke="black" points="421.8,-39.88 411.54,-37.27 417.93,-45.72 421.8,-39.88"/>
</g>
<!-- fixed -->
<g id="node4" class="node">
<title>fixed</title>
<path fill="none" stroke="black" d="M734,-109C734,-109 586,-109 586,-109 580,-109 574,-103 574,-97 574,-97 574,-85 574,-85 574,-79 580,-73 586,-73 586,-73 734,-73 734,-73 740,-73 746,-79 746,-85 746,-85 746,-97 746,-97 746,-103 740,-109 734,-109"/>
<text xml:space="preserve" text-anchor="middle" x="660" y="-94.05" font-family="Times,serif" font-size="11.00">4. What quantity is treated as fixed</text>
<text xml:space="preserve" text-anchor="middle" x="660" y="-80.55" font-family="Times,serif" font-size="11.00">during differentiation?</text>
</g>
<!-- fixed&#45;&gt;actor -->
<g id="edge4" class="edge">
<title>fixed&#45;&gt;actor</title>
<path fill="none" stroke="black" d="M592.13,-72.54C542.5,-59.77 476.39,-42.77 432.12,-31.38"/>
<polygon fill="black" stroke="black" points="433.11,-28.02 422.55,-28.92 431.36,-34.8 433.11,-28.02"/>
</g>
<!-- critic -->
<g id="node6" class="node">
<title>critic</title>
<path fill="none" stroke="black" d="M467.25,-197.5C467.25,-197.5 326.75,-197.5 326.75,-197.5 320.75,-197.5 314.75,-191.5 314.75,-185.5 314.75,-185.5 314.75,-173.5 314.75,-173.5 314.75,-167.5 320.75,-161.5 326.75,-161.5 326.75,-161.5 467.25,-161.5 467.25,-161.5 473.25,-161.5 479.25,-167.5 479.25,-173.5 479.25,-173.5 479.25,-185.5 479.25,-185.5 479.25,-191.5 473.25,-197.5 467.25,-197.5"/>
<text xml:space="preserve" text-anchor="middle" x="397" y="-175.8" font-family="Times,serif" font-size="11.00">Critic / baseline / value estimator</text>
</g>
<!-- critic&#45;&gt;est -->
<g id="edge5" class="edge">
<title>critic&#45;&gt;est</title>
<path fill="none" stroke="black" d="M378.82,-161.41C365.3,-148.7 346.65,-131.16 331.47,-116.89"/>
<polygon fill="black" stroke="black" points="334.24,-114.69 324.56,-110.39 329.44,-119.79 334.24,-114.69"/>
<text xml:space="preserve" text-anchor="middle" x="399.37" y="-130.2" font-family="Times,serif" font-size="14.00">supplies signal</text>
</g>
<!-- critic&#45;&gt;exact -->
<g id="edge6" class="edge">
<title>critic&#45;&gt;exact</title>
<path fill="none" stroke="black" d="M421.49,-161.08C428.63,-155.68 436.3,-149.56 443,-143.5 451.74,-135.59 460.72,-126.32 468.5,-117.85"/>
<polygon fill="black" stroke="black" points="471.01,-120.29 475.11,-110.52 465.81,-115.6 471.01,-120.29"/>
<text xml:space="preserve" text-anchor="middle" x="509.12" y="-130.2" font-family="Times,serif" font-size="14.00">can introduce bias</text>
</g>
</g>
</svg>
