<?xml version="1.0" encoding="UTF-8" standalone="no"?>
<!DOCTYPE svg PUBLIC "-//W3C//DTD SVG 1.1//EN"
 "http://www.w3.org/Graphics/SVG/1.1/DTD/svg11.dtd">
<!-- Generated by graphviz version 14.1.3 (20260303.0454)
 -->
<!-- Title: PolicyGradientFamily Pages: 1 -->
<svg width="1256pt" height="120pt"
 viewBox="0.00 0.00 1256.00 120.00" xmlns="http://www.w3.org/2000/svg" xmlns:xlink="http://www.w3.org/1999/xlink">
<g id="graph0" class="graph" transform="scale(1 1) rotate(0) translate(4 116.25)">
<title>PolicyGradientFamily</title>
<polygon fill="white" stroke="none" points="-4,4 -4,-116.25 1252.25,-116.25 1252.25,4 -4,4"/>
<text xml:space="preserve" text-anchor="middle" x="624.12" y="-96.85" font-family="Times,serif" font-size="12.00">How the policy&#45;gradient family branches</text>
<!-- j -->
<g id="node1" class="node">
<title>j</title>
<path fill="none" stroke="black" d="M88.75,-63C88.75,-63 12,-63 12,-63 6,-63 0,-57 0,-51 0,-51 0,-39 0,-39 0,-33 6,-27 12,-27 12,-27 88.75,-27 88.75,-27 94.75,-27 100.75,-33 100.75,-39 100.75,-39 100.75,-51 100.75,-51 100.75,-57 94.75,-63 88.75,-63"/>
<text xml:space="preserve" text-anchor="middle" x="50.38" y="-41.3" font-family="Times,serif" font-size="11.00">Objective J(u03b8)</text>
</g>
<!-- score -->
<g id="node2" class="node">
<title>score</title>
<path fill="none" stroke="black" d="M242,-63C242,-63 148.75,-63 148.75,-63 142.75,-63 136.75,-57 136.75,-51 136.75,-51 136.75,-39 136.75,-39 136.75,-33 142.75,-27 148.75,-27 148.75,-27 242,-27 242,-27 248,-27 254,-33 254,-39 254,-39 254,-51 254,-51 254,-57 248,-63 242,-63"/>
<text xml:space="preserve" text-anchor="middle" x="195.38" y="-41.3" font-family="Times,serif" font-size="11.00">Score&#45;function identity</text>
</g>
<!-- j&#45;&gt;score -->
<g id="edge1" class="edge">
<title>j&#45;&gt;score</title>
<path fill="none" stroke="black" d="M100.99,-45C108.77,-45 116.94,-45 125.07,-45"/>
<polygon fill="black" stroke="black" points="124.99,-48.5 134.99,-45 124.99,-41.5 124.99,-48.5"/>
</g>
<!-- reinf -->
<g id="node3" class="node">
<title>reinf</title>
<path fill="none" stroke="black" d="M387,-63C387,-63 302,-63 302,-63 296,-63 290,-57 290,-51 290,-51 290,-39 290,-39 290,-33 296,-27 302,-27 302,-27 387,-27 387,-27 393,-27 399,-33 399,-39 399,-39 399,-51 399,-51 399,-57 393,-63 387,-63"/>
<text xml:space="preserve" text-anchor="middle" x="344.5" y="-48.05" font-family="Times,serif" font-size="11.00">REINFORCE</text>
<text xml:space="preserve" text-anchor="middle" x="344.5" y="-34.55" font-family="Times,serif" font-size="11.00">uses sampled returns</text>
</g>
<!-- score&#45;&gt;reinf -->
<g id="edge2" class="edge">
<title>score&#45;&gt;reinf</title>
<path fill="none" stroke="black" d="M254.1,-45C262.09,-45 270.34,-45 278.45,-45"/>
<polygon fill="black" stroke="black" points="278.27,-48.5 288.27,-45 278.27,-41.5 278.27,-48.5"/>
</g>
<!-- base -->
<g id="node4" class="node">
<title>base</title>
<path fill="none" stroke="black" d="M589,-69.25C589,-69.25 447,-69.25 447,-69.25 441,-69.25 435,-63.25 435,-57.25 435,-57.25 435,-32.75 435,-32.75 435,-26.75 441,-20.75 447,-20.75 447,-20.75 589,-20.75 589,-20.75 595,-20.75 601,-26.75 601,-32.75 601,-32.75 601,-57.25 601,-57.25 601,-63.25 595,-69.25 589,-69.25"/>
<text xml:space="preserve" text-anchor="middle" x="518" y="-54.8" font-family="Times,serif" font-size="11.00">Add baseline</text>
<text xml:space="preserve" text-anchor="middle" x="518" y="-41.3" font-family="Times,serif" font-size="11.00">reduce variance without changing</text>
<text xml:space="preserve" text-anchor="middle" x="518" y="-27.8" font-family="Times,serif" font-size="11.00">expected gradient</text>
</g>
<!-- reinf&#45;&gt;base -->
<g id="edge3" class="edge">
<title>reinf&#45;&gt;base</title>
<path fill="none" stroke="black" d="M399.29,-45C406.9,-45 414.91,-45 423.01,-45"/>
<polygon fill="black" stroke="black" points="422.99,-48.5 432.99,-45 422.99,-41.5 422.99,-48.5"/>
</g>
<!-- adv -->
<g id="node5" class="node">
<title>adv</title>
<path fill="none" stroke="black" d="M824.75,-63C824.75,-63 649,-63 649,-63 643,-63 637,-57 637,-51 637,-51 637,-39 637,-39 637,-33 643,-27 649,-27 649,-27 824.75,-27 824.75,-27 830.75,-27 836.75,-33 836.75,-39 836.75,-39 836.75,-51 836.75,-51 836.75,-57 830.75,-63 824.75,-63"/>
<text xml:space="preserve" text-anchor="middle" x="736.88" y="-48.05" font-family="Times,serif" font-size="11.00">Advantage viewpoint</text>
<text xml:space="preserve" text-anchor="middle" x="736.88" y="-34.55" font-family="Times,serif" font-size="11.00">center actor signal around policy average</text>
</g>
<!-- base&#45;&gt;adv -->
<g id="edge4" class="edge">
<title>base&#45;&gt;adv</title>
<path fill="none" stroke="black" d="M601.3,-45C609.12,-45 617.13,-45 625.16,-45"/>
<polygon fill="black" stroke="black" points="624.99,-48.5 634.99,-45 624.99,-41.5 624.99,-48.5"/>
</g>
<!-- ac -->
<g id="node6" class="node">
<title>ac</title>
<path fill="none" stroke="black" d="M1004.25,-63C1004.25,-63 884.75,-63 884.75,-63 878.75,-63 872.75,-57 872.75,-51 872.75,-51 872.75,-39 872.75,-39 872.75,-33 878.75,-27 884.75,-27 884.75,-27 1004.25,-27 1004.25,-27 1010.25,-27 1016.25,-33 1016.25,-39 1016.25,-39 1016.25,-51 1016.25,-51 1016.25,-57 1010.25,-63 1004.25,-63"/>
<text xml:space="preserve" text-anchor="middle" x="944.5" y="-48.05" font-family="Times,serif" font-size="11.00">Actor&#45;critic</text>
<text xml:space="preserve" text-anchor="middle" x="944.5" y="-34.55" font-family="Times,serif" font-size="11.00">critic supplies learned signal</text>
</g>
<!-- adv&#45;&gt;ac -->
<g id="edge5" class="edge">
<title>adv&#45;&gt;ac</title>
<path fill="none" stroke="black" d="M837.07,-45C845.08,-45 853.11,-45 860.98,-45"/>
<polygon fill="black" stroke="black" points="860.85,-48.5 870.85,-45 860.85,-41.5 860.85,-48.5"/>
</g>
<!-- ppo -->
<g id="node7" class="node">
<title>ppo</title>
<path fill="none" stroke="black" d="M1236.25,-90C1236.25,-90 1064.25,-90 1064.25,-90 1058.25,-90 1052.25,-84 1052.25,-78 1052.25,-78 1052.25,-66 1052.25,-66 1052.25,-60 1058.25,-54 1064.25,-54 1064.25,-54 1236.25,-54 1236.25,-54 1242.25,-54 1248.25,-60 1248.25,-66 1248.25,-66 1248.25,-78 1248.25,-78 1248.25,-84 1242.25,-90 1236.25,-90"/>
<text xml:space="preserve" text-anchor="middle" x="1150.25" y="-75.05" font-family="Times,serif" font-size="11.00">PPO</text>
<text xml:space="preserve" text-anchor="middle" x="1150.25" y="-61.55" font-family="Times,serif" font-size="11.00">constrains policy update size by clipping</text>
</g>
<!-- ac&#45;&gt;ppo -->
<g id="edge6" class="edge">
<title>ac&#45;&gt;ppo</title>
<path fill="none" stroke="black" d="M1016.48,-54.41C1024.37,-55.45 1032.54,-56.53 1040.77,-57.62"/>
<polygon fill="black" stroke="black" points="1040.13,-61.07 1050.5,-58.91 1041.05,-54.13 1040.13,-61.07"/>
</g>
<!-- sac -->
<g id="node8" class="node">
<title>sac</title>
<path fill="none" stroke="black" d="M1229.12,-36C1229.12,-36 1071.38,-36 1071.38,-36 1065.38,-36 1059.38,-30 1059.38,-24 1059.38,-24 1059.38,-12 1059.38,-12 1059.38,-6 1065.38,0 1071.38,0 1071.38,0 1229.12,0 1229.12,0 1235.12,0 1241.12,-6 1241.12,-12 1241.12,-12 1241.12,-24 1241.12,-24 1241.12,-30 1235.12,-36 1229.12,-36"/>
<text xml:space="preserve" text-anchor="middle" x="1150.25" y="-21.05" font-family="Times,serif" font-size="11.00">SAC</text>
<text xml:space="preserve" text-anchor="middle" x="1150.25" y="-7.55" font-family="Times,serif" font-size="11.00">optimizes reward + entropy objective</text>
</g>
<!-- ac&#45;&gt;sac -->
<g id="edge7" class="edge">
<title>ac&#45;&gt;sac</title>
<path fill="none" stroke="black" d="M1016.48,-35.59C1026.7,-34.24 1037.39,-32.82 1048.07,-31.41"/>
<polygon fill="black" stroke="black" points="1048.22,-34.92 1057.67,-30.14 1047.3,-27.98 1048.22,-34.92"/>
</g>
</g>
</svg>
