<?xml version="1.0" encoding="UTF-8" standalone="no"?>
<!DOCTYPE svg PUBLIC "-//W3C//DTD SVG 1.1//EN"
 "http://www.w3.org/Graphics/SVG/1.1/DTD/svg11.dtd">
<!-- Generated by graphviz version 14.1.3 (20260303.0454)
 -->
<!-- Title: HistoryStateMarkovCheck Pages: 1 -->
<svg width="325pt" height="389pt"
 viewBox="0.00 0.00 325.00 389.00" xmlns="http://www.w3.org/2000/svg" xmlns:xlink="http://www.w3.org/1999/xlink">
<g id="graph0" class="graph" transform="scale(1 1) rotate(0) translate(4 384.75)">
<title>HistoryStateMarkovCheck</title>
<polygon fill="white" stroke="none" points="-4,4 -4,-384.75 321,-384.75 321,4 -4,4"/>
<text xml:space="preserve" text-anchor="middle" x="158.5" y="-365.35" font-family="Times,serif" font-size="12.00">How to tell whether a summary is a Markov state</text>
<!-- hist -->
<g id="node1" class="node">
<title>hist</title>
<path fill="none" stroke="black" d="M189.38,-358.5C189.38,-358.5 127.62,-358.5 127.62,-358.5 121.62,-358.5 115.62,-352.5 115.62,-346.5 115.62,-346.5 115.62,-334.5 115.62,-334.5 115.62,-328.5 121.62,-322.5 127.62,-322.5 127.62,-322.5 189.38,-322.5 189.38,-322.5 195.38,-322.5 201.38,-328.5 201.38,-334.5 201.38,-334.5 201.38,-346.5 201.38,-346.5 201.38,-352.5 195.38,-358.5 189.38,-358.5"/>
<text xml:space="preserve" text-anchor="middle" x="158.5" y="-336.8" font-family="Times,serif" font-size="11.00">Full history H_t</text>
</g>
<!-- summary -->
<g id="node2" class="node">
<title>summary</title>
<path fill="none" stroke="black" d="M227.25,-285.5C227.25,-285.5 89.75,-285.5 89.75,-285.5 83.75,-285.5 77.75,-279.5 77.75,-273.5 77.75,-273.5 77.75,-261.5 77.75,-261.5 77.75,-255.5 83.75,-249.5 89.75,-249.5 89.75,-249.5 227.25,-249.5 227.25,-249.5 233.25,-249.5 239.25,-255.5 239.25,-261.5 239.25,-261.5 239.25,-273.5 239.25,-273.5 239.25,-279.5 233.25,-285.5 227.25,-285.5"/>
<text xml:space="preserve" text-anchor="middle" x="158.5" y="-263.8" font-family="Times,serif" font-size="11.00">Candidate summary S_t = f(H_t)</text>
</g>
<!-- hist&#45;&gt;summary -->
<g id="edge1" class="edge">
<title>hist&#45;&gt;summary</title>
<path fill="none" stroke="black" d="M158.5,-322.31C158.5,-314.73 158.5,-305.6 158.5,-297.04"/>
<polygon fill="black" stroke="black" points="162,-297.04 158.5,-287.04 155,-297.04 162,-297.04"/>
</g>
<!-- check -->
<g id="node3" class="node">
<title>check</title>
<path fill="none" stroke="black" d="M147.32,-208.13C147.32,-208.13 11.18,-154.87 11.18,-154.87 5.59,-152.69 5.59,-148.31 11.18,-146.13 11.18,-146.13 147.32,-92.87 147.32,-92.87 152.91,-90.69 164.09,-90.69 169.68,-92.87 169.68,-92.87 305.82,-146.13 305.82,-146.13 311.41,-148.31 311.41,-152.69 305.82,-154.87 305.82,-154.87 169.68,-208.13 169.68,-208.13 164.09,-210.31 152.91,-210.31 147.32,-208.13"/>
<text xml:space="preserve" text-anchor="middle" x="158.5" y="-167.05" font-family="Times,serif" font-size="11.00">After conditioning on</text>
<text xml:space="preserve" text-anchor="middle" x="158.5" y="-153.55" font-family="Times,serif" font-size="11.00">S_t and A_t, does earlier history</text>
<text xml:space="preserve" text-anchor="middle" x="158.5" y="-140.05" font-family="Times,serif" font-size="11.00">still change the law of</text>
<text xml:space="preserve" text-anchor="middle" x="158.5" y="-126.55" font-family="Times,serif" font-size="11.00">(R_{t+1}, S_{t+1})?</text>
</g>
<!-- summary&#45;&gt;check -->
<g id="edge2" class="edge">
<title>summary&#45;&gt;check</title>
<path fill="none" stroke="black" d="M158.5,-249.03C158.5,-242.02 158.5,-233.43 158.5,-224.28"/>
<polygon fill="black" stroke="black" points="162,-224.43 158.5,-214.43 155,-224.43 162,-224.43"/>
</g>
<!-- notmarkov -->
<g id="node4" class="node">
<title>notmarkov</title>
<path fill="none" stroke="black" d="M152.75,-36C152.75,-36 12.25,-36 12.25,-36 6.25,-36 0.25,-30 0.25,-24 0.25,-24 0.25,-12 0.25,-12 0.25,-6 6.25,0 12.25,0 12.25,0 152.75,0 152.75,0 158.75,0 164.75,-6 164.75,-12 164.75,-12 164.75,-24 164.75,-24 164.75,-30 158.75,-36 152.75,-36"/>
<text xml:space="preserve" text-anchor="middle" x="82.5" y="-21.05" font-family="Times,serif" font-size="11.00">Yes &#45;&gt; summary is useful maybe,</text>
<text xml:space="preserve" text-anchor="middle" x="82.5" y="-7.55" font-family="Times,serif" font-size="11.00">but not Markov</text>
</g>
<!-- check&#45;&gt;notmarkov -->
<g id="edge3" class="edge">
<title>check&#45;&gt;notmarkov</title>
<path fill="none" stroke="black" d="M129.33,-99.42C118.79,-81.31 107.29,-61.56 98.32,-46.16"/>
<polygon fill="black" stroke="black" points="101.38,-44.46 93.32,-37.58 95.33,-47.98 101.38,-44.46"/>
<text xml:space="preserve" text-anchor="middle" x="120.46" y="-57.2" font-family="Times,serif" font-size="14.00">yes</text>
</g>
<!-- markov -->
<g id="node5" class="node">
<title>markov</title>
<path fill="none" stroke="black" d="M275.75,-36C275.75,-36 195.25,-36 195.25,-36 189.25,-36 183.25,-30 183.25,-24 183.25,-24 183.25,-12 183.25,-12 183.25,-6 189.25,0 195.25,0 195.25,0 275.75,0 275.75,0 281.75,0 287.75,-6 287.75,-12 287.75,-12 287.75,-24 287.75,-24 287.75,-30 281.75,-36 275.75,-36"/>
<text xml:space="preserve" text-anchor="middle" x="235.5" y="-21.05" font-family="Times,serif" font-size="11.00">No &#45;&gt; summary is a</text>
<text xml:space="preserve" text-anchor="middle" x="235.5" y="-7.55" font-family="Times,serif" font-size="11.00">Markov state</text>
</g>
<!-- check&#45;&gt;markov -->
<g id="edge4" class="edge">
<title>check&#45;&gt;markov</title>
<path fill="none" stroke="black" d="M187.83,-99.79C198.64,-81.47 210.47,-61.42 219.64,-45.88"/>
<polygon fill="black" stroke="black" points="222.41,-48.07 224.48,-37.68 216.38,-44.51 222.41,-48.07"/>
<text xml:space="preserve" text-anchor="middle" x="219.5" y="-57.2" font-family="Times,serif" font-size="14.00">no</text>
</g>
</g>
</svg>
