<?xml version="1.0" encoding="UTF-8" standalone="no"?>
<!DOCTYPE svg PUBLIC "-//W3C//DTD SVG 1.1//EN"
 "http://www.w3.org/Graphics/SVG/1.1/DTD/svg11.dtd">
<!-- Generated by graphviz version 14.1.3 (20260303.0454)
 -->
<!-- Title: MarkovToMDPToBellman Pages: 1 -->
<svg width="716pt" height="120pt"
 viewBox="0.00 0.00 716.00 120.00" xmlns="http://www.w3.org/2000/svg" xmlns:xlink="http://www.w3.org/1999/xlink">
<g id="graph0" class="graph" transform="scale(1 1) rotate(0) translate(4 116.25)">
<title>MarkovToMDPToBellman</title>
<polygon fill="white" stroke="none" points="-4,4 -4,-116.25 711.5,-116.25 711.5,4 -4,4"/>
<text xml:space="preserve" text-anchor="middle" x="353.75" y="-96.85" font-family="Times,serif" font-size="12.00">Why Markov structure enables Bellman structure</text>
<!-- markov -->
<g id="node1" class="node">
<title>markov</title>
<path fill="none" stroke="black" d="M82.75,-90C82.75,-90 15,-90 15,-90 9,-90 3,-84 3,-78 3,-78 3,-66 3,-66 3,-60 9,-54 15,-54 15,-54 82.75,-54 82.75,-54 88.75,-54 94.75,-60 94.75,-66 94.75,-66 94.75,-78 94.75,-78 94.75,-84 88.75,-90 82.75,-90"/>
<text xml:space="preserve" text-anchor="middle" x="48.88" y="-68.3" font-family="Times,serif" font-size="11.00">Markov state S_t</text>
</g>
<!-- kernel -->
<g id="node3" class="node">
<title>kernel</title>
<path fill="none" stroke="black" d="M237.5,-63C237.5,-63 145.75,-63 145.75,-63 139.75,-63 133.75,-57 133.75,-51 133.75,-51 133.75,-39 133.75,-39 133.75,-33 139.75,-27 145.75,-27 145.75,-27 237.5,-27 237.5,-27 243.5,-27 249.5,-33 249.5,-39 249.5,-39 249.5,-51 249.5,-51 249.5,-57 243.5,-63 237.5,-63"/>
<text xml:space="preserve" text-anchor="middle" x="191.62" y="-48.05" font-family="Times,serif" font-size="11.00">Transition&#45;reward law</text>
<text xml:space="preserve" text-anchor="middle" x="191.62" y="-34.55" font-family="Times,serif" font-size="11.00">p(s&#39;, r | s, a)</text>
</g>
<!-- markov&#45;&gt;kernel -->
<g id="edge1" class="edge">
<title>markov&#45;&gt;kernel</title>
<path fill="none" stroke="black" d="M95.18,-63.31C103.81,-61.65 113.02,-59.89 122.18,-58.13"/>
<polygon fill="black" stroke="black" points="122.64,-61.61 131.8,-56.28 121.32,-54.73 122.64,-61.61"/>
</g>
<!-- action -->
<g id="node2" class="node">
<title>action</title>
<path fill="none" stroke="black" d="M85.75,-36C85.75,-36 12,-36 12,-36 6,-36 0,-30 0,-24 0,-24 0,-12 0,-12 0,-6 6,0 12,0 12,0 85.75,0 85.75,0 91.75,0 97.75,-6 97.75,-12 97.75,-12 97.75,-24 97.75,-24 97.75,-30 91.75,-36 85.75,-36"/>
<text xml:space="preserve" text-anchor="middle" x="48.88" y="-14.3" font-family="Times,serif" font-size="11.00">Current action A_t</text>
</g>
<!-- action&#45;&gt;kernel -->
<g id="edge2" class="edge">
<title>action&#45;&gt;kernel</title>
<path fill="none" stroke="black" d="M97.92,-27.22C105.8,-28.73 114.1,-30.32 122.37,-31.91"/>
<polygon fill="black" stroke="black" points="121.6,-35.32 132.08,-33.77 122.92,-28.45 121.6,-35.32"/>
</g>
<!-- mdp -->
<g id="node4" class="node">
<title>mdp</title>
<path fill="none" stroke="black" d="M498.75,-63C498.75,-63 297.5,-63 297.5,-63 291.5,-63 285.5,-57 285.5,-51 285.5,-51 285.5,-39 285.5,-39 285.5,-33 291.5,-27 297.5,-27 297.5,-27 498.75,-27 498.75,-27 504.75,-27 510.75,-33 510.75,-39 510.75,-39 510.75,-51 510.75,-51 510.75,-57 504.75,-63 498.75,-63"/>
<text xml:space="preserve" text-anchor="middle" x="398.12" y="-48.05" font-family="Times,serif" font-size="11.00">MDP description</text>
<text xml:space="preserve" text-anchor="middle" x="398.12" y="-34.55" font-family="Times,serif" font-size="11.00">(state space, action space, kernel, reward law)</text>
</g>
<!-- kernel&#45;&gt;mdp -->
<g id="edge3" class="edge">
<title>kernel&#45;&gt;mdp</title>
<path fill="none" stroke="black" d="M249.86,-45C257.5,-45 265.55,-45 273.8,-45"/>
<polygon fill="black" stroke="black" points="273.63,-48.5 283.63,-45 273.63,-41.5 273.63,-48.5"/>
</g>
<!-- bellman -->
<g id="node5" class="node">
<title>bellman</title>
<path fill="none" stroke="black" d="M695.5,-63C695.5,-63 558.75,-63 558.75,-63 552.75,-63 546.75,-57 546.75,-51 546.75,-51 546.75,-39 546.75,-39 546.75,-33 552.75,-27 558.75,-27 558.75,-27 695.5,-27 695.5,-27 701.5,-27 707.5,-33 707.5,-39 707.5,-39 707.5,-51 707.5,-51 707.5,-57 701.5,-63 695.5,-63"/>
<text xml:space="preserve" text-anchor="middle" x="627.12" y="-48.05" font-family="Times,serif" font-size="11.00">Recursive value equations</text>
<text xml:space="preserve" text-anchor="middle" x="627.12" y="-34.55" font-family="Times,serif" font-size="11.00">become valid over states/actions</text>
</g>
<!-- mdp&#45;&gt;bellman -->
<g id="edge4" class="edge">
<title>mdp&#45;&gt;bellman</title>
<path fill="none" stroke="black" d="M510.96,-45C519.01,-45 527.06,-45 534.97,-45"/>
<polygon fill="black" stroke="black" points="534.91,-48.5 544.91,-45 534.91,-41.5 534.91,-48.5"/>
</g>
</g>
</svg>
